<ttFont>
    <TTGlyph name="A" xMin="20" yMin="0" xMax="490" yMax="700">
      <contour>
        <pt x="186" y="180" on="1"/>
        <pt x="110" y="0" on="1"/>
        <pt x="20" y="0" on="1"/>
        <pt x="313" y="700" on="1"/>
        <pt x="443" y="700" on="1"/>
        <pt x="490" y="0" on="1"/>
        <pt x="400" y="0" on="1"/>
        <pt x="386" y="180" on="1"/>
      </contour>
      <contour>
        <pt x="362" y="600" on="1"/>
        <pt x="358" y="600" on="1"/>
        <pt x="214" y="250" on="1"/>
        <pt x="384" y="250" on="1"/>
      </contour>
    </TTGlyph>
    <TTGlyph name="AE" xMin="0" yMin="0" xMax="814" yMax="700">
      <contour>
        <pt x="363" y="700" on="1"/>
        <pt x="814" y="700" on="1"/>
        <pt x="802" y="630" on="1"/>
        <pt x="552" y="630" on="1"/>
        <pt x="511" y="400" on="1"/>
        <pt x="731" y="400" on="1"/>
        <pt x="719" y="330" on="1"/>
        <pt x="499" y="330" on="1"/>
        <pt x="453" y="70" on="1"/>
        <pt x="703" y="70" on="1"/>
        <pt x="691" y="0" on="1"/>
        <pt x="351" y="0" on="1"/>
        <pt x="382" y="180" on="1"/>
        <pt x="183" y="180" on="1"/>
        <pt x="90" y="0" on="1"/>
        <pt x="0" y="0" on="1"/>
      </contour>
      <contour>
        <pt x="220" y="250" on="1"/>
        <pt x="395" y="250" on="1"/>
        <pt x="462" y="630" on="1"/>
        <pt x="417" y="630" on="1"/>
      </contour>
    </TTGlyph>
    <TTGlyph name="Aacute" xMin="20" yMin="0" xMax="505" yMax="880">
      <contour>
        <pt x="186" y="180" on="1"/>
        <pt x="110" y="0" on="1"/>
        <pt x="20" y="0" on="1"/>
        <pt x="313" y="700" on="1"/>
        <pt x="443" y="700" on="1"/>
        <pt x="490" y="0" on="1"/>
        <pt x="400" y="0" on="1"/>
        <pt x="386" y="180" on="1"/>
      </contour>
      <contour>
        <pt x="362" y="600" on="1"/>
        <pt x="358" y="600" on="1"/>
        <pt x="214" y="250" on="1"/>
        <pt x="384" y="250" on="1"/>
      </contour>
      <contour>
        <pt x="352" y="750" on="1"/>
        <pt x="410" y="880" on="1"/>
        <pt x="505" y="880" on="1"/>
        <pt x="412" y="750" on="1"/>
      </contour>
    </TTGlyph>
    <TTGlyph name="Acircumflex" xMin="20" yMin="0" xMax="510" yMax="880">
      <contour>
        <pt x="186" y="180" on="1"/>
        <pt x="110" y="0" on="1"/>
        <pt x="20" y="0" on="1"/>
        <pt x="313" y="700" on="1"/>
        <pt x="443" y="700" on="1"/>
        <pt x="490" y="0" on="1"/>
        <pt x="400" y="0" on="1"/>
        <pt x="386" y="180" on="1"/>
      </contour>
      <contour>
        <pt x="362" y="600" on="1"/>
        <pt x="358" y="600" on="1"/>
        <pt x="214" y="250" on="1"/>
        <pt x="384" y="250" on="1"/>
      </contour>
      <contour>
        <pt x="265" y="750" on="1"/>
        <pt x="363" y="880" on="1"/>
        <pt x="458" y="880" on="1"/>
        <pt x="510" y="750" on="1"/>
        <pt x="450" y="750" on="1"/>
        <pt x="400" y="824" on="1"/>
        <pt x="325" y="750" on="1"/>
      </contour>
    </TTGlyph>
    <TTGlyph name="Adieresis" xMin="20" yMin="0" xMax="533" yMax="870">
      <contour>
        <pt x="186" y="180" on="1"/>
        <pt x="110" y="0" on="1"/>
        <pt x="20" y="0" on="1"/>
        <pt x="313" y="700" on="1"/>
        <pt x="443" y="700" on="1"/>
        <pt x="490" y="0" on="1"/>
        <pt x="400" y="0" on="1"/>
        <pt x="386" y="180" on="1"/>
      </contour>
      <contour>
        <pt x="362" y="600" on="1"/>
        <pt x="358" y="600" on="1"/>
        <pt x="214" y="250" on="1"/>
        <pt x="384" y="250" on="1"/>
      </contour>
      <contour>
        <pt x="373" y="870" on="1"/>
        <pt x="354" y="760" on="1"/>
        <pt x="264" y="760" on="1"/>
        <pt x="283" y="870" on="1"/>
      </contour>
      <contour>
        <pt x="533" y="870" on="1"/>
        <pt x="514" y="760" on="1"/>
        <pt x="424" y="760" on="1"/>
        <pt x="443" y="870" on="1"/>
      </contour>
    </TTGlyph>
    <TTGlyph name="Agrave" xMin="20" yMin="0" xMax="490" yMax="880">
      <contour>
        <pt x="186" y="180" on="1"/>
        <pt x="110" y="0" on="1"/>
        <pt x="20" y="0" on="1"/>
        <pt x="313" y="700" on="1"/>
        <pt x="443" y="700" on="1"/>
        <pt x="490" y="0" on="1"/>
        <pt x="400" y="0" on="1"/>
        <pt x="386" y="180" on="1"/>
      </contour>
      <contour>
        <pt x="362" y="600" on="1"/>
        <pt x="358" y="600" on="1"/>
        <pt x="214" y="250" on="1"/>
        <pt x="384" y="250" on="1"/>
      </contour>
      <contour>
        <pt x="362" y="750" on="1"/>
        <pt x="315" y="880" on="1"/>
        <pt x="410" y="880" on="1"/>
        <pt x="422" y="750" on="1"/>
      </contour>
    </TTGlyph>
    <TTGlyph name="Amacron" xMin="20" yMin="0" xMax="516" yMax="830">
      <contour>
        <pt x="186" y="180" on="1"/>
        <pt x="110" y="0" on="1"/>
        <pt x="20" y="0" on="1"/>
        <pt x="313" y="700" on="1"/>
        <pt x="443" y="700" on="1"/>
        <pt x="490" y="0" on="1"/>
        <pt x="400" y="0" on="1"/>
        <pt x="386" y="180" on="1"/>
      </contour>
      <contour>
        <pt x="362" y="600" on="1"/>
        <pt x="358" y="600" on="1"/>
        <pt x="214" y="250" on="1"/>
        <pt x="384" y="250" on="1"/>
      </contour>
      <contour>
        <pt x="286" y="830" on="1"/>
        <pt x="516" y="830" on="1"/>
        <pt x="505" y="770" on="1"/>
        <pt x="275" y="770" on="1"/>
      </contour>
    </TTGlyph>
    <TTGlyph name="Aogonek" xMin="20" yMin="-160" xMax="526" yMax="700">
      <contour>
        <pt x="386" y="180" on="1"/>
        <pt x="186" y="180" on="1"/>
        <pt x="110" y="0" on="1"/>
        <pt x="20" y="0" on="1"/>
        <pt x="313" y="700" on="1"/>
        <pt x="443" y="700" on="1"/>
        <pt x="490" y="0" on="1"/>
        <pt x="450" y="0" on="1"/>
        <pt x="442" y="-45" on="1"/>
        <pt x="436" y="-79" on="0"/>
        <pt x="457" y="-104" on="0"/>
        <pt x="491" y="-104" on="1"/>
        <pt x="526" y="-104" on="1"/>
        <pt x="519" y="-145" on="1"/>
        <pt x="509" y="-149" on="0"/>
        <pt x="497" y="-153" on="1"/>
        <pt x="486" y="-156" on="0"/>
        <pt x="458" y="-160" on="0"/>
        <pt x="441" y="-160" on="1"/>
        <pt x="399" y="-160" on="0"/>
        <pt x="364" y="-118" on="0"/>
        <pt x="370" y="-80" on="1"/>
        <pt x="373" y="-63" on="0"/>
        <pt x="386" y="-34" on="0"/>
        <pt x="393" y="-23" on="1"/>
        <pt x="401" y="-11" on="0"/>
        <pt x="410" y="0" on="1"/>
        <pt x="400" y="0" on="1"/>
      </contour>
      <contour>
        <pt x="362" y="600" on="1"/>
        <pt x="358" y="600" on="1"/>
        <pt x="214" y="250" on="1"/>
        <pt x="384" y="250" on="1"/>
      </contour>
    </TTGlyph>
    <TTGlyph name="Aring" xMin="20" yMin="0" xMax="490" yMax="890">
      <contour>
        <pt x="186" y="180" on="1"/>
        <pt x="110" y="0" on="1"/>
        <pt x="20" y="0" on="1"/>
        <pt x="313" y="700" on="1"/>
        <pt x="443" y="700" on="1"/>
        <pt x="490" y="0" on="1"/>
        <pt x="400" y="0" on="1"/>
        <pt x="386" y="180" on="1"/>
      </contour>
      <contour>
        <pt x="362" y="600" on="1"/>
        <pt x="358" y="600" on="1"/>
        <pt x="214" y="250" on="1"/>
        <pt x="384" y="250" on="1"/>
      </contour>
      <contour>
        <pt x="432" y="810" on="1"/>
        <pt x="436" y="829" on="0"/>
        <pt x="418" y="845" on="0"/>
        <pt x="403" y="845" on="1"/>
        <pt x="388" y="845" on="0"/>
        <pt x="366" y="829" on="0"/>
        <pt x="362" y="810" on="1"/>
        <pt x="359" y="791" on="0"/>
        <pt x="376" y="775" on="0"/>
        <pt x="391" y="775" on="1"/>
        <pt x="406" y="775" on="0"/>
        <pt x="429" y="791" on="0"/>
      </contour>
      <contour>
        <pt x="482" y="810" on="1"/>
        <pt x="476" y="772" on="0"/>
        <pt x="421" y="730" on="0"/>
        <pt x="383" y="730" on="1"/>
        <pt x="345" y="730" on="0"/>
        <pt x="306" y="772" on="0"/>
        <pt x="312" y="810" on="1"/>
        <pt x="319" y="848" on="0"/>
        <pt x="373" y="890" on="0"/>
        <pt x="411" y="890" on="1"/>
        <pt x="449" y="890" on="0"/>
        <pt x="489" y="848" on="0"/>
      </contour>
    </TTGlyph>
    <TTGlyph name="Atilde" xMin="20" yMin="0" xMax="515" yMax="870">
      <contour>
        <pt x="186" y="180" on="1"/>
        <pt x="110" y="0" on="1"/>
        <pt x="20" y="0" on="1"/>
        <pt x="313" y="700" on="1"/>
        <pt x="443" y="700" on="1"/>
        <pt x="490" y="0" on="1"/>
        <pt x="400" y="0" on="1"/>
        <pt x="386" y="180" on="1"/>
      </contour>
      <contour>
        <pt x="362" y="600" on="1"/>
        <pt x="358" y="600" on="1"/>
        <pt x="214" y="250" on="1"/>
        <pt x="384" y="250" on="1"/>
      </contour>
      <contour>
        <pt x="454" y="765" on="1"/>
        <pt x="459" y="788" on="0"/>
        <pt x="448" y="810" on="0"/>
        <pt x="437" y="810" on="1"/>
        <pt x="428" y="810" on="0"/>
        <pt x="408" y="791" on="0"/>
        <pt x="385" y="769" on="0"/>
        <pt x="356" y="750" on="0"/>
        <pt x="337" y="750" on="1"/>
        <pt x="299" y="750" on="0"/>
        <pt x="270" y="798" on="0"/>
        <pt x="280" y="855" on="1"/>
        <pt x="330" y="855" on="1"/>
        <pt x="322" y="810" on="0"/>
        <pt x="347" y="810" on="1"/>
        <pt x="356" y="810" on="0"/>
        <pt x="376" y="829" on="0"/>
        <pt x="400" y="851" on="0"/>
        <pt x="429" y="870" on="0"/>
        <pt x="448" y="870" on="1"/>
        <pt x="486" y="870" on="0"/>
        <pt x="515" y="822" on="0"/>
        <pt x="504" y="765" on="1"/>
      </contour>
    </TTGlyph>
    <TTGlyph name="B" xMin="71" yMin="-10" xMax="538" yMax="710">
      <contour>
        <pt x="415" y="373" on="1"/>
        <pt x="472" y="356" on="0"/>
        <pt x="505" y="258" on="0"/>
        <pt x="493" y="190" on="1"/>
        <pt x="484" y="137" on="0"/>
        <pt x="446" y="62" on="0"/>
        <pt x="383" y="13" on="0"/>
        <pt x="292" y="-10" on="0"/>
        <pt x="228" y="-10" on="1"/>
        <pt x="183" y="-10" on="0"/>
        <pt x="107" y="-1" on="0"/>
        <pt x="71" y="10" on="1"/>
        <pt x="191" y="690" on="1"/>
        <pt x="231" y="701" on="0"/>
        <pt x="310" y="710" on="0"/>
        <pt x="355" y="710" on="1"/>
        <pt x="460" y="710" on="0"/>
        <pt x="538" y="619" on="0"/>
        <pt x="522" y="525" on="1"/>
        <pt x="514" y="480" on="0"/>
        <pt x="466" y="402" on="0"/>
        <pt x="416" y="377" on="1"/>
      </contour>
      <contour>
        <pt x="219" y="335" on="1"/>
        <pt x="169" y="55" on="1"/>
        <pt x="239" y="55" on="1"/>
        <pt x="314" y="55" on="0"/>
        <pt x="390" y="118" on="0"/>
        <pt x="403" y="190" on="1"/>
        <pt x="417" y="269" on="0"/>
        <pt x="364" y="335" on="0"/>
        <pt x="289" y="335" on="1"/>
      </contour>
      <contour>
        <pt x="290" y="400" on="1"/>
        <pt x="410" y="400" on="0"/>
        <pt x="432" y="525" on="1"/>
        <pt x="453" y="645" on="0"/>
        <pt x="333" y="645" on="1"/>
        <pt x="273" y="645" on="1"/>
        <pt x="230" y="400" on="1"/>
      </contour>
    </TTGlyph>
    <TTGlyph name="C" xMin="93" yMin="-10" xMax="531" yMax="710">
      <contour>
        <pt x="268" y="-10" on="1"/>
        <pt x="215" y="-10" on="0"/>
        <pt x="140" y="24" on="0"/>
        <pt x="98" y="106" on="0"/>
        <pt x="93" y="245" on="0"/>
        <pt x="111" y="350" on="1"/>
        <pt x="130" y="455" on="0"/>
        <pt x="183" y="594" on="0"/>
        <pt x="252" y="676" on="0"/>
        <pt x="336" y="710" on="0"/>
        <pt x="385" y="710" on="1"/>
        <pt x="430" y="710" on="0"/>
        <pt x="510" y="698" on="0"/>
        <pt x="531" y="690" on="1"/>
        <pt x="523" y="645" on="1"/>
        <pt x="393" y="645" on="1"/>
        <pt x="363" y="645" on="0"/>
        <pt x="307" y="619" on="0"/>
        <pt x="258" y="552" on="0"/>
        <pt x="217" y="438" on="0"/>
        <pt x="201" y="350" on="1"/>
        <pt x="186" y="262" on="0"/>
        <pt x="187" y="148" on="0"/>
        <pt x="215" y="81" on="0"/>
        <pt x="265" y="55" on="0"/>
        <pt x="299" y="55" on="1"/>
        <pt x="429" y="55" on="1"/>
        <pt x="421" y="10" on="1"/>
        <pt x="398" y="2" on="0"/>
        <pt x="313" y="-10" on="0"/>
      </contour>
    </TTGlyph>
    <TTGlyph name="Cacute" xMin="93" yMin="-10" xMax="531" yMax="880">
      <contour>
        <pt x="268" y="-10" on="1"/>
        <pt x="215" y="-10" on="0"/>
        <pt x="140" y="24" on="0"/>
        <pt x="98" y="106" on="0"/>
        <pt x="93" y="245" on="0"/>
        <pt x="111" y="350" on="1"/>
        <pt x="130" y="455" on="0"/>
        <pt x="183" y="594" on="0"/>
        <pt x="252" y="676" on="0"/>
        <pt x="336" y="710" on="0"/>
        <pt x="385" y="710" on="1"/>
        <pt x="430" y="710" on="0"/>
        <pt x="510" y="698" on="0"/>
        <pt x="531" y="690" on="1"/>
        <pt x="523" y="645" on="1"/>
        <pt x="393" y="645" on="1"/>
        <pt x="363" y="645" on="0"/>
        <pt x="307" y="619" on="0"/>
        <pt x="258" y="552" on="0"/>
        <pt x="217" y="438" on="0"/>
        <pt x="201" y="350" on="1"/>
        <pt x="186" y="262" on="0"/>
        <pt x="187" y="148" on="0"/>
        <pt x="215" y="81" on="0"/>
        <pt x="265" y="55" on="0"/>
        <pt x="299" y="55" on="1"/>
        <pt x="429" y="55" on="1"/>
        <pt x="421" y="10" on="1"/>
        <pt x="398" y="2" on="0"/>
        <pt x="313" y="-10" on="0"/>
      </contour>
      <contour>
        <pt x="362" y="750" on="1"/>
        <pt x="420" y="880" on="1"/>
        <pt x="515" y="880" on="1"/>
        <pt x="422" y="750" on="1"/>
      </contour>
    </TTGlyph>
    <TTGlyph name="Ccaron" xMin="93" yMin="-10" xMax="534" yMax="890">
      <contour>
        <pt x="268" y="-10" on="1"/>
        <pt x="215" y="-10" on="0"/>
        <pt x="140" y="24" on="0"/>
        <pt x="98" y="106" on="0"/>
        <pt x="93" y="245" on="0"/>
        <pt x="111" y="350" on="1"/>
        <pt x="130" y="455" on="0"/>
        <pt x="183" y="594" on="0"/>
        <pt x="252" y="676" on="0"/>
        <pt x="336" y="710" on="0"/>
        <pt x="385" y="710" on="1"/>
        <pt x="430" y="710" on="0"/>
        <pt x="510" y="698" on="0"/>
        <pt x="531" y="690" on="1"/>
        <pt x="523" y="645" on="1"/>
        <pt x="393" y="645" on="1"/>
        <pt x="363" y="645" on="0"/>
        <pt x="307" y="619" on="0"/>
        <pt x="258" y="552" on="0"/>
        <pt x="217" y="438" on="0"/>
        <pt x="201" y="350" on="1"/>
        <pt x="186" y="262" on="0"/>
        <pt x="187" y="148" on="0"/>
        <pt x="215" y="81" on="0"/>
        <pt x="265" y="55" on="0"/>
        <pt x="299" y="55" on="1"/>
        <pt x="429" y="55" on="1"/>
        <pt x="421" y="10" on="1"/>
        <pt x="398" y="2" on="0"/>
        <pt x="313" y="-10" on="0"/>
      </contour>
      <contour>
        <pt x="349" y="890" on="1"/>
        <pt x="398" y="816" on="1"/>
        <pt x="474" y="890" on="1"/>
        <pt x="534" y="890" on="1"/>
        <pt x="437" y="760" on="1"/>
        <pt x="342" y="760" on="1"/>
        <pt x="289" y="890" on="1"/>
      </contour>
    </TTGlyph>
    <TTGlyph name="Ccedilla" xMin="95" yMin="-165" xMax="531" yMax="710">
      <contour>
        <pt x="280" y="-25" on="1"/>
        <pt x="322" y="-25" on="0"/>
        <pt x="358" y="-65" on="0"/>
        <pt x="353" y="-95" on="1"/>
        <pt x="348" y="-125" on="0"/>
        <pt x="294" y="-165" on="0"/>
        <pt x="245" y="-165" on="1"/>
        <pt x="228" y="-165" on="0"/>
        <pt x="201" y="-161" on="0"/>
        <pt x="192" y="-158" on="1"/>
        <pt x="181" y="-154" on="0"/>
        <pt x="173" y="-150" on="1"/>
        <pt x="178" y="-120" on="1"/>
        <pt x="243" y="-120" on="1"/>
        <pt x="266" y="-120" on="0"/>
        <pt x="286" y="-106" on="0"/>
        <pt x="288" y="-95" on="1"/>
        <pt x="291" y="-70" on="0"/>
        <pt x="262" y="-70" on="1"/>
        <pt x="207" y="-70" on="1"/>
        <pt x="218" y="-6" on="1"/>
        <pt x="179" y="1" on="0"/>
        <pt x="123" y="45" on="0"/>
        <pt x="95" y="129" on="0"/>
        <pt x="95" y="258" on="0"/>
        <pt x="111" y="350" on="1"/>
        <pt x="130" y="455" on="0"/>
        <pt x="183" y="594" on="0"/>
        <pt x="252" y="676" on="0"/>
        <pt x="336" y="710" on="0"/>
        <pt x="385" y="710" on="1"/>
        <pt x="430" y="710" on="0"/>
        <pt x="510" y="698" on="0"/>
        <pt x="531" y="690" on="1"/>
        <pt x="523" y="645" on="1"/>
        <pt x="393" y="645" on="1"/>
        <pt x="363" y="645" on="0"/>
        <pt x="307" y="619" on="0"/>
        <pt x="258" y="552" on="0"/>
        <pt x="217" y="438" on="0"/>
        <pt x="201" y="350" on="1"/>
        <pt x="186" y="262" on="0"/>
        <pt x="187" y="148" on="0"/>
        <pt x="215" y="81" on="0"/>
        <pt x="265" y="55" on="0"/>
        <pt x="299" y="55" on="1"/>
        <pt x="429" y="55" on="1"/>
        <pt x="421" y="10" on="1"/>
        <pt x="398" y="2" on="0"/>
        <pt x="313" y="-10" on="0"/>
        <pt x="268" y="-10" on="1"/>
        <pt x="265" y="-25" on="1"/>
      </contour>
    </TTGlyph>
    <TTGlyph name="D" xMin="71" yMin="-10" xMax="550" yMax="710">
      <contour>
        <pt x="531" y="350" on="1"/>
        <pt x="513" y="245" on="0"/>
        <pt x="458" y="106" on="0"/>
        <pt x="384" y="24" on="0"/>
        <pt x="288" y="-10" on="0"/>
        <pt x="228" y="-10" on="1"/>
        <pt x="183" y="-10" on="0"/>
        <pt x="107" y="-1" on="0"/>
        <pt x="71" y="10" on="1"/>
        <pt x="191" y="690" on="1"/>
        <pt x="231" y="701" on="0"/>
        <pt x="310" y="710" on="0"/>
        <pt x="355" y="710" on="1"/>
        <pt x="415" y="710" on="0"/>
        <pt x="499" y="676" on="0"/>
        <pt x="544" y="594" on="0"/>
        <pt x="550" y="455" on="0"/>
      </contour>
      <contour>
        <pt x="441" y="350" on="1"/>
        <pt x="457" y="438" on="0"/>
        <pt x="455" y="552" on="0"/>
        <pt x="428" y="619" on="0"/>
        <pt x="377" y="645" on="0"/>
        <pt x="343" y="645" on="1"/>
        <pt x="273" y="645" on="1"/>
        <pt x="169" y="55" on="1"/>
        <pt x="239" y="55" on="1"/>
        <pt x="273" y="55" on="0"/>
        <pt x="333" y="81" on="0"/>
        <pt x="384" y="148" on="0"/>
        <pt x="426" y="262" on="0"/>
      </contour>
    </TTGlyph>
    <TTGlyph name="E" xMin="70" yMin="0" xMax="533" yMax="700">
      <contour>
        <pt x="172" y="70" on="1"/>
        <pt x="422" y="70" on="1"/>
        <pt x="410" y="0" on="1"/>
        <pt x="70" y="0" on="1"/>
        <pt x="193" y="700" on="1"/>
        <pt x="533" y="700" on="1"/>
        <pt x="521" y="630" on="1"/>
        <pt x="271" y="630" on="1"/>
        <pt x="230" y="400" on="1"/>
        <pt x="450" y="400" on="1"/>
        <pt x="438" y="330" on="1"/>
        <pt x="218" y="330" on="1"/>
      </contour>
    </TTGlyph>
    <TTGlyph name="Eacute" xMin="70" yMin="0" xMax="533" yMax="880">
      <contour>
        <pt x="172" y="70" on="1"/>
        <pt x="422" y="70" on="1"/>
        <pt x="410" y="0" on="1"/>
        <pt x="70" y="0" on="1"/>
        <pt x="193" y="700" on="1"/>
        <pt x="533" y="700" on="1"/>
        <pt x="521" y="630" on="1"/>
        <pt x="271" y="630" on="1"/>
        <pt x="230" y="400" on="1"/>
        <pt x="450" y="400" on="1"/>
        <pt x="438" y="330" on="1"/>
        <pt x="218" y="330" on="1"/>
      </contour>
      <contour>
        <pt x="342" y="750" on="1"/>
        <pt x="400" y="880" on="1"/>
        <pt x="495" y="880" on="1"/>
        <pt x="402" y="750" on="1"/>
      </contour>
    </TTGlyph>
    <TTGlyph name="Ecircumflex" xMin="70" yMin="0" xMax="533" yMax="880">
      <contour>
        <pt x="172" y="70" on="1"/>
        <pt x="422" y="70" on="1"/>
        <pt x="410" y="0" on="1"/>
        <pt x="70" y="0" on="1"/>
        <pt x="193" y="700" on="1"/>
        <pt x="533" y="700" on="1"/>
        <pt x="521" y="630" on="1"/>
        <pt x="271" y="630" on="1"/>
        <pt x="230" y="400" on="1"/>
        <pt x="450" y="400" on="1"/>
        <pt x="438" y="330" on="1"/>
        <pt x="218" y="330" on="1"/>
      </contour>
      <contour>
        <pt x="247" y="750" on="1"/>
        <pt x="345" y="880" on="1"/>
        <pt x="440" y="880" on="1"/>
        <pt x="492" y="750" on="1"/>
        <pt x="432" y="750" on="1"/>
        <pt x="382" y="824" on="1"/>
        <pt x="307" y="750" on="1"/>
      </contour>
    </TTGlyph>
    <TTGlyph name="Edieresis" xMin="70" yMin="0" xMax="533" yMax="880">
      <contour>
        <pt x="172" y="70" on="1"/>
        <pt x="422" y="70" on="1"/>
        <pt x="410" y="0" on="1"/>
        <pt x="70" y="0" on="1"/>
        <pt x="193" y="700" on="1"/>
        <pt x="533" y="700" on="1"/>
        <pt x="521" y="630" on="1"/>
        <pt x="271" y="630" on="1"/>
        <pt x="230" y="400" on="1"/>
        <pt x="450" y="400" on="1"/>
        <pt x="438" y="330" on="1"/>
        <pt x="218" y="330" on="1"/>
      </contour>
      <contour>
        <pt x="355" y="880" on="1"/>
        <pt x="335" y="770" on="1"/>
        <pt x="245" y="770" on="1"/>
        <pt x="265" y="880" on="1"/>
      </contour>
      <contour>
        <pt x="515" y="880" on="1"/>
        <pt x="495" y="770" on="1"/>
        <pt x="405" y="770" on="1"/>
        <pt x="425" y="880" on="1"/>
      </contour>
    </TTGlyph>
    <TTGlyph name="Edotaccent" xMin="70" yMin="0" xMax="533" yMax="880">
      <contour>
        <pt x="172" y="70" on="1"/>
        <pt x="422" y="70" on="1"/>
        <pt x="410" y="0" on="1"/>
        <pt x="70" y="0" on="1"/>
        <pt x="193" y="700" on="1"/>
        <pt x="533" y="700" on="1"/>
        <pt x="521" y="630" on="1"/>
        <pt x="271" y="630" on="1"/>
        <pt x="230" y="400" on="1"/>
        <pt x="450" y="400" on="1"/>
        <pt x="438" y="330" on="1"/>
        <pt x="218" y="330" on="1"/>
      </contour>
      <contour>
        <pt x="445" y="880" on="1"/>
        <pt x="425" y="770" on="1"/>
        <pt x="335" y="770" on="1"/>
        <pt x="355" y="880" on="1"/>
      </contour>
    </TTGlyph>
    <TTGlyph name="Egrave" xMin="70" yMin="0" xMax="533" yMax="880">
      <contour>
        <pt x="172" y="70" on="1"/>
        <pt x="422" y="70" on="1"/>
        <pt x="410" y="0" on="1"/>
        <pt x="70" y="0" on="1"/>
        <pt x="193" y="700" on="1"/>
        <pt x="533" y="700" on="1"/>
        <pt x="521" y="630" on="1"/>
        <pt x="271" y="630" on="1"/>
        <pt x="230" y="400" on="1"/>
        <pt x="450" y="400" on="1"/>
        <pt x="438" y="330" on="1"/>
        <pt x="218" y="330" on="1"/>
      </contour>
      <contour>
        <pt x="352" y="750" on="1"/>
        <pt x="305" y="880" on="1"/>
        <pt x="400" y="880" on="1"/>
        <pt x="412" y="750" on="1"/>
      </contour>
    </TTGlyph>
    <TTGlyph name="Emacron" xMin="70" yMin="0" xMax="533" yMax="830">
      <contour>
        <pt x="172" y="70" on="1"/>
        <pt x="422" y="70" on="1"/>
        <pt x="410" y="0" on="1"/>
        <pt x="70" y="0" on="1"/>
        <pt x="193" y="700" on="1"/>
        <pt x="533" y="700" on="1"/>
        <pt x="521" y="630" on="1"/>
        <pt x="271" y="630" on="1"/>
        <pt x="230" y="400" on="1"/>
        <pt x="450" y="400" on="1"/>
        <pt x="438" y="330" on="1"/>
        <pt x="218" y="330" on="1"/>
      </contour>
      <contour>
        <pt x="270" y="830" on="1"/>
        <pt x="500" y="830" on="1"/>
        <pt x="489" y="770" on="1"/>
        <pt x="259" y="770" on="1"/>
      </contour>
    </TTGlyph>
    <TTGlyph name="Eogonek" xMin="70" yMin="-160" xMax="533" yMax="700">
      <contour>
        <pt x="70" y="0" on="1"/>
        <pt x="193" y="700" on="1"/>
        <pt x="533" y="700" on="1"/>
        <pt x="521" y="630" on="1"/>
        <pt x="271" y="630" on="1"/>
        <pt x="230" y="400" on="1"/>
        <pt x="450" y="400" on="1"/>
        <pt x="438" y="330" on="1"/>
        <pt x="218" y="330" on="1"/>
        <pt x="172" y="70" on="1"/>
        <pt x="422" y="70" on="1"/>
        <pt x="410" y="0" on="1"/>
        <pt x="365" y="0" on="1"/>
        <pt x="357" y="-45" on="1"/>
        <pt x="351" y="-79" on="0"/>
        <pt x="372" y="-104" on="0"/>
        <pt x="406" y="-104" on="1"/>
        <pt x="441" y="-104" on="1"/>
        <pt x="434" y="-145" on="1"/>
        <pt x="424" y="-149" on="0"/>
        <pt x="412" y="-153" on="1"/>
        <pt x="401" y="-156" on="0"/>
        <pt x="373" y="-160" on="0"/>
        <pt x="356" y="-160" on="1"/>
        <pt x="314" y="-160" on="0"/>
        <pt x="279" y="-118" on="0"/>
        <pt x="285" y="-80" on="1"/>
        <pt x="288" y="-63" on="0"/>
        <pt x="301" y="-34" on="0"/>
        <pt x="308" y="-23" on="1"/>
        <pt x="316" y="-11" on="0"/>
        <pt x="325" y="0" on="1"/>
      </contour>
    </TTGlyph>
    <TTGlyph name="Eth" xMin="66" yMin="-10" xMax="570" yMax="710">
      <contour>
        <pt x="158" y="390" on="1"/>
        <pt x="211" y="690" on="1"/>
        <pt x="251" y="701" on="0"/>
        <pt x="330" y="710" on="0"/>
        <pt x="375" y="710" on="1"/>
        <pt x="435" y="710" on="0"/>
        <pt x="519" y="676" on="0"/>
        <pt x="564" y="594" on="0"/>
        <pt x="570" y="455" on="0"/>
        <pt x="551" y="350" on="1"/>
        <pt x="533" y="245" on="0"/>
        <pt x="478" y="106" on="0"/>
        <pt x="404" y="24" on="0"/>
        <pt x="308" y="-10" on="0"/>
        <pt x="248" y="-10" on="1"/>
        <pt x="203" y="-10" on="0"/>
        <pt x="127" y="-1" on="0"/>
        <pt x="91" y="10" on="1"/>
        <pt x="146" y="320" on="1"/>
        <pt x="66" y="320" on="1"/>
        <pt x="78" y="390" on="1"/>
      </contour>
      <contour>
        <pt x="461" y="350" on="1"/>
        <pt x="477" y="438" on="0"/>
        <pt x="475" y="552" on="0"/>
        <pt x="448" y="619" on="0"/>
        <pt x="397" y="645" on="0"/>
        <pt x="363" y="645" on="1"/>
        <pt x="293" y="645" on="1"/>
        <pt x="248" y="390" on="1"/>
        <pt x="358" y="390" on="1"/>
        <pt x="346" y="320" on="1"/>
        <pt x="236" y="320" on="1"/>
        <pt x="189" y="55" on="1"/>
        <pt x="259" y="55" on="1"/>
        <pt x="293" y="55" on="0"/>
        <pt x="353" y="81" on="0"/>
        <pt x="404" y="148" on="0"/>
        <pt x="446" y="262" on="0"/>
      </contour>
    </TTGlyph>
    <TTGlyph name="Euro" xMin="54" yMin="-10" xMax="561" yMax="710">
      <contour>
        <pt x="99" y="450" on="1"/>
        <pt x="164" y="450" on="1"/>
        <pt x="185" y="525" on="0"/>
        <pt x="237" y="625" on="0"/>
        <pt x="300" y="685" on="0"/>
        <pt x="374" y="710" on="0"/>
        <pt x="415" y="710" on="1"/>
        <pt x="460" y="710" on="0"/>
        <pt x="540" y="698" on="0"/>
        <pt x="561" y="690" on="1"/>
        <pt x="553" y="645" on="1"/>
        <pt x="423" y="645" on="1"/>
        <pt x="399" y="645" on="0"/>
        <pt x="352" y="628" on="0"/>
        <pt x="308" y="584" on="0"/>
        <pt x="270" y="508" on="0"/>
        <pt x="254" y="450" on="1"/>
        <pt x="459" y="450" on="1"/>
        <pt x="437" y="385" on="1"/>
        <pt x="237" y="385" on="1"/>
        <pt x="225" y="315" on="1"/>
        <pt x="410" y="315" on="1"/>
        <pt x="389" y="250" on="1"/>
        <pt x="219" y="250" on="1"/>
        <pt x="214" y="192" on="0"/>
        <pt x="226" y="116" on="0"/>
        <pt x="256" y="72" on="0"/>
        <pt x="301" y="55" on="0"/>
        <pt x="329" y="55" on="1"/>
        <pt x="459" y="55" on="1"/>
        <pt x="451" y="10" on="1"/>
        <pt x="428" y="2" on="0"/>
        <pt x="343" y="-10" on="0"/>
        <pt x="298" y="-10" on="1"/>
        <pt x="253" y="-10" on="0"/>
        <pt x="184" y="15" on="0"/>
        <pt x="141" y="75" on="0"/>
        <pt x="123" y="175" on="0"/>
        <pt x="129" y="250" on="1"/>
        <pt x="54" y="250" on="1"/>
        <pt x="75" y="315" on="1"/>
        <pt x="135" y="315" on="1"/>
        <pt x="147" y="385" on="1"/>
        <pt x="77" y="385" on="1"/>
      </contour>
    </TTGlyph>
    <TTGlyph name="F" xMin="70" yMin="0" xMax="533" yMax="700">
      <contour>
        <pt x="160" y="0" on="1"/>
        <pt x="70" y="0" on="1"/>
        <pt x="193" y="700" on="1"/>
        <pt x="533" y="700" on="1"/>
        <pt x="521" y="630" on="1"/>
        <pt x="271" y="630" on="1"/>
        <pt x="227" y="385" on="1"/>
        <pt x="437" y="385" on="1"/>
        <pt x="425" y="315" on="1"/>
        <pt x="215" y="315" on="1"/>
      </contour>
    </TTGlyph>
    <TTGlyph name="G" xMin="93" yMin="-10" xMax="541" yMax="710">
      <contour>
        <pt x="441" y="10" on="1"/>
        <pt x="418" y="2" on="0"/>
        <pt x="333" y="-10" on="0"/>
        <pt x="288" y="-10" on="1"/>
        <pt x="228" y="-10" on="0"/>
        <pt x="144" y="24" on="0"/>
        <pt x="98" y="106" on="0"/>
        <pt x="93" y="245" on="0"/>
        <pt x="111" y="350" on="1"/>
        <pt x="130" y="455" on="0"/>
        <pt x="184" y="594" on="0"/>
        <pt x="255" y="676" on="0"/>
        <pt x="342" y="710" on="0"/>
        <pt x="395" y="710" on="1"/>
        <pt x="440" y="710" on="0"/>
        <pt x="520" y="698" on="0"/>
        <pt x="541" y="690" on="1"/>
        <pt x="533" y="645" on="1"/>
        <pt x="403" y="645" on="1"/>
        <pt x="369" y="645" on="0"/>
        <pt x="309" y="619" on="0"/>
        <pt x="258" y="552" on="0"/>
        <pt x="217" y="438" on="0"/>
        <pt x="201" y="350" on="1"/>
        <pt x="186" y="262" on="0"/>
        <pt x="188" y="148" on="0"/>
        <pt x="219" y="81" on="0"/>
        <pt x="278" y="55" on="0"/>
        <pt x="319" y="55" on="1"/>
        <pt x="359" y="55" on="1"/>
        <pt x="417" y="380" on="1"/>
        <pt x="507" y="380" on="1"/>
      </contour>
    </TTGlyph>
    <TTGlyph name="Gbreve" xMin="93" yMin="-10" xMax="557" yMax="875">
      <contour>
        <pt x="441" y="10" on="1"/>
        <pt x="418" y="2" on="0"/>
        <pt x="333" y="-10" on="0"/>
        <pt x="288" y="-10" on="1"/>
        <pt x="228" y="-10" on="0"/>
        <pt x="144" y="24" on="0"/>
        <pt x="98" y="106" on="0"/>
        <pt x="93" y="245" on="0"/>
        <pt x="111" y="350" on="1"/>
        <pt x="130" y="455" on="0"/>
        <pt x="184" y="594" on="0"/>
        <pt x="255" y="676" on="0"/>
        <pt x="342" y="710" on="0"/>
        <pt x="395" y="710" on="1"/>
        <pt x="440" y="710" on="0"/>
        <pt x="520" y="698" on="0"/>
        <pt x="541" y="690" on="1"/>
        <pt x="533" y="645" on="1"/>
        <pt x="403" y="645" on="1"/>
        <pt x="369" y="645" on="0"/>
        <pt x="309" y="619" on="0"/>
        <pt x="258" y="552" on="0"/>
        <pt x="217" y="438" on="0"/>
        <pt x="201" y="350" on="1"/>
        <pt x="186" y="262" on="0"/>
        <pt x="188" y="148" on="0"/>
        <pt x="219" y="81" on="0"/>
        <pt x="278" y="55" on="0"/>
        <pt x="319" y="55" on="1"/>
        <pt x="359" y="55" on="1"/>
        <pt x="417" y="380" on="1"/>
        <pt x="507" y="380" on="1"/>
      </contour>
      <contour>
        <pt x="416" y="830" on="1"/>
        <pt x="450" y="830" on="0"/>
        <pt x="506" y="860" on="0"/>
        <pt x="524" y="875" on="1"/>
        <pt x="557" y="835" on="1"/>
        <pt x="532" y="801" on="0"/>
        <pt x="453" y="760" on="0"/>
        <pt x="404" y="760" on="1"/>
        <pt x="355" y="760" on="0"/>
        <pt x="290" y="801" on="0"/>
        <pt x="277" y="835" on="1"/>
        <pt x="324" y="875" on="1"/>
        <pt x="336" y="860" on="0"/>
        <pt x="382" y="830" on="0"/>
      </contour>
    </TTGlyph>
    <TTGlyph name="Gcommaaccent" xMin="93" yMin="-220" xMax="541" yMax="710">
      <contour>
        <pt x="217" y="-70" on="1"/>
        <pt x="307" y="-70" on="1"/>
        <pt x="251" y="-220" on="1"/>
        <pt x="191" y="-220" on="1"/>
      </contour>
      <contour>
        <pt x="441" y="10" on="1"/>
        <pt x="418" y="2" on="0"/>
        <pt x="333" y="-10" on="0"/>
        <pt x="288" y="-10" on="1"/>
        <pt x="228" y="-10" on="0"/>
        <pt x="144" y="24" on="0"/>
        <pt x="98" y="106" on="0"/>
        <pt x="93" y="245" on="0"/>
        <pt x="111" y="350" on="1"/>
        <pt x="130" y="455" on="0"/>
        <pt x="184" y="594" on="0"/>
        <pt x="255" y="676" on="0"/>
        <pt x="342" y="710" on="0"/>
        <pt x="395" y="710" on="1"/>
        <pt x="440" y="710" on="0"/>
        <pt x="520" y="698" on="0"/>
        <pt x="541" y="690" on="1"/>
        <pt x="533" y="645" on="1"/>
        <pt x="403" y="645" on="1"/>
        <pt x="369" y="645" on="0"/>
        <pt x="309" y="619" on="0"/>
        <pt x="258" y="552" on="0"/>
        <pt x="217" y="438" on="0"/>
        <pt x="201" y="350" on="1"/>
        <pt x="186" y="262" on="0"/>
        <pt x="188" y="148" on="0"/>
        <pt x="219" y="81" on="0"/>
        <pt x="278" y="55" on="0"/>
        <pt x="319" y="55" on="1"/>
        <pt x="359" y="55" on="1"/>
        <pt x="417" y="380" on="1"/>
        <pt x="507" y="380" on="1"/>
      </contour>
    </TTGlyph>
    <TTGlyph name="H" xMin="70" yMin="0" xMax="583" yMax="700">
      <contour>
        <pt x="583" y="700" on="1"/>
        <pt x="460" y="0" on="1"/>
        <pt x="370" y="0" on="1"/>
        <pt x="426" y="320" on="1"/>
        <pt x="216" y="320" on="1"/>
        <pt x="160" y="0" on="1"/>
        <pt x="70" y="0" on="1"/>
        <pt x="193" y="700" on="1"/>
        <pt x="283" y="700" on="1"/>
        <pt x="228" y="390" on="1"/>
        <pt x="438" y="390" on="1"/>
        <pt x="493" y="700" on="1"/>
      </contour>
    </TTGlyph>
    <TTGlyph name="I" xMin="70" yMin="0" xMax="283" yMax="700">
      <contour>
        <pt x="283" y="700" on="1"/>
        <pt x="160" y="0" on="1"/>
        <pt x="70" y="0" on="1"/>
        <pt x="193" y="700" on="1"/>
      </contour>
    </TTGlyph>
    <TTGlyph name="Iacute" xMin="70" yMin="0" xMax="370" yMax="880">
      <contour>
        <pt x="283" y="700" on="1"/>
        <pt x="160" y="0" on="1"/>
        <pt x="70" y="0" on="1"/>
        <pt x="193" y="700" on="1"/>
      </contour>
      <contour>
        <pt x="217" y="750" on="1"/>
        <pt x="275" y="880" on="1"/>
        <pt x="370" y="880" on="1"/>
        <pt x="277" y="750" on="1"/>
      </contour>
    </TTGlyph>
    <TTGlyph name="Icircumflex" xMin="60" yMin="0" xMax="362" yMax="880">
      <contour>
        <pt x="273" y="700" on="1"/>
        <pt x="150" y="0" on="1"/>
        <pt x="60" y="0" on="1"/>
        <pt x="183" y="700" on="1"/>
      </contour>
      <contour>
        <pt x="117" y="750" on="1"/>
        <pt x="215" y="880" on="1"/>
        <pt x="310" y="880" on="1"/>
        <pt x="362" y="750" on="1"/>
        <pt x="302" y="750" on="1"/>
        <pt x="252" y="824" on="1"/>
        <pt x="177" y="750" on="1"/>
      </contour>
    </TTGlyph>
    <TTGlyph name="Idieresis" xMin="70" yMin="0" xMax="395" yMax="880">
      <contour>
        <pt x="283" y="700" on="1"/>
        <pt x="160" y="0" on="1"/>
        <pt x="70" y="0" on="1"/>
        <pt x="193" y="700" on="1"/>
      </contour>
      <contour>
        <pt x="235" y="880" on="1"/>
        <pt x="215" y="770" on="1"/>
        <pt x="125" y="770" on="1"/>
        <pt x="145" y="880" on="1"/>
      </contour>
      <contour>
        <pt x="395" y="880" on="1"/>
        <pt x="375" y="770" on="1"/>
        <pt x="285" y="770" on="1"/>
        <pt x="305" y="880" on="1"/>
      </contour>
    </TTGlyph>
    <TTGlyph name="Idotaccent" xMin="70" yMin="0" xMax="315" yMax="880">
      <contour>
        <pt x="283" y="700" on="1"/>
        <pt x="160" y="0" on="1"/>
        <pt x="70" y="0" on="1"/>
        <pt x="193" y="700" on="1"/>
      </contour>
      <contour>
        <pt x="315" y="880" on="1"/>
        <pt x="295" y="770" on="1"/>
        <pt x="205" y="770" on="1"/>
        <pt x="225" y="880" on="1"/>
      </contour>
    </TTGlyph>
    <TTGlyph name="Igrave" xMin="65" yMin="0" xMax="278" yMax="880">
      <contour>
        <pt x="278" y="700" on="1"/>
        <pt x="155" y="0" on="1"/>
        <pt x="65" y="0" on="1"/>
        <pt x="188" y="700" on="1"/>
      </contour>
      <contour>
        <pt x="217" y="750" on="1"/>
        <pt x="170" y="880" on="1"/>
        <pt x="265" y="880" on="1"/>
        <pt x="277" y="750" on="1"/>
      </contour>
    </TTGlyph>
    <TTGlyph name="Imacron" xMin="65" yMin="0" xMax="369" yMax="820">
      <contour>
        <pt x="278" y="700" on="1"/>
        <pt x="155" y="0" on="1"/>
        <pt x="65" y="0" on="1"/>
        <pt x="188" y="700" on="1"/>
      </contour>
      <contour>
        <pt x="139" y="820" on="1"/>
        <pt x="369" y="820" on="1"/>
        <pt x="359" y="760" on="1"/>
        <pt x="129" y="760" on="1"/>
      </contour>
    </TTGlyph>
    <TTGlyph name="Iogonek" xMin="29" yMin="-160" xMax="278" yMax="700">
      <contour>
        <pt x="188" y="700" on="1"/>
        <pt x="278" y="700" on="1"/>
        <pt x="155" y="0" on="1"/>
        <pt x="115" y="0" on="1"/>
        <pt x="107" y="-45" on="1"/>
        <pt x="101" y="-79" on="0"/>
        <pt x="122" y="-104" on="0"/>
        <pt x="156" y="-104" on="1"/>
        <pt x="191" y="-104" on="1"/>
        <pt x="184" y="-145" on="1"/>
        <pt x="174" y="-149" on="0"/>
        <pt x="162" y="-153" on="1"/>
        <pt x="151" y="-156" on="0"/>
        <pt x="123" y="-160" on="0"/>
        <pt x="106" y="-160" on="1"/>
        <pt x="64" y="-160" on="0"/>
        <pt x="29" y="-118" on="0"/>
        <pt x="35" y="-80" on="1"/>
        <pt x="38" y="-63" on="0"/>
        <pt x="51" y="-34" on="0"/>
        <pt x="58" y="-23" on="1"/>
        <pt x="66" y="-11" on="0"/>
        <pt x="75" y="0" on="1"/>
        <pt x="65" y="0" on="1"/>
      </contour>
    </TTGlyph>
    <TTGlyph name="Itilde" xMin="70" yMin="0" xMax="380" yMax="870">
      <contour>
        <pt x="283" y="700" on="1"/>
        <pt x="160" y="0" on="1"/>
        <pt x="70" y="0" on="1"/>
        <pt x="193" y="700" on="1"/>
      </contour>
      <contour>
        <pt x="319" y="765" on="1"/>
        <pt x="324" y="788" on="0"/>
        <pt x="313" y="810" on="0"/>
        <pt x="302" y="810" on="1"/>
        <pt x="293" y="810" on="0"/>
        <pt x="273" y="791" on="0"/>
        <pt x="250" y="769" on="0"/>
        <pt x="221" y="750" on="0"/>
        <pt x="202" y="750" on="1"/>
        <pt x="164" y="750" on="0"/>
        <pt x="135" y="798" on="0"/>
        <pt x="145" y="855" on="1"/>
        <pt x="195" y="855" on="1"/>
        <pt x="187" y="810" on="0"/>
        <pt x="212" y="810" on="1"/>
        <pt x="221" y="810" on="0"/>
        <pt x="241" y="829" on="0"/>
        <pt x="265" y="851" on="0"/>
        <pt x="294" y="870" on="0"/>
        <pt x="313" y="870" on="1"/>
        <pt x="351" y="870" on="0"/>
        <pt x="380" y="822" on="0"/>
        <pt x="369" y="765" on="1"/>
      </contour>
    </TTGlyph>
    <TTGlyph name="J" xMin="1" yMin="-10" xMax="413" yMax="700">
      <contour>
        <pt x="99" y="55" on="1"/>
        <pt x="125" y="55" on="0"/>
        <pt x="169" y="72" on="0"/>
        <pt x="205" y="114" on="0"/>
        <pt x="232" y="186" on="0"/>
        <pt x="242" y="240" on="1"/>
        <pt x="323" y="700" on="1"/>
        <pt x="413" y="700" on="1"/>
        <pt x="332" y="240" on="1"/>
        <pt x="319" y="169" on="0"/>
        <pt x="279" y="73" on="0"/>
        <pt x="220" y="15" on="0"/>
        <pt x="140" y="-10" on="0"/>
        <pt x="88" y="-10" on="1"/>
        <pt x="65" y="-10" on="0"/>
        <pt x="19" y="2" on="0"/>
        <pt x="1" y="10" on="1"/>
        <pt x="9" y="55" on="1"/>
      </contour>
    </TTGlyph>
    <TTGlyph name="Jcircumflex" xMin="1" yMin="-10" xMax="498" yMax="870">
      <contour>
        <pt x="99" y="55" on="1"/>
        <pt x="125" y="55" on="0"/>
        <pt x="169" y="72" on="0"/>
        <pt x="205" y="114" on="0"/>
        <pt x="232" y="186" on="0"/>
        <pt x="242" y="240" on="1"/>
        <pt x="323" y="700" on="1"/>
        <pt x="413" y="700" on="1"/>
        <pt x="332" y="240" on="1"/>
        <pt x="319" y="169" on="0"/>
        <pt x="279" y="73" on="0"/>
        <pt x="220" y="15" on="0"/>
        <pt x="140" y="-10" on="0"/>
        <pt x="88" y="-10" on="1"/>
        <pt x="65" y="-10" on="0"/>
        <pt x="19" y="2" on="0"/>
        <pt x="1" y="10" on="1"/>
        <pt x="9" y="55" on="1"/>
      </contour>
      <contour>
        <pt x="253" y="740" on="1"/>
        <pt x="351" y="870" on="1"/>
        <pt x="446" y="870" on="1"/>
        <pt x="498" y="740" on="1"/>
        <pt x="438" y="740" on="1"/>
        <pt x="388" y="814" on="1"/>
        <pt x="313" y="740" on="1"/>
      </contour>
    </TTGlyph>
    <TTGlyph name="K" xMin="70" yMin="0" xMax="583" yMax="700">
      <contour>
        <pt x="480" y="0" on="1"/>
        <pt x="375" y="0" on="1"/>
        <pt x="221" y="350" on="1"/>
        <pt x="160" y="0" on="1"/>
        <pt x="70" y="0" on="1"/>
        <pt x="193" y="700" on="1"/>
        <pt x="283" y="700" on="1"/>
        <pt x="223" y="360" on="1"/>
        <pt x="478" y="700" on="1"/>
        <pt x="583" y="700" on="1"/>
        <pt x="317" y="355" on="1"/>
      </contour>
    </TTGlyph>
    <TTGlyph name="Kcommaaccent" xMin="70" yMin="-200" xMax="583" yMax="700">
      <contour>
        <pt x="201" y="-50" on="1"/>
        <pt x="291" y="-50" on="1"/>
        <pt x="234" y="-200" on="1"/>
        <pt x="174" y="-200" on="1"/>
      </contour>
      <contour>
        <pt x="480" y="0" on="1"/>
        <pt x="375" y="0" on="1"/>
        <pt x="221" y="350" on="1"/>
        <pt x="160" y="0" on="1"/>
        <pt x="70" y="0" on="1"/>
        <pt x="193" y="700" on="1"/>
        <pt x="283" y="700" on="1"/>
        <pt x="223" y="360" on="1"/>
        <pt x="478" y="700" on="1"/>
        <pt x="583" y="700" on="1"/>
        <pt x="317" y="355" on="1"/>
      </contour>
    </TTGlyph>
    <TTGlyph name="L" xMin="70" yMin="0" xMax="422" yMax="700">
      <contour>
        <pt x="172" y="70" on="1"/>
        <pt x="422" y="70" on="1"/>
        <pt x="410" y="0" on="1"/>
        <pt x="70" y="0" on="1"/>
        <pt x="193" y="700" on="1"/>
        <pt x="283" y="700" on="1"/>
      </contour>
    </TTGlyph>
    <TTGlyph name="Lcommaaccent" xMin="70" yMin="-210" xMax="422" yMax="700">
      <contour>
        <pt x="189" y="-60" on="1"/>
        <pt x="279" y="-60" on="1"/>
        <pt x="222" y="-210" on="1"/>
        <pt x="162" y="-210" on="1"/>
      </contour>
      <contour>
        <pt x="172" y="70" on="1"/>
        <pt x="422" y="70" on="1"/>
        <pt x="410" y="0" on="1"/>
        <pt x="70" y="0" on="1"/>
        <pt x="193" y="700" on="1"/>
        <pt x="283" y="700" on="1"/>
      </contour>
    </TTGlyph>
    <TTGlyph name="Lslash" xMin="43" yMin="0" xMax="427" yMax="700">
      <contour>
        <pt x="240" y="430" on="1"/>
        <pt x="307" y="470" on="1"/>
        <pt x="334" y="420" on="1"/>
        <pt x="227" y="355" on="1"/>
        <pt x="177" y="70" on="1"/>
        <pt x="427" y="70" on="1"/>
        <pt x="415" y="0" on="1"/>
        <pt x="75" y="0" on="1"/>
        <pt x="126" y="290" on="1"/>
        <pt x="69" y="255" on="1"/>
        <pt x="43" y="305" on="1"/>
        <pt x="139" y="365" on="1"/>
        <pt x="198" y="700" on="1"/>
        <pt x="288" y="700" on="1"/>
      </contour>
    </TTGlyph>
    <TTGlyph name="M" xMin="55" yMin="0" xMax="768" yMax="700">
      <contour>
        <pt x="340" y="90" on="1"/>
        <pt x="271" y="520" on="1"/>
        <pt x="266" y="520" on="1"/>
        <pt x="145" y="0" on="1"/>
        <pt x="55" y="0" on="1"/>
        <pt x="218" y="700" on="1"/>
        <pt x="328" y="700" on="1"/>
        <pt x="406" y="220" on="1"/>
        <pt x="410" y="220" on="1"/>
        <pt x="658" y="700" on="1"/>
        <pt x="768" y="700" on="1"/>
        <pt x="685" y="0" on="1"/>
        <pt x="595" y="0" on="1"/>
        <pt x="656" y="520" on="1"/>
        <pt x="651" y="520" on="1"/>
        <pt x="430" y="90" on="1"/>
      </contour>
    </TTGlyph>
    <TTGlyph name="N" xMin="70" yMin="0" xMax="593" yMax="700">
      <contour>
        <pt x="160" y="0" on="1"/>
        <pt x="70" y="0" on="1"/>
        <pt x="193" y="700" on="1"/>
        <pt x="293" y="700" on="1"/>
        <pt x="411" y="205" on="1"/>
        <pt x="416" y="205" on="1"/>
        <pt x="503" y="700" on="1"/>
        <pt x="593" y="700" on="1"/>
        <pt x="470" y="0" on="1"/>
        <pt x="370" y="0" on="1"/>
        <pt x="252" y="495" on="1"/>
        <pt x="247" y="495" on="1"/>
      </contour>
    </TTGlyph>
    <TTGlyph name="Nacute" xMin="70" yMin="0" xMax="593" yMax="880">
      <contour>
        <pt x="372" y="750" on="1"/>
        <pt x="430" y="880" on="1"/>
        <pt x="525" y="880" on="1"/>
        <pt x="432" y="750" on="1"/>
      </contour>
      <contour>
        <pt x="160" y="0" on="1"/>
        <pt x="70" y="0" on="1"/>
        <pt x="193" y="700" on="1"/>
        <pt x="293" y="700" on="1"/>
        <pt x="411" y="205" on="1"/>
        <pt x="416" y="205" on="1"/>
        <pt x="503" y="700" on="1"/>
        <pt x="593" y="700" on="1"/>
        <pt x="470" y="0" on="1"/>
        <pt x="370" y="0" on="1"/>
        <pt x="252" y="495" on="1"/>
        <pt x="247" y="495" on="1"/>
      </contour>
    </TTGlyph>
    <TTGlyph name="Ncommaaccent" xMin="70" yMin="-200" xMax="593" yMax="700">
      <contour>
        <pt x="211" y="-50" on="1"/>
        <pt x="301" y="-50" on="1"/>
        <pt x="244" y="-200" on="1"/>
        <pt x="184" y="-200" on="1"/>
      </contour>
      <contour>
        <pt x="160" y="0" on="1"/>
        <pt x="70" y="0" on="1"/>
        <pt x="193" y="700" on="1"/>
        <pt x="293" y="700" on="1"/>
        <pt x="411" y="205" on="1"/>
        <pt x="416" y="205" on="1"/>
        <pt x="503" y="700" on="1"/>
        <pt x="593" y="700" on="1"/>
        <pt x="470" y="0" on="1"/>
        <pt x="370" y="0" on="1"/>
        <pt x="252" y="495" on="1"/>
        <pt x="247" y="495" on="1"/>
      </contour>
    </TTGlyph>
    <TTGlyph name="Ntilde" xMin="70" yMin="0" xMax="593" yMax="870">
      <contour>
        <pt x="464" y="765" on="1"/>
        <pt x="469" y="788" on="0"/>
        <pt x="458" y="810" on="0"/>
        <pt x="447" y="810" on="1"/>
        <pt x="438" y="810" on="0"/>
        <pt x="418" y="791" on="0"/>
        <pt x="395" y="769" on="0"/>
        <pt x="366" y="750" on="0"/>
        <pt x="347" y="750" on="1"/>
        <pt x="309" y="750" on="0"/>
        <pt x="280" y="798" on="0"/>
        <pt x="290" y="855" on="1"/>
        <pt x="340" y="855" on="1"/>
        <pt x="332" y="810" on="0"/>
        <pt x="357" y="810" on="1"/>
        <pt x="366" y="810" on="0"/>
        <pt x="386" y="829" on="0"/>
        <pt x="410" y="851" on="0"/>
        <pt x="439" y="870" on="0"/>
        <pt x="458" y="870" on="1"/>
        <pt x="496" y="870" on="0"/>
        <pt x="525" y="822" on="0"/>
        <pt x="514" y="765" on="1"/>
      </contour>
      <contour>
        <pt x="160" y="0" on="1"/>
        <pt x="70" y="0" on="1"/>
        <pt x="193" y="700" on="1"/>
        <pt x="293" y="700" on="1"/>
        <pt x="411" y="205" on="1"/>
        <pt x="416" y="205" on="1"/>
        <pt x="503" y="700" on="1"/>
        <pt x="593" y="700" on="1"/>
        <pt x="470" y="0" on="1"/>
        <pt x="370" y="0" on="1"/>
        <pt x="252" y="495" on="1"/>
        <pt x="247" y="495" on="1"/>
      </contour>
    </TTGlyph>
    <TTGlyph name="O" xMin="93" yMin="-10" xMax="560" yMax="710">
      <contour>
        <pt x="390" y="710" on="1"/>
        <pt x="441" y="710" on="0"/>
        <pt x="515" y="676" on="0"/>
        <pt x="555" y="594" on="0"/>
        <pt x="560" y="455" on="0"/>
        <pt x="541" y="350" on="1"/>
        <pt x="523" y="245" on="0"/>
        <pt x="469" y="106" on="0"/>
        <pt x="399" y="24" on="0"/>
        <pt x="314" y="-10" on="0"/>
        <pt x="263" y="-10" on="1"/>
        <pt x="212" y="-10" on="0"/>
        <pt x="138" y="24" on="0"/>
        <pt x="98" y="106" on="0"/>
        <pt x="93" y="245" on="0"/>
        <pt x="111" y="350" on="1"/>
        <pt x="130" y="455" on="0"/>
        <pt x="184" y="594" on="0"/>
        <pt x="254" y="676" on="0"/>
        <pt x="339" y="710" on="0"/>
      </contour>
      <contour>
        <pt x="273" y="50" on="1"/>
        <pt x="297" y="50" on="0"/>
        <pt x="347" y="76" on="0"/>
        <pt x="394" y="144" on="0"/>
        <pt x="435" y="260" on="0"/>
        <pt x="451" y="350" on="1"/>
        <pt x="467" y="440" on="0"/>
        <pt x="467" y="556" on="0"/>
        <pt x="444" y="624" on="0"/>
        <pt x="403" y="650" on="0"/>
        <pt x="379" y="650" on="1"/>
        <pt x="355" y="650" on="0"/>
        <pt x="305" y="624" on="0"/>
        <pt x="258" y="556" on="0"/>
        <pt x="217" y="440" on="0"/>
        <pt x="201" y="350" on="1"/>
        <pt x="185" y="260" on="0"/>
        <pt x="186" y="144" on="0"/>
        <pt x="208" y="76" on="0"/>
        <pt x="249" y="50" on="0"/>
      </contour>
    </TTGlyph>
    <TTGlyph name="OE" xMin="84" yMin="0" xMax="823" yMax="700">
      <contour>
        <pt x="823" y="700" on="1"/>
        <pt x="811" y="630" on="1"/>
        <pt x="561" y="630" on="1"/>
        <pt x="520" y="400" on="1"/>
        <pt x="740" y="400" on="1"/>
        <pt x="728" y="330" on="1"/>
        <pt x="508" y="330" on="1"/>
        <pt x="462" y="70" on="1"/>
        <pt x="712" y="70" on="1"/>
        <pt x="700" y="0" on="1"/>
        <pt x="330" y="0" on="1"/>
        <pt x="259" y="0" on="0"/>
        <pt x="157" y="39" on="0"/>
        <pt x="98" y="123" on="0"/>
        <pt x="84" y="256" on="0"/>
        <pt x="101" y="350" on="1"/>
        <pt x="117" y="444" on="0"/>
        <pt x="178" y="577" on="0"/>
        <pt x="266" y="661" on="0"/>
        <pt x="382" y="700" on="0"/>
        <pt x="453" y="700" on="1"/>
      </contour>
      <contour>
        <pt x="471" y="630" on="1"/>
        <pt x="441" y="630" on="1"/>
        <pt x="392" y="630" on="0"/>
        <pt x="312" y="602" on="0"/>
        <pt x="250" y="536" on="0"/>
        <pt x="205" y="429" on="0"/>
        <pt x="191" y="350" on="1"/>
        <pt x="177" y="271" on="0"/>
        <pt x="184" y="164" on="0"/>
        <pt x="223" y="98" on="0"/>
        <pt x="293" y="70" on="0"/>
        <pt x="342" y="70" on="1"/>
        <pt x="372" y="70" on="1"/>
      </contour>
    </TTGlyph>
    <TTGlyph name="Oacute" xMin="93" yMin="-10" xMax="560" yMax="890">
      <contour>
        <pt x="390" y="710" on="1"/>
        <pt x="441" y="710" on="0"/>
        <pt x="515" y="676" on="0"/>
        <pt x="555" y="594" on="0"/>
        <pt x="560" y="455" on="0"/>
        <pt x="541" y="350" on="1"/>
        <pt x="523" y="245" on="0"/>
        <pt x="469" y="106" on="0"/>
        <pt x="399" y="24" on="0"/>
        <pt x="314" y="-10" on="0"/>
        <pt x="263" y="-10" on="1"/>
        <pt x="212" y="-10" on="0"/>
        <pt x="138" y="24" on="0"/>
        <pt x="98" y="106" on="0"/>
        <pt x="93" y="245" on="0"/>
        <pt x="111" y="350" on="1"/>
        <pt x="130" y="455" on="0"/>
        <pt x="184" y="594" on="0"/>
        <pt x="254" y="676" on="0"/>
        <pt x="339" y="710" on="0"/>
      </contour>
      <contour>
        <pt x="273" y="50" on="1"/>
        <pt x="297" y="50" on="0"/>
        <pt x="347" y="76" on="0"/>
        <pt x="394" y="144" on="0"/>
        <pt x="435" y="260" on="0"/>
        <pt x="451" y="350" on="1"/>
        <pt x="467" y="440" on="0"/>
        <pt x="467" y="556" on="0"/>
        <pt x="444" y="624" on="0"/>
        <pt x="403" y="650" on="0"/>
        <pt x="379" y="650" on="1"/>
        <pt x="355" y="650" on="0"/>
        <pt x="305" y="624" on="0"/>
        <pt x="258" y="556" on="0"/>
        <pt x="217" y="440" on="0"/>
        <pt x="201" y="350" on="1"/>
        <pt x="185" y="260" on="0"/>
        <pt x="186" y="144" on="0"/>
        <pt x="208" y="76" on="0"/>
        <pt x="249" y="50" on="0"/>
      </contour>
      <contour>
        <pt x="364" y="760" on="1"/>
        <pt x="421" y="890" on="1"/>
        <pt x="516" y="890" on="1"/>
        <pt x="424" y="760" on="1"/>
      </contour>
    </TTGlyph>
    <TTGlyph name="Ocircumflex" xMin="93" yMin="-10" xMax="560" yMax="890">
      <contour>
        <pt x="390" y="710" on="1"/>
        <pt x="441" y="710" on="0"/>
        <pt x="515" y="676" on="0"/>
        <pt x="555" y="594" on="0"/>
        <pt x="560" y="455" on="0"/>
        <pt x="541" y="350" on="1"/>
        <pt x="523" y="245" on="0"/>
        <pt x="469" y="106" on="0"/>
        <pt x="399" y="24" on="0"/>
        <pt x="314" y="-10" on="0"/>
        <pt x="263" y="-10" on="1"/>
        <pt x="212" y="-10" on="0"/>
        <pt x="138" y="24" on="0"/>
        <pt x="98" y="106" on="0"/>
        <pt x="93" y="245" on="0"/>
        <pt x="111" y="350" on="1"/>
        <pt x="130" y="455" on="0"/>
        <pt x="184" y="594" on="0"/>
        <pt x="254" y="676" on="0"/>
        <pt x="339" y="710" on="0"/>
      </contour>
      <contour>
        <pt x="273" y="50" on="1"/>
        <pt x="297" y="50" on="0"/>
        <pt x="347" y="76" on="0"/>
        <pt x="394" y="144" on="0"/>
        <pt x="435" y="260" on="0"/>
        <pt x="451" y="350" on="1"/>
        <pt x="467" y="440" on="0"/>
        <pt x="467" y="556" on="0"/>
        <pt x="444" y="624" on="0"/>
        <pt x="403" y="650" on="0"/>
        <pt x="379" y="650" on="1"/>
        <pt x="355" y="650" on="0"/>
        <pt x="305" y="624" on="0"/>
        <pt x="258" y="556" on="0"/>
        <pt x="217" y="440" on="0"/>
        <pt x="201" y="350" on="1"/>
        <pt x="185" y="260" on="0"/>
        <pt x="186" y="144" on="0"/>
        <pt x="208" y="76" on="0"/>
        <pt x="249" y="50" on="0"/>
      </contour>
      <contour>
        <pt x="279" y="760" on="1"/>
        <pt x="376" y="890" on="1"/>
        <pt x="471" y="890" on="1"/>
        <pt x="524" y="760" on="1"/>
        <pt x="464" y="760" on="1"/>
        <pt x="414" y="834" on="1"/>
        <pt x="339" y="760" on="1"/>
      </contour>
    </TTGlyph>
    <TTGlyph name="Odieresis" xMin="93" yMin="-10" xMax="560" yMax="880">
      <contour>
        <pt x="390" y="710" on="1"/>
        <pt x="441" y="710" on="0"/>
        <pt x="515" y="676" on="0"/>
        <pt x="555" y="594" on="0"/>
        <pt x="560" y="455" on="0"/>
        <pt x="541" y="350" on="1"/>
        <pt x="523" y="245" on="0"/>
        <pt x="469" y="106" on="0"/>
        <pt x="399" y="24" on="0"/>
        <pt x="314" y="-10" on="0"/>
        <pt x="263" y="-10" on="1"/>
        <pt x="212" y="-10" on="0"/>
        <pt x="138" y="24" on="0"/>
        <pt x="98" y="106" on="0"/>
        <pt x="93" y="245" on="0"/>
        <pt x="111" y="350" on="1"/>
        <pt x="130" y="455" on="0"/>
        <pt x="184" y="594" on="0"/>
        <pt x="254" y="676" on="0"/>
        <pt x="339" y="710" on="0"/>
      </contour>
      <contour>
        <pt x="273" y="50" on="1"/>
        <pt x="297" y="50" on="0"/>
        <pt x="347" y="76" on="0"/>
        <pt x="394" y="144" on="0"/>
        <pt x="435" y="260" on="0"/>
        <pt x="451" y="350" on="1"/>
        <pt x="467" y="440" on="0"/>
        <pt x="467" y="556" on="0"/>
        <pt x="444" y="624" on="0"/>
        <pt x="403" y="650" on="0"/>
        <pt x="379" y="650" on="1"/>
        <pt x="355" y="650" on="0"/>
        <pt x="305" y="624" on="0"/>
        <pt x="258" y="556" on="0"/>
        <pt x="217" y="440" on="0"/>
        <pt x="201" y="350" on="1"/>
        <pt x="185" y="260" on="0"/>
        <pt x="186" y="144" on="0"/>
        <pt x="208" y="76" on="0"/>
        <pt x="249" y="50" on="0"/>
      </contour>
      <contour>
        <pt x="385" y="880" on="1"/>
        <pt x="365" y="770" on="1"/>
        <pt x="275" y="770" on="1"/>
        <pt x="295" y="880" on="1"/>
      </contour>
      <contour>
        <pt x="545" y="880" on="1"/>
        <pt x="525" y="770" on="1"/>
        <pt x="435" y="770" on="1"/>
        <pt x="455" y="880" on="1"/>
      </contour>
    </TTGlyph>
    <TTGlyph name="Ograve" xMin="93" yMin="-10" xMax="560" yMax="890">
      <contour>
        <pt x="390" y="710" on="1"/>
        <pt x="441" y="710" on="0"/>
        <pt x="515" y="676" on="0"/>
        <pt x="555" y="594" on="0"/>
        <pt x="560" y="455" on="0"/>
        <pt x="541" y="350" on="1"/>
        <pt x="523" y="245" on="0"/>
        <pt x="469" y="106" on="0"/>
        <pt x="399" y="24" on="0"/>
        <pt x="314" y="-10" on="0"/>
        <pt x="263" y="-10" on="1"/>
        <pt x="212" y="-10" on="0"/>
        <pt x="138" y="24" on="0"/>
        <pt x="98" y="106" on="0"/>
        <pt x="93" y="245" on="0"/>
        <pt x="111" y="350" on="1"/>
        <pt x="130" y="455" on="0"/>
        <pt x="184" y="594" on="0"/>
        <pt x="254" y="676" on="0"/>
        <pt x="339" y="710" on="0"/>
      </contour>
      <contour>
        <pt x="273" y="50" on="1"/>
        <pt x="297" y="50" on="0"/>
        <pt x="347" y="76" on="0"/>
        <pt x="394" y="144" on="0"/>
        <pt x="435" y="260" on="0"/>
        <pt x="451" y="350" on="1"/>
        <pt x="467" y="440" on="0"/>
        <pt x="467" y="556" on="0"/>
        <pt x="444" y="624" on="0"/>
        <pt x="403" y="650" on="0"/>
        <pt x="379" y="650" on="1"/>
        <pt x="355" y="650" on="0"/>
        <pt x="305" y="624" on="0"/>
        <pt x="258" y="556" on="0"/>
        <pt x="217" y="440" on="0"/>
        <pt x="201" y="350" on="1"/>
        <pt x="185" y="260" on="0"/>
        <pt x="186" y="144" on="0"/>
        <pt x="208" y="76" on="0"/>
        <pt x="249" y="50" on="0"/>
      </contour>
      <contour>
        <pt x="374" y="760" on="1"/>
        <pt x="326" y="890" on="1"/>
        <pt x="421" y="890" on="1"/>
        <pt x="434" y="760" on="1"/>
      </contour>
    </TTGlyph>
    <TTGlyph name="Omacron" xMin="93" yMin="-10" xMax="560" yMax="830">
      <contour>
        <pt x="390" y="710" on="1"/>
        <pt x="441" y="710" on="0"/>
        <pt x="515" y="676" on="0"/>
        <pt x="555" y="594" on="0"/>
        <pt x="560" y="455" on="0"/>
        <pt x="541" y="350" on="1"/>
        <pt x="523" y="245" on="0"/>
        <pt x="469" y="106" on="0"/>
        <pt x="399" y="24" on="0"/>
        <pt x="314" y="-10" on="0"/>
        <pt x="263" y="-10" on="1"/>
        <pt x="212" y="-10" on="0"/>
        <pt x="138" y="24" on="0"/>
        <pt x="98" y="106" on="0"/>
        <pt x="93" y="245" on="0"/>
        <pt x="111" y="350" on="1"/>
        <pt x="130" y="455" on="0"/>
        <pt x="184" y="594" on="0"/>
        <pt x="254" y="676" on="0"/>
        <pt x="339" y="710" on="0"/>
      </contour>
      <contour>
        <pt x="273" y="50" on="1"/>
        <pt x="297" y="50" on="0"/>
        <pt x="347" y="76" on="0"/>
        <pt x="394" y="144" on="0"/>
        <pt x="435" y="260" on="0"/>
        <pt x="451" y="350" on="1"/>
        <pt x="467" y="440" on="0"/>
        <pt x="467" y="556" on="0"/>
        <pt x="444" y="624" on="0"/>
        <pt x="403" y="650" on="0"/>
        <pt x="379" y="650" on="1"/>
        <pt x="355" y="650" on="0"/>
        <pt x="305" y="624" on="0"/>
        <pt x="258" y="556" on="0"/>
        <pt x="217" y="440" on="0"/>
        <pt x="201" y="350" on="1"/>
        <pt x="185" y="260" on="0"/>
        <pt x="186" y="144" on="0"/>
        <pt x="208" y="76" on="0"/>
        <pt x="249" y="50" on="0"/>
      </contour>
      <contour>
        <pt x="296" y="830" on="1"/>
        <pt x="526" y="830" on="1"/>
        <pt x="515" y="770" on="1"/>
        <pt x="285" y="770" on="1"/>
      </contour>
    </TTGlyph>
    <TTGlyph name="Oslash" xMin="38" yMin="-10" xMax="624" yMax="710">
      <contour>
        <pt x="395" y="710" on="1"/>
        <pt x="448" y="710" on="0"/>
        <pt x="523" y="673" on="0"/>
        <pt x="543" y="627" on="1"/>
        <pt x="589" y="680" on="1"/>
        <pt x="624" y="650" on="1"/>
        <pt x="558" y="574" on="1"/>
        <pt x="564" y="533" on="0"/>
        <pt x="559" y="423" on="0"/>
        <pt x="546" y="350" on="1"/>
        <pt x="528" y="245" on="0"/>
        <pt x="474" y="106" on="0"/>
        <pt x="404" y="24" on="0"/>
        <pt x="319" y="-10" on="0"/>
        <pt x="268" y="-10" on="1"/>
        <pt x="214" y="-10" on="0"/>
        <pt x="139" y="27" on="0"/>
        <pt x="119" y="73" on="1"/>
        <pt x="73" y="20" on="1"/>
        <pt x="38" y="50" on="1"/>
        <pt x="105" y="126" on="1"/>
        <pt x="98" y="167" on="0"/>
        <pt x="103" y="277" on="0"/>
        <pt x="116" y="350" on="1"/>
        <pt x="135" y="455" on="0"/>
        <pt x="189" y="594" on="0"/>
        <pt x="259" y="676" on="0"/>
        <pt x="344" y="710" on="0"/>
      </contour>
      <contour>
        <pt x="206" y="350" on="1"/>
        <pt x="200" y="313" on="0"/>
        <pt x="192" y="251" on="0"/>
        <pt x="191" y="225" on="1"/>
        <pt x="469" y="543" on="1"/>
        <pt x="466" y="574" on="0"/>
        <pt x="450" y="615" on="0"/>
        <pt x="428" y="640" on="0"/>
        <pt x="400" y="650" on="0"/>
        <pt x="384" y="650" on="1"/>
        <pt x="360" y="650" on="0"/>
        <pt x="310" y="624" on="0"/>
        <pt x="263" y="556" on="0"/>
        <pt x="222" y="440" on="0"/>
      </contour>
      <contour>
        <pt x="278" y="50" on="1"/>
        <pt x="302" y="50" on="0"/>
        <pt x="352" y="76" on="0"/>
        <pt x="399" y="144" on="0"/>
        <pt x="440" y="260" on="0"/>
        <pt x="456" y="350" on="1"/>
        <pt x="463" y="387" on="0"/>
        <pt x="469" y="449" on="0"/>
        <pt x="471" y="475" on="1"/>
        <pt x="192" y="156" on="1"/>
        <pt x="199" y="95" on="0"/>
        <pt x="246" y="50" on="0"/>
      </contour>
    </TTGlyph>
    <TTGlyph name="Otilde" xMin="93" yMin="-10" xMax="560" yMax="880">
      <contour>
        <pt x="390" y="710" on="1"/>
        <pt x="441" y="710" on="0"/>
        <pt x="515" y="676" on="0"/>
        <pt x="555" y="594" on="0"/>
        <pt x="560" y="455" on="0"/>
        <pt x="541" y="350" on="1"/>
        <pt x="523" y="245" on="0"/>
        <pt x="469" y="106" on="0"/>
        <pt x="399" y="24" on="0"/>
        <pt x="314" y="-10" on="0"/>
        <pt x="263" y="-10" on="1"/>
        <pt x="212" y="-10" on="0"/>
        <pt x="138" y="24" on="0"/>
        <pt x="98" y="106" on="0"/>
        <pt x="93" y="245" on="0"/>
        <pt x="111" y="350" on="1"/>
        <pt x="130" y="455" on="0"/>
        <pt x="184" y="594" on="0"/>
        <pt x="254" y="676" on="0"/>
        <pt x="339" y="710" on="0"/>
      </contour>
      <contour>
        <pt x="273" y="50" on="1"/>
        <pt x="297" y="50" on="0"/>
        <pt x="347" y="76" on="0"/>
        <pt x="394" y="144" on="0"/>
        <pt x="435" y="260" on="0"/>
        <pt x="451" y="350" on="1"/>
        <pt x="467" y="440" on="0"/>
        <pt x="467" y="556" on="0"/>
        <pt x="444" y="624" on="0"/>
        <pt x="403" y="650" on="0"/>
        <pt x="379" y="650" on="1"/>
        <pt x="355" y="650" on="0"/>
        <pt x="305" y="624" on="0"/>
        <pt x="258" y="556" on="0"/>
        <pt x="217" y="440" on="0"/>
        <pt x="201" y="350" on="1"/>
        <pt x="185" y="260" on="0"/>
        <pt x="186" y="144" on="0"/>
        <pt x="208" y="76" on="0"/>
        <pt x="249" y="50" on="0"/>
      </contour>
      <contour>
        <pt x="466" y="775" on="1"/>
        <pt x="473" y="820" on="0"/>
        <pt x="449" y="820" on="1"/>
        <pt x="440" y="820" on="0"/>
        <pt x="420" y="801" on="0"/>
        <pt x="397" y="779" on="0"/>
        <pt x="368" y="760" on="0"/>
        <pt x="349" y="760" on="1"/>
        <pt x="311" y="760" on="0"/>
        <pt x="282" y="808" on="0"/>
        <pt x="292" y="865" on="1"/>
        <pt x="342" y="865" on="1"/>
        <pt x="334" y="820" on="0"/>
        <pt x="359" y="820" on="1"/>
        <pt x="368" y="820" on="0"/>
        <pt x="388" y="839" on="0"/>
        <pt x="412" y="861" on="0"/>
        <pt x="441" y="880" on="0"/>
        <pt x="460" y="880" on="1"/>
        <pt x="498" y="880" on="0"/>
        <pt x="526" y="832" on="0"/>
        <pt x="516" y="775" on="1"/>
      </contour>
    </TTGlyph>
    <TTGlyph name="P" xMin="70" yMin="0" xMax="543" yMax="710">
      <contour>
        <pt x="278" y="275" on="1"/>
        <pt x="312" y="275" on="0"/>
        <pt x="364" y="292" on="0"/>
        <pt x="403" y="334" on="0"/>
        <pt x="431" y="406" on="0"/>
        <pt x="441" y="460" on="1"/>
        <pt x="450" y="514" on="0"/>
        <pt x="447" y="586" on="0"/>
        <pt x="423" y="628" on="0"/>
        <pt x="377" y="645" on="0"/>
        <pt x="343" y="645" on="1"/>
        <pt x="273" y="645" on="1"/>
        <pt x="208" y="275" on="1"/>
      </contour>
      <contour>
        <pt x="160" y="0" on="1"/>
        <pt x="70" y="0" on="1"/>
        <pt x="191" y="690" on="1"/>
        <pt x="231" y="701" on="0"/>
        <pt x="310" y="710" on="0"/>
        <pt x="355" y="710" on="1"/>
        <pt x="415" y="710" on="0"/>
        <pt x="494" y="685" on="0"/>
        <pt x="536" y="627" on="0"/>
        <pt x="543" y="531" on="0"/>
        <pt x="531" y="460" on="1"/>
        <pt x="518" y="387" on="0"/>
        <pt x="478" y="289" on="0"/>
        <pt x="421" y="230" on="0"/>
        <pt x="345" y="205" on="0"/>
        <pt x="296" y="205" on="1"/>
        <pt x="273" y="205" on="0"/>
        <pt x="216" y="211" on="0"/>
        <pt x="197" y="215" on="1"/>
      </contour>
    </TTGlyph>
    <TTGlyph name="Q" xMin="93" yMin="-10" xMax="560" yMax="710">
      <contour>
        <pt x="390" y="710" on="1"/>
        <pt x="441" y="710" on="0"/>
        <pt x="515" y="676" on="0"/>
        <pt x="555" y="594" on="0"/>
        <pt x="560" y="455" on="0"/>
        <pt x="541" y="350" on="1"/>
        <pt x="521" y="234" on="0"/>
        <pt x="459" y="91" on="0"/>
        <pt x="418" y="50" on="1"/>
        <pt x="456" y="50" on="0"/>
        <pt x="514" y="38" on="0"/>
        <pt x="535" y="30" on="1"/>
        <pt x="528" y="-10" on="1"/>
        <pt x="263" y="-10" on="1"/>
        <pt x="212" y="-10" on="0"/>
        <pt x="138" y="24" on="0"/>
        <pt x="98" y="106" on="0"/>
        <pt x="93" y="245" on="0"/>
        <pt x="111" y="350" on="1"/>
        <pt x="130" y="455" on="0"/>
        <pt x="184" y="594" on="0"/>
        <pt x="254" y="676" on="0"/>
        <pt x="339" y="710" on="0"/>
      </contour>
      <contour>
        <pt x="273" y="50" on="1"/>
        <pt x="297" y="50" on="0"/>
        <pt x="347" y="76" on="0"/>
        <pt x="394" y="144" on="0"/>
        <pt x="435" y="260" on="0"/>
        <pt x="451" y="350" on="1"/>
        <pt x="467" y="440" on="0"/>
        <pt x="467" y="556" on="0"/>
        <pt x="444" y="624" on="0"/>
        <pt x="403" y="650" on="0"/>
        <pt x="379" y="650" on="1"/>
        <pt x="355" y="650" on="0"/>
        <pt x="305" y="624" on="0"/>
        <pt x="258" y="556" on="0"/>
        <pt x="217" y="440" on="0"/>
        <pt x="201" y="350" on="1"/>
        <pt x="185" y="260" on="0"/>
        <pt x="186" y="144" on="0"/>
        <pt x="208" y="76" on="0"/>
        <pt x="249" y="50" on="0"/>
      </contour>
    </TTGlyph>
    <TTGlyph name="R" xMin="70" yMin="0" xMax="544" yMax="710">
      <contour>
        <pt x="532" y="470" on="1"/>
        <pt x="523" y="419" on="0"/>
        <pt x="497" y="345" on="0"/>
        <pt x="463" y="292" on="0"/>
        <pt x="420" y="259" on="0"/>
        <pt x="394" y="250" on="1"/>
        <pt x="470" y="0" on="1"/>
        <pt x="370" y="0" on="1"/>
        <pt x="300" y="230" on="1"/>
        <pt x="200" y="230" on="1"/>
        <pt x="160" y="0" on="1"/>
        <pt x="70" y="0" on="1"/>
        <pt x="191" y="690" on="1"/>
        <pt x="231" y="701" on="0"/>
        <pt x="310" y="710" on="0"/>
        <pt x="355" y="710" on="1"/>
        <pt x="415" y="710" on="0"/>
        <pt x="494" y="686" on="0"/>
        <pt x="537" y="629" on="0"/>
        <pt x="544" y="537" on="0"/>
      </contour>
      <contour>
        <pt x="282" y="300" on="1"/>
        <pt x="316" y="300" on="0"/>
        <pt x="368" y="317" on="0"/>
        <pt x="407" y="356" on="0"/>
        <pt x="433" y="421" on="0"/>
        <pt x="442" y="470" on="1"/>
        <pt x="451" y="521" on="0"/>
        <pt x="448" y="588" on="0"/>
        <pt x="423" y="628" on="0"/>
        <pt x="377" y="645" on="0"/>
        <pt x="343" y="645" on="1"/>
        <pt x="273" y="645" on="1"/>
        <pt x="212" y="300" on="1"/>
      </contour>
    </TTGlyph>
    <TTGlyph name="Racute" xMin="70" yMin="0" xMax="544" yMax="880">
      <contour>
        <pt x="532" y="470" on="1"/>
        <pt x="523" y="419" on="0"/>
        <pt x="497" y="345" on="0"/>
        <pt x="463" y="292" on="0"/>
        <pt x="420" y="259" on="0"/>
        <pt x="394" y="250" on="1"/>
        <pt x="470" y="0" on="1"/>
        <pt x="370" y="0" on="1"/>
        <pt x="300" y="230" on="1"/>
        <pt x="200" y="230" on="1"/>
        <pt x="160" y="0" on="1"/>
        <pt x="70" y="0" on="1"/>
        <pt x="191" y="690" on="1"/>
        <pt x="231" y="701" on="0"/>
        <pt x="310" y="710" on="0"/>
        <pt x="355" y="710" on="1"/>
        <pt x="415" y="710" on="0"/>
        <pt x="494" y="686" on="0"/>
        <pt x="537" y="629" on="0"/>
        <pt x="544" y="537" on="0"/>
      </contour>
      <contour>
        <pt x="282" y="300" on="1"/>
        <pt x="316" y="300" on="0"/>
        <pt x="368" y="317" on="0"/>
        <pt x="407" y="356" on="0"/>
        <pt x="433" y="421" on="0"/>
        <pt x="442" y="470" on="1"/>
        <pt x="451" y="521" on="0"/>
        <pt x="448" y="588" on="0"/>
        <pt x="423" y="628" on="0"/>
        <pt x="377" y="645" on="0"/>
        <pt x="343" y="645" on="1"/>
        <pt x="273" y="645" on="1"/>
        <pt x="212" y="300" on="1"/>
      </contour>
      <contour>
        <pt x="332" y="750" on="1"/>
        <pt x="390" y="880" on="1"/>
        <pt x="485" y="880" on="1"/>
        <pt x="392" y="750" on="1"/>
      </contour>
    </TTGlyph>
    <TTGlyph name="Rcaron" xMin="70" yMin="0" xMax="544" yMax="880">
      <contour>
        <pt x="532" y="470" on="1"/>
        <pt x="523" y="419" on="0"/>
        <pt x="497" y="345" on="0"/>
        <pt x="463" y="292" on="0"/>
        <pt x="420" y="259" on="0"/>
        <pt x="394" y="250" on="1"/>
        <pt x="470" y="0" on="1"/>
        <pt x="370" y="0" on="1"/>
        <pt x="300" y="230" on="1"/>
        <pt x="200" y="230" on="1"/>
        <pt x="160" y="0" on="1"/>
        <pt x="70" y="0" on="1"/>
        <pt x="191" y="690" on="1"/>
        <pt x="231" y="701" on="0"/>
        <pt x="310" y="710" on="0"/>
        <pt x="355" y="710" on="1"/>
        <pt x="415" y="710" on="0"/>
        <pt x="494" y="686" on="0"/>
        <pt x="537" y="629" on="0"/>
        <pt x="544" y="537" on="0"/>
      </contour>
      <contour>
        <pt x="282" y="300" on="1"/>
        <pt x="316" y="300" on="0"/>
        <pt x="368" y="317" on="0"/>
        <pt x="407" y="356" on="0"/>
        <pt x="433" y="421" on="0"/>
        <pt x="442" y="470" on="1"/>
        <pt x="451" y="521" on="0"/>
        <pt x="448" y="588" on="0"/>
        <pt x="423" y="628" on="0"/>
        <pt x="377" y="645" on="0"/>
        <pt x="343" y="645" on="1"/>
        <pt x="273" y="645" on="1"/>
        <pt x="212" y="300" on="1"/>
      </contour>
      <contour>
        <pt x="323" y="880" on="1"/>
        <pt x="372" y="806" on="1"/>
        <pt x="448" y="880" on="1"/>
        <pt x="508" y="880" on="1"/>
        <pt x="410" y="750" on="1"/>
        <pt x="315" y="750" on="1"/>
        <pt x="263" y="880" on="1"/>
      </contour>
    </TTGlyph>
    <TTGlyph name="Rcommaaccent" xMin="70" yMin="-200" xMax="544" yMax="710">
      <contour>
        <pt x="211" y="-50" on="1"/>
        <pt x="301" y="-50" on="1"/>
        <pt x="244" y="-200" on="1"/>
        <pt x="184" y="-200" on="1"/>
      </contour>
      <contour>
        <pt x="532" y="470" on="1"/>
        <pt x="523" y="419" on="0"/>
        <pt x="497" y="345" on="0"/>
        <pt x="463" y="292" on="0"/>
        <pt x="420" y="259" on="0"/>
        <pt x="394" y="250" on="1"/>
        <pt x="470" y="0" on="1"/>
        <pt x="370" y="0" on="1"/>
        <pt x="300" y="230" on="1"/>
        <pt x="200" y="230" on="1"/>
        <pt x="160" y="0" on="1"/>
        <pt x="70" y="0" on="1"/>
        <pt x="191" y="690" on="1"/>
        <pt x="231" y="701" on="0"/>
        <pt x="310" y="710" on="0"/>
        <pt x="355" y="710" on="1"/>
        <pt x="415" y="710" on="0"/>
        <pt x="494" y="686" on="0"/>
        <pt x="537" y="629" on="0"/>
        <pt x="544" y="537" on="0"/>
      </contour>
      <contour>
        <pt x="282" y="300" on="1"/>
        <pt x="316" y="300" on="0"/>
        <pt x="368" y="317" on="0"/>
        <pt x="407" y="356" on="0"/>
        <pt x="433" y="421" on="0"/>
        <pt x="442" y="470" on="1"/>
        <pt x="451" y="521" on="0"/>
        <pt x="448" y="588" on="0"/>
        <pt x="423" y="628" on="0"/>
        <pt x="377" y="645" on="0"/>
        <pt x="343" y="645" on="1"/>
        <pt x="273" y="645" on="1"/>
        <pt x="212" y="300" on="1"/>
      </contour>
    </TTGlyph>
    <TTGlyph name="S" xMin="36" yMin="-10" xMax="496" yMax="710">
      <contour>
        <pt x="128" y="530" on="1"/>
        <pt x="144" y="621" on="0"/>
        <pt x="252" y="710" on="0"/>
        <pt x="350" y="710" on="1"/>
        <pt x="395" y="710" on="0"/>
        <pt x="475" y="698" on="0"/>
        <pt x="496" y="690" on="1"/>
        <pt x="488" y="645" on="1"/>
        <pt x="358" y="645" on="1"/>
        <pt x="238" y="645" on="0"/>
        <pt x="218" y="530" on="1"/>
        <pt x="210" y="484" on="0"/>
        <pt x="242" y="430" on="0"/>
        <pt x="299" y="393" on="0"/>
        <pt x="367" y="362" on="0"/>
        <pt x="422" y="315" on="0"/>
        <pt x="452" y="241" on="0"/>
        <pt x="441" y="180" on="1"/>
        <pt x="432" y="131" on="0"/>
        <pt x="396" y="60" on="0"/>
        <pt x="334" y="13" on="0"/>
        <pt x="245" y="-10" on="0"/>
        <pt x="183" y="-10" on="1"/>
        <pt x="138" y="-10" on="0"/>
        <pt x="58" y="2" on="0"/>
        <pt x="36" y="10" on="1"/>
        <pt x="44" y="55" on="1"/>
        <pt x="174" y="55" on="1"/>
        <pt x="260" y="55" on="0"/>
        <pt x="340" y="116" on="0"/>
        <pt x="351" y="180" on="1"/>
        <pt x="359" y="224" on="0"/>
        <pt x="325" y="274" on="0"/>
        <pt x="268" y="309" on="0"/>
        <pt x="200" y="341" on="0"/>
        <pt x="145" y="389" on="0"/>
        <pt x="117" y="466" on="0"/>
      </contour>
    </TTGlyph>
    <TTGlyph name="Sacute" xMin="36" yMin="-10" xMax="496" yMax="890">
      <contour>
        <pt x="128" y="530" on="1"/>
        <pt x="144" y="621" on="0"/>
        <pt x="252" y="710" on="0"/>
        <pt x="350" y="710" on="1"/>
        <pt x="395" y="710" on="0"/>
        <pt x="475" y="698" on="0"/>
        <pt x="496" y="690" on="1"/>
        <pt x="488" y="645" on="1"/>
        <pt x="358" y="645" on="1"/>
        <pt x="238" y="645" on="0"/>
        <pt x="218" y="530" on="1"/>
        <pt x="210" y="484" on="0"/>
        <pt x="242" y="430" on="0"/>
        <pt x="299" y="393" on="0"/>
        <pt x="367" y="362" on="0"/>
        <pt x="422" y="315" on="0"/>
        <pt x="452" y="241" on="0"/>
        <pt x="441" y="180" on="1"/>
        <pt x="432" y="131" on="0"/>
        <pt x="396" y="60" on="0"/>
        <pt x="334" y="13" on="0"/>
        <pt x="245" y="-10" on="0"/>
        <pt x="183" y="-10" on="1"/>
        <pt x="138" y="-10" on="0"/>
        <pt x="58" y="2" on="0"/>
        <pt x="36" y="10" on="1"/>
        <pt x="44" y="55" on="1"/>
        <pt x="174" y="55" on="1"/>
        <pt x="260" y="55" on="0"/>
        <pt x="340" y="116" on="0"/>
        <pt x="351" y="180" on="1"/>
        <pt x="359" y="224" on="0"/>
        <pt x="325" y="274" on="0"/>
        <pt x="268" y="309" on="0"/>
        <pt x="200" y="341" on="0"/>
        <pt x="145" y="389" on="0"/>
        <pt x="117" y="466" on="0"/>
      </contour>
      <contour>
        <pt x="324" y="760" on="1"/>
        <pt x="381" y="890" on="1"/>
        <pt x="476" y="890" on="1"/>
        <pt x="384" y="760" on="1"/>
      </contour>
    </TTGlyph>
    <TTGlyph name="Scaron" xMin="36" yMin="-10" xMax="496" yMax="890">
      <contour>
        <pt x="128" y="530" on="1"/>
        <pt x="144" y="621" on="0"/>
        <pt x="252" y="710" on="0"/>
        <pt x="350" y="710" on="1"/>
        <pt x="395" y="710" on="0"/>
        <pt x="475" y="698" on="0"/>
        <pt x="496" y="690" on="1"/>
        <pt x="488" y="645" on="1"/>
        <pt x="358" y="645" on="1"/>
        <pt x="238" y="645" on="0"/>
        <pt x="218" y="530" on="1"/>
        <pt x="210" y="484" on="0"/>
        <pt x="242" y="430" on="0"/>
        <pt x="299" y="393" on="0"/>
        <pt x="367" y="362" on="0"/>
        <pt x="422" y="315" on="0"/>
        <pt x="452" y="241" on="0"/>
        <pt x="441" y="180" on="1"/>
        <pt x="432" y="131" on="0"/>
        <pt x="396" y="60" on="0"/>
        <pt x="334" y="13" on="0"/>
        <pt x="245" y="-10" on="0"/>
        <pt x="183" y="-10" on="1"/>
        <pt x="138" y="-10" on="0"/>
        <pt x="58" y="2" on="0"/>
        <pt x="36" y="10" on="1"/>
        <pt x="44" y="55" on="1"/>
        <pt x="174" y="55" on="1"/>
        <pt x="260" y="55" on="0"/>
        <pt x="340" y="116" on="0"/>
        <pt x="351" y="180" on="1"/>
        <pt x="359" y="224" on="0"/>
        <pt x="325" y="274" on="0"/>
        <pt x="268" y="309" on="0"/>
        <pt x="200" y="341" on="0"/>
        <pt x="145" y="389" on="0"/>
        <pt x="117" y="466" on="0"/>
      </contour>
      <contour>
        <pt x="309" y="890" on="1"/>
        <pt x="358" y="816" on="1"/>
        <pt x="434" y="890" on="1"/>
        <pt x="494" y="890" on="1"/>
        <pt x="397" y="760" on="1"/>
        <pt x="302" y="760" on="1"/>
        <pt x="249" y="890" on="1"/>
      </contour>
    </TTGlyph>
    <TTGlyph name="Scedilla" xMin="36" yMin="-165" xMax="496" yMax="710">
      <contour>
        <pt x="245" y="-25" on="1"/>
        <pt x="287" y="-25" on="0"/>
        <pt x="323" y="-65" on="0"/>
        <pt x="318" y="-95" on="1"/>
        <pt x="313" y="-125" on="0"/>
        <pt x="259" y="-165" on="0"/>
        <pt x="210" y="-165" on="1"/>
        <pt x="193" y="-165" on="0"/>
        <pt x="166" y="-161" on="0"/>
        <pt x="157" y="-158" on="1"/>
        <pt x="146" y="-154" on="0"/>
        <pt x="138" y="-150" on="1"/>
        <pt x="143" y="-120" on="1"/>
        <pt x="208" y="-120" on="1"/>
        <pt x="231" y="-120" on="0"/>
        <pt x="251" y="-106" on="0"/>
        <pt x="253" y="-95" on="1"/>
        <pt x="256" y="-70" on="0"/>
        <pt x="227" y="-70" on="1"/>
        <pt x="172" y="-70" on="1"/>
        <pt x="183" y="-10" on="1"/>
        <pt x="138" y="-10" on="0"/>
        <pt x="58" y="2" on="0"/>
        <pt x="36" y="10" on="1"/>
        <pt x="44" y="55" on="1"/>
        <pt x="174" y="55" on="1"/>
        <pt x="260" y="55" on="0"/>
        <pt x="340" y="116" on="0"/>
        <pt x="351" y="180" on="1"/>
        <pt x="359" y="224" on="0"/>
        <pt x="325" y="274" on="0"/>
        <pt x="268" y="309" on="0"/>
        <pt x="200" y="341" on="0"/>
        <pt x="145" y="389" on="0"/>
        <pt x="117" y="466" on="0"/>
        <pt x="128" y="530" on="1"/>
        <pt x="144" y="621" on="0"/>
        <pt x="252" y="710" on="0"/>
        <pt x="350" y="710" on="1"/>
        <pt x="395" y="710" on="0"/>
        <pt x="475" y="698" on="0"/>
        <pt x="496" y="690" on="1"/>
        <pt x="488" y="645" on="1"/>
        <pt x="358" y="645" on="1"/>
        <pt x="238" y="645" on="0"/>
        <pt x="218" y="530" on="1"/>
        <pt x="210" y="484" on="0"/>
        <pt x="242" y="430" on="0"/>
        <pt x="299" y="393" on="0"/>
        <pt x="367" y="362" on="0"/>
        <pt x="422" y="315" on="0"/>
        <pt x="452" y="241" on="0"/>
        <pt x="441" y="180" on="1"/>
        <pt x="426" y="92" on="0"/>
        <pt x="330" y="1" on="0"/>
        <pt x="233" y="-7" on="1"/>
        <pt x="230" y="-25" on="1"/>
      </contour>
    </TTGlyph>
    <TTGlyph name="T" xMin="121" yMin="0" xMax="543" yMax="700">
      <contour>
        <pt x="133" y="700" on="1"/>
        <pt x="543" y="700" on="1"/>
        <pt x="531" y="630" on="1"/>
        <pt x="371" y="630" on="1"/>
        <pt x="260" y="0" on="1"/>
        <pt x="170" y="0" on="1"/>
        <pt x="281" y="630" on="1"/>
        <pt x="121" y="630" on="1"/>
      </contour>
    </TTGlyph>
    <TTGlyph name="Thorn" xMin="68" yMin="-10" xMax="544" yMax="710">
      <contour>
        <pt x="271" y="630" on="1"/>
        <pt x="424" y="622" on="0"/>
        <pt x="544" y="482" on="0"/>
        <pt x="521" y="350" on="1"/>
        <pt x="498" y="218" on="0"/>
        <pt x="328" y="78" on="0"/>
        <pt x="172" y="70" on="1"/>
        <pt x="158" y="-10" on="1"/>
        <pt x="68" y="-10" on="1"/>
        <pt x="195" y="710" on="1"/>
        <pt x="285" y="710" on="1"/>
      </contour>
      <contour>
        <pt x="183" y="135" on="1"/>
        <pt x="289" y="139" on="0"/>
        <pt x="413" y="244" on="0"/>
        <pt x="431" y="350" on="1"/>
        <pt x="450" y="456" on="0"/>
        <pt x="364" y="561" on="0"/>
        <pt x="259" y="565" on="1"/>
      </contour>
    </TTGlyph>
    <TTGlyph name="U" xMin="89" yMin="-10" xMax="583" yMax="700">
      <contour>
        <pt x="268" y="50" on="1"/>
        <pt x="294" y="50" on="0"/>
        <pt x="338" y="67" on="0"/>
        <pt x="374" y="110" on="0"/>
        <pt x="402" y="184" on="0"/>
        <pt x="412" y="240" on="1"/>
        <pt x="493" y="700" on="1"/>
        <pt x="583" y="700" on="1"/>
        <pt x="502" y="240" on="1"/>
        <pt x="489" y="169" on="0"/>
        <pt x="449" y="73" on="0"/>
        <pt x="390" y="15" on="0"/>
        <pt x="310" y="-10" on="0"/>
        <pt x="258" y="-10" on="1"/>
        <pt x="205" y="-10" on="0"/>
        <pt x="134" y="15" on="0"/>
        <pt x="95" y="73" on="0"/>
        <pt x="89" y="169" on="0"/>
        <pt x="102" y="240" on="1"/>
        <pt x="183" y="700" on="1"/>
        <pt x="273" y="700" on="1"/>
        <pt x="192" y="240" on="1"/>
        <pt x="182" y="184" on="0"/>
        <pt x="183" y="110" on="0"/>
        <pt x="204" y="67" on="0"/>
        <pt x="242" y="50" on="0"/>
      </contour>
    </TTGlyph>
    <TTGlyph name="Uacute" xMin="89" yMin="-10" xMax="583" yMax="870">
      <contour>
        <pt x="268" y="50" on="1"/>
        <pt x="294" y="50" on="0"/>
        <pt x="338" y="67" on="0"/>
        <pt x="374" y="110" on="0"/>
        <pt x="402" y="184" on="0"/>
        <pt x="412" y="240" on="1"/>
        <pt x="493" y="700" on="1"/>
        <pt x="583" y="700" on="1"/>
        <pt x="502" y="240" on="1"/>
        <pt x="489" y="169" on="0"/>
        <pt x="449" y="73" on="0"/>
        <pt x="390" y="15" on="0"/>
        <pt x="310" y="-10" on="0"/>
        <pt x="258" y="-10" on="1"/>
        <pt x="205" y="-10" on="0"/>
        <pt x="134" y="15" on="0"/>
        <pt x="95" y="73" on="0"/>
        <pt x="89" y="169" on="0"/>
        <pt x="102" y="240" on="1"/>
        <pt x="183" y="700" on="1"/>
        <pt x="273" y="700" on="1"/>
        <pt x="192" y="240" on="1"/>
        <pt x="182" y="184" on="0"/>
        <pt x="183" y="110" on="0"/>
        <pt x="204" y="67" on="0"/>
        <pt x="242" y="50" on="0"/>
      </contour>
      <contour>
        <pt x="355" y="740" on="1"/>
        <pt x="413" y="870" on="1"/>
        <pt x="508" y="870" on="1"/>
        <pt x="415" y="740" on="1"/>
      </contour>
    </TTGlyph>
    <TTGlyph name="Ucircumflex" xMin="89" yMin="-10" xMax="583" yMax="870">
      <contour>
        <pt x="268" y="50" on="1"/>
        <pt x="294" y="50" on="0"/>
        <pt x="338" y="67" on="0"/>
        <pt x="374" y="110" on="0"/>
        <pt x="402" y="184" on="0"/>
        <pt x="412" y="240" on="1"/>
        <pt x="493" y="700" on="1"/>
        <pt x="583" y="700" on="1"/>
        <pt x="502" y="240" on="1"/>
        <pt x="489" y="169" on="0"/>
        <pt x="449" y="73" on="0"/>
        <pt x="390" y="15" on="0"/>
        <pt x="310" y="-10" on="0"/>
        <pt x="258" y="-10" on="1"/>
        <pt x="205" y="-10" on="0"/>
        <pt x="134" y="15" on="0"/>
        <pt x="95" y="73" on="0"/>
        <pt x="89" y="169" on="0"/>
        <pt x="102" y="240" on="1"/>
        <pt x="183" y="700" on="1"/>
        <pt x="273" y="700" on="1"/>
        <pt x="192" y="240" on="1"/>
        <pt x="182" y="184" on="0"/>
        <pt x="183" y="110" on="0"/>
        <pt x="204" y="67" on="0"/>
        <pt x="242" y="50" on="0"/>
      </contour>
      <contour>
        <pt x="268" y="740" on="1"/>
        <pt x="366" y="870" on="1"/>
        <pt x="461" y="870" on="1"/>
        <pt x="513" y="740" on="1"/>
        <pt x="453" y="740" on="1"/>
        <pt x="403" y="814" on="1"/>
        <pt x="328" y="740" on="1"/>
      </contour>
    </TTGlyph>
    <TTGlyph name="Udieresis" xMin="89" yMin="-10" xMax="583" yMax="860">
      <contour>
        <pt x="268" y="50" on="1"/>
        <pt x="294" y="50" on="0"/>
        <pt x="338" y="67" on="0"/>
        <pt x="374" y="110" on="0"/>
        <pt x="402" y="184" on="0"/>
        <pt x="412" y="240" on="1"/>
        <pt x="493" y="700" on="1"/>
        <pt x="583" y="700" on="1"/>
        <pt x="502" y="240" on="1"/>
        <pt x="489" y="169" on="0"/>
        <pt x="449" y="73" on="0"/>
        <pt x="390" y="15" on="0"/>
        <pt x="310" y="-10" on="0"/>
        <pt x="258" y="-10" on="1"/>
        <pt x="205" y="-10" on="0"/>
        <pt x="134" y="15" on="0"/>
        <pt x="95" y="73" on="0"/>
        <pt x="89" y="169" on="0"/>
        <pt x="102" y="240" on="1"/>
        <pt x="183" y="700" on="1"/>
        <pt x="273" y="700" on="1"/>
        <pt x="192" y="240" on="1"/>
        <pt x="182" y="184" on="0"/>
        <pt x="183" y="110" on="0"/>
        <pt x="204" y="67" on="0"/>
        <pt x="242" y="50" on="0"/>
      </contour>
      <contour>
        <pt x="376" y="860" on="1"/>
        <pt x="357" y="750" on="1"/>
        <pt x="267" y="750" on="1"/>
        <pt x="286" y="860" on="1"/>
      </contour>
      <contour>
        <pt x="536" y="860" on="1"/>
        <pt x="517" y="750" on="1"/>
        <pt x="427" y="750" on="1"/>
        <pt x="446" y="860" on="1"/>
      </contour>
    </TTGlyph>
    <TTGlyph name="Ugrave" xMin="89" yMin="-10" xMax="583" yMax="870">
      <contour>
        <pt x="268" y="50" on="1"/>
        <pt x="294" y="50" on="0"/>
        <pt x="338" y="67" on="0"/>
        <pt x="374" y="110" on="0"/>
        <pt x="402" y="184" on="0"/>
        <pt x="412" y="240" on="1"/>
        <pt x="493" y="700" on="1"/>
        <pt x="583" y="700" on="1"/>
        <pt x="502" y="240" on="1"/>
        <pt x="489" y="169" on="0"/>
        <pt x="449" y="73" on="0"/>
        <pt x="390" y="15" on="0"/>
        <pt x="310" y="-10" on="0"/>
        <pt x="258" y="-10" on="1"/>
        <pt x="205" y="-10" on="0"/>
        <pt x="134" y="15" on="0"/>
        <pt x="95" y="73" on="0"/>
        <pt x="89" y="169" on="0"/>
        <pt x="102" y="240" on="1"/>
        <pt x="183" y="700" on="1"/>
        <pt x="273" y="700" on="1"/>
        <pt x="192" y="240" on="1"/>
        <pt x="182" y="184" on="0"/>
        <pt x="183" y="110" on="0"/>
        <pt x="204" y="67" on="0"/>
        <pt x="242" y="50" on="0"/>
      </contour>
      <contour>
        <pt x="365" y="740" on="1"/>
        <pt x="318" y="870" on="1"/>
        <pt x="413" y="870" on="1"/>
        <pt x="425" y="740" on="1"/>
      </contour>
    </TTGlyph>
    <TTGlyph name="Umacron" xMin="89" yMin="-10" xMax="583" yMax="830">
      <contour>
        <pt x="268" y="50" on="1"/>
        <pt x="294" y="50" on="0"/>
        <pt x="338" y="67" on="0"/>
        <pt x="374" y="110" on="0"/>
        <pt x="402" y="184" on="0"/>
        <pt x="412" y="240" on="1"/>
        <pt x="493" y="700" on="1"/>
        <pt x="583" y="700" on="1"/>
        <pt x="502" y="240" on="1"/>
        <pt x="489" y="169" on="0"/>
        <pt x="449" y="73" on="0"/>
        <pt x="390" y="15" on="0"/>
        <pt x="310" y="-10" on="0"/>
        <pt x="258" y="-10" on="1"/>
        <pt x="205" y="-10" on="0"/>
        <pt x="134" y="15" on="0"/>
        <pt x="95" y="73" on="0"/>
        <pt x="89" y="169" on="0"/>
        <pt x="102" y="240" on="1"/>
        <pt x="183" y="700" on="1"/>
        <pt x="273" y="700" on="1"/>
        <pt x="192" y="240" on="1"/>
        <pt x="182" y="184" on="0"/>
        <pt x="183" y="110" on="0"/>
        <pt x="204" y="67" on="0"/>
        <pt x="242" y="50" on="0"/>
      </contour>
      <contour>
        <pt x="291" y="830" on="1"/>
        <pt x="521" y="830" on="1"/>
        <pt x="510" y="770" on="1"/>
        <pt x="280" y="770" on="1"/>
      </contour>
    </TTGlyph>
    <TTGlyph name="Uogonek" xMin="90" yMin="-160" xMax="583" yMax="700">
      <contour>
        <pt x="272" y="-45" on="1"/>
        <pt x="266" y="-79" on="0"/>
        <pt x="287" y="-104" on="0"/>
        <pt x="321" y="-104" on="1"/>
        <pt x="356" y="-104" on="1"/>
        <pt x="349" y="-145" on="1"/>
        <pt x="339" y="-149" on="0"/>
        <pt x="327" y="-153" on="1"/>
        <pt x="316" y="-156" on="0"/>
        <pt x="288" y="-160" on="0"/>
        <pt x="271" y="-160" on="1"/>
        <pt x="229" y="-160" on="0"/>
        <pt x="194" y="-118" on="0"/>
        <pt x="200" y="-80" on="1"/>
        <pt x="205" y="-56" on="0"/>
        <pt x="225" y="-19" on="0"/>
        <pt x="232" y="-9" on="1"/>
        <pt x="187" y="-6" on="0"/>
        <pt x="126" y="22" on="0"/>
        <pt x="94" y="80" on="0"/>
        <pt x="90" y="173" on="0"/>
        <pt x="102" y="240" on="1"/>
        <pt x="183" y="700" on="1"/>
        <pt x="273" y="700" on="1"/>
        <pt x="192" y="240" on="1"/>
        <pt x="182" y="184" on="0"/>
        <pt x="183" y="110" on="0"/>
        <pt x="204" y="67" on="0"/>
        <pt x="242" y="50" on="0"/>
        <pt x="268" y="50" on="1"/>
        <pt x="294" y="50" on="0"/>
        <pt x="338" y="67" on="0"/>
        <pt x="374" y="110" on="0"/>
        <pt x="402" y="184" on="0"/>
        <pt x="412" y="240" on="1"/>
        <pt x="493" y="700" on="1"/>
        <pt x="583" y="700" on="1"/>
        <pt x="502" y="240" on="1"/>
        <pt x="490" y="172" on="0"/>
        <pt x="453" y="79" on="0"/>
        <pt x="399" y="20" on="0"/>
        <pt x="326" y="-7" on="0"/>
        <pt x="278" y="-9" on="1"/>
      </contour>
    </TTGlyph>
    <TTGlyph name="V" xMin="143" yMin="0" xMax="593" yMax="700">
      <contour>
        <pt x="259" y="95" on="1"/>
        <pt x="263" y="95" on="1"/>
        <pt x="503" y="700" on="1"/>
        <pt x="593" y="700" on="1"/>
        <pt x="310" y="0" on="1"/>
        <pt x="180" y="0" on="1"/>
        <pt x="143" y="700" on="1"/>
        <pt x="233" y="700" on="1"/>
      </contour>
    </TTGlyph>
    <TTGlyph name="W" xMin="135" yMin="0" xMax="823" yMax="700">
      <contour>
        <pt x="505" y="570" on="1"/>
        <pt x="543" y="160" on="1"/>
        <pt x="548" y="160" on="1"/>
        <pt x="733" y="700" on="1"/>
        <pt x="823" y="700" on="1"/>
        <pt x="585" y="0" on="1"/>
        <pt x="475" y="0" on="1"/>
        <pt x="436" y="420" on="1"/>
        <pt x="432" y="420" on="1"/>
        <pt x="245" y="0" on="1"/>
        <pt x="135" y="0" on="1"/>
        <pt x="143" y="700" on="1"/>
        <pt x="233" y="700" on="1"/>
        <pt x="228" y="160" on="1"/>
        <pt x="233" y="160" on="1"/>
        <pt x="415" y="570" on="1"/>
      </contour>
    </TTGlyph>
    <TTGlyph name="X" xMin="15" yMin="0" xMax="553" yMax="700">
      <contour>
        <pt x="463" y="700" on="1"/>
        <pt x="553" y="700" on="1"/>
        <pt x="358" y="360" on="1"/>
        <pt x="445" y="0" on="1"/>
        <pt x="355" y="0" on="1"/>
        <pt x="282" y="300" on="1"/>
        <pt x="105" y="0" on="1"/>
        <pt x="15" y="0" on="1"/>
        <pt x="228" y="360" on="1"/>
        <pt x="153" y="700" on="1"/>
        <pt x="243" y="700" on="1"/>
        <pt x="304" y="420" on="1"/>
      </contour>
    </TTGlyph>
    <TTGlyph name="Y" xMin="133" yMin="0" xMax="563" yMax="700">
      <contour>
        <pt x="473" y="700" on="1"/>
        <pt x="563" y="700" on="1"/>
        <pt x="308" y="220" on="1"/>
        <pt x="270" y="0" on="1"/>
        <pt x="180" y="0" on="1"/>
        <pt x="218" y="220" on="1"/>
        <pt x="133" y="700" on="1"/>
        <pt x="223" y="700" on="1"/>
        <pt x="285" y="345" on="1"/>
      </contour>
    </TTGlyph>
    <TTGlyph name="Yacute" xMin="133" yMin="0" xMax="563" yMax="870">
      <contour>
        <pt x="320" y="740" on="1"/>
        <pt x="378" y="870" on="1"/>
        <pt x="473" y="870" on="1"/>
        <pt x="380" y="740" on="1"/>
      </contour>
      <contour>
        <pt x="473" y="700" on="1"/>
        <pt x="563" y="700" on="1"/>
        <pt x="308" y="220" on="1"/>
        <pt x="270" y="0" on="1"/>
        <pt x="180" y="0" on="1"/>
        <pt x="218" y="220" on="1"/>
        <pt x="133" y="700" on="1"/>
        <pt x="223" y="700" on="1"/>
        <pt x="285" y="345" on="1"/>
      </contour>
    </TTGlyph>
    <TTGlyph name="Ydieresis" xMin="133" yMin="0" xMax="563" yMax="880">
      <contour>
        <pt x="345" y="880" on="1"/>
        <pt x="325" y="770" on="1"/>
        <pt x="235" y="770" on="1"/>
        <pt x="255" y="880" on="1"/>
      </contour>
      <contour>
        <pt x="505" y="880" on="1"/>
        <pt x="485" y="770" on="1"/>
        <pt x="395" y="770" on="1"/>
        <pt x="415" y="880" on="1"/>
      </contour>
      <contour>
        <pt x="473" y="700" on="1"/>
        <pt x="563" y="700" on="1"/>
        <pt x="308" y="220" on="1"/>
        <pt x="270" y="0" on="1"/>
        <pt x="180" y="0" on="1"/>
        <pt x="218" y="220" on="1"/>
        <pt x="133" y="700" on="1"/>
        <pt x="223" y="700" on="1"/>
        <pt x="285" y="345" on="1"/>
      </contour>
    </TTGlyph>
    <TTGlyph name="Z" xMin="20" yMin="0" xMax="508" yMax="700">
      <contour>
        <pt x="137" y="70" on="1"/>
        <pt x="392" y="70" on="1"/>
        <pt x="380" y="0" on="1"/>
        <pt x="20" y="0" on="1"/>
        <pt x="31" y="65" on="1"/>
        <pt x="391" y="630" on="1"/>
        <pt x="136" y="630" on="1"/>
        <pt x="148" y="700" on="1"/>
        <pt x="508" y="700" on="1"/>
        <pt x="496" y="635" on="1"/>
      </contour>
    </TTGlyph>
    <TTGlyph name="Zacute" xMin="20" yMin="0" xMax="508" yMax="880">
      <contour>
        <pt x="137" y="70" on="1"/>
        <pt x="392" y="70" on="1"/>
        <pt x="380" y="0" on="1"/>
        <pt x="20" y="0" on="1"/>
        <pt x="31" y="65" on="1"/>
        <pt x="391" y="630" on="1"/>
        <pt x="136" y="630" on="1"/>
        <pt x="148" y="700" on="1"/>
        <pt x="508" y="700" on="1"/>
        <pt x="496" y="635" on="1"/>
      </contour>
      <contour>
        <pt x="302" y="750" on="1"/>
        <pt x="360" y="880" on="1"/>
        <pt x="455" y="880" on="1"/>
        <pt x="362" y="750" on="1"/>
      </contour>
    </TTGlyph>
    <TTGlyph name="Zcaron" xMin="20" yMin="0" xMax="508" yMax="890">
      <contour>
        <pt x="137" y="70" on="1"/>
        <pt x="392" y="70" on="1"/>
        <pt x="380" y="0" on="1"/>
        <pt x="20" y="0" on="1"/>
        <pt x="31" y="65" on="1"/>
        <pt x="391" y="630" on="1"/>
        <pt x="136" y="630" on="1"/>
        <pt x="148" y="700" on="1"/>
        <pt x="508" y="700" on="1"/>
        <pt x="496" y="635" on="1"/>
      </contour>
      <contour>
        <pt x="309" y="890" on="1"/>
        <pt x="358" y="816" on="1"/>
        <pt x="434" y="890" on="1"/>
        <pt x="494" y="890" on="1"/>
        <pt x="397" y="760" on="1"/>
        <pt x="302" y="760" on="1"/>
        <pt x="249" y="890" on="1"/>
      </contour>
    </TTGlyph>
    <TTGlyph name="Zdotaccent" xMin="20" yMin="0" xMax="508" yMax="880">
      <contour>
        <pt x="137" y="70" on="1"/>
        <pt x="392" y="70" on="1"/>
        <pt x="380" y="0" on="1"/>
        <pt x="20" y="0" on="1"/>
        <pt x="31" y="65" on="1"/>
        <pt x="391" y="630" on="1"/>
        <pt x="136" y="630" on="1"/>
        <pt x="148" y="700" on="1"/>
        <pt x="508" y="700" on="1"/>
        <pt x="496" y="635" on="1"/>
      </contour>
      <contour>
        <pt x="405" y="880" on="1"/>
        <pt x="385" y="770" on="1"/>
        <pt x="295" y="770" on="1"/>
        <pt x="315" y="880" on="1"/>
      </contour>
    </TTGlyph>
    <TTGlyph name="a" xMin="75" yMin="-10" xMax="484" yMax="510">
      <contour>
        <pt x="400" y="0" on="1"/>
        <pt x="325" y="0" on="1"/>
        <pt x="325" y="30" on="1"/>
        <pt x="320" y="30" on="1"/>
        <pt x="297" y="11" on="0"/>
        <pt x="238" y="-10" on="0"/>
        <pt x="208" y="-10" on="1"/>
        <pt x="169" y="-10" on="0"/>
        <pt x="111" y="15" on="0"/>
        <pt x="80" y="75" on="0"/>
        <pt x="75" y="175" on="0"/>
        <pt x="89" y="250" on="1"/>
        <pt x="102" y="325" on="0"/>
        <pt x="142" y="425" on="0"/>
        <pt x="201" y="485" on="0"/>
        <pt x="278" y="510" on="0"/>
        <pt x="329" y="510" on="1"/>
        <pt x="374" y="510" on="0"/>
        <pt x="449" y="495" on="0"/>
        <pt x="484" y="480" on="1"/>
      </contour>
      <contour>
        <pt x="319" y="450" on="1"/>
        <pt x="295" y="450" on="0"/>
        <pt x="253" y="432" on="0"/>
        <pt x="218" y="387" on="0"/>
        <pt x="189" y="310" on="0"/>
        <pt x="179" y="250" on="1"/>
        <pt x="168" y="190" on="0"/>
        <pt x="169" y="112" on="0"/>
        <pt x="188" y="67" on="0"/>
        <pt x="224" y="50" on="0"/>
        <pt x="248" y="50" on="1"/>
        <pt x="267" y="50" on="0"/>
        <pt x="309" y="62" on="0"/>
        <pt x="322" y="70" on="1"/>
        <pt x="389" y="450" on="1"/>
      </contour>
    </TTGlyph>
    <TTGlyph name="aacute" xMin="75" yMin="-10" xMax="484" yMax="690">
      <contour>
        <pt x="308" y="560" on="1"/>
        <pt x="366" y="690" on="1"/>
        <pt x="461" y="690" on="1"/>
        <pt x="368" y="560" on="1"/>
      </contour>
      <contour>
        <pt x="400" y="0" on="1"/>
        <pt x="325" y="0" on="1"/>
        <pt x="325" y="30" on="1"/>
        <pt x="320" y="30" on="1"/>
        <pt x="297" y="11" on="0"/>
        <pt x="238" y="-10" on="0"/>
        <pt x="208" y="-10" on="1"/>
        <pt x="169" y="-10" on="0"/>
        <pt x="111" y="15" on="0"/>
        <pt x="80" y="75" on="0"/>
        <pt x="75" y="175" on="0"/>
        <pt x="89" y="250" on="1"/>
        <pt x="102" y="325" on="0"/>
        <pt x="142" y="425" on="0"/>
        <pt x="201" y="485" on="0"/>
        <pt x="278" y="510" on="0"/>
        <pt x="329" y="510" on="1"/>
        <pt x="374" y="510" on="0"/>
        <pt x="449" y="495" on="0"/>
        <pt x="484" y="480" on="1"/>
      </contour>
      <contour>
        <pt x="319" y="450" on="1"/>
        <pt x="295" y="450" on="0"/>
        <pt x="253" y="432" on="0"/>
        <pt x="218" y="387" on="0"/>
        <pt x="189" y="310" on="0"/>
        <pt x="179" y="250" on="1"/>
        <pt x="168" y="190" on="0"/>
        <pt x="169" y="112" on="0"/>
        <pt x="188" y="67" on="0"/>
        <pt x="224" y="50" on="0"/>
        <pt x="248" y="50" on="1"/>
        <pt x="267" y="50" on="0"/>
        <pt x="309" y="62" on="0"/>
        <pt x="322" y="70" on="1"/>
        <pt x="389" y="450" on="1"/>
      </contour>
    </TTGlyph>
    <TTGlyph name="acircumflex" xMin="74" yMin="-10" xMax="483" yMax="680">
      <contour>
        <pt x="220" y="550" on="1"/>
        <pt x="318" y="680" on="1"/>
        <pt x="413" y="680" on="1"/>
        <pt x="465" y="550" on="1"/>
        <pt x="405" y="550" on="1"/>
        <pt x="356" y="624" on="1"/>
        <pt x="280" y="550" on="1"/>
      </contour>
      <contour>
        <pt x="399" y="0" on="1"/>
        <pt x="324" y="0" on="1"/>
        <pt x="324" y="30" on="1"/>
        <pt x="319" y="30" on="1"/>
        <pt x="296" y="11" on="0"/>
        <pt x="237" y="-10" on="0"/>
        <pt x="207" y="-10" on="1"/>
        <pt x="168" y="-10" on="0"/>
        <pt x="110" y="15" on="0"/>
        <pt x="79" y="75" on="0"/>
        <pt x="74" y="175" on="0"/>
        <pt x="88" y="250" on="1"/>
        <pt x="101" y="325" on="0"/>
        <pt x="141" y="425" on="0"/>
        <pt x="200" y="485" on="0"/>
        <pt x="277" y="510" on="0"/>
        <pt x="328" y="510" on="1"/>
        <pt x="373" y="510" on="0"/>
        <pt x="448" y="495" on="0"/>
        <pt x="483" y="480" on="1"/>
      </contour>
      <contour>
        <pt x="318" y="450" on="1"/>
        <pt x="294" y="450" on="0"/>
        <pt x="252" y="432" on="0"/>
        <pt x="217" y="387" on="0"/>
        <pt x="188" y="310" on="0"/>
        <pt x="178" y="250" on="1"/>
        <pt x="167" y="190" on="0"/>
        <pt x="168" y="112" on="0"/>
        <pt x="187" y="67" on="0"/>
        <pt x="223" y="50" on="0"/>
        <pt x="247" y="50" on="1"/>
        <pt x="266" y="50" on="0"/>
        <pt x="308" y="62" on="0"/>
        <pt x="321" y="70" on="1"/>
        <pt x="388" y="450" on="1"/>
      </contour>
    </TTGlyph>
    <TTGlyph name="acute" xMin="118" yMin="560" xMax="271" yMax="690">
      <contour>
        <pt x="118" y="560" on="1"/>
        <pt x="176" y="690" on="1"/>
        <pt x="271" y="690" on="1"/>
        <pt x="178" y="560" on="1"/>
      </contour>
    </TTGlyph>
    <TTGlyph name="adieresis" xMin="74" yMin="-10" xMax="488" yMax="680">
      <contour>
        <pt x="328" y="680" on="1"/>
        <pt x="309" y="570" on="1"/>
        <pt x="219" y="570" on="1"/>
        <pt x="238" y="680" on="1"/>
      </contour>
      <contour>
        <pt x="488" y="680" on="1"/>
        <pt x="469" y="570" on="1"/>
        <pt x="379" y="570" on="1"/>
        <pt x="398" y="680" on="1"/>
      </contour>
      <contour>
        <pt x="399" y="0" on="1"/>
        <pt x="324" y="0" on="1"/>
        <pt x="324" y="30" on="1"/>
        <pt x="319" y="30" on="1"/>
        <pt x="296" y="11" on="0"/>
        <pt x="237" y="-10" on="0"/>
        <pt x="207" y="-10" on="1"/>
        <pt x="168" y="-10" on="0"/>
        <pt x="110" y="15" on="0"/>
        <pt x="79" y="75" on="0"/>
        <pt x="74" y="175" on="0"/>
        <pt x="88" y="250" on="1"/>
        <pt x="101" y="325" on="0"/>
        <pt x="141" y="425" on="0"/>
        <pt x="200" y="485" on="0"/>
        <pt x="277" y="510" on="0"/>
        <pt x="328" y="510" on="1"/>
        <pt x="373" y="510" on="0"/>
        <pt x="448" y="495" on="0"/>
        <pt x="483" y="480" on="1"/>
      </contour>
      <contour>
        <pt x="318" y="450" on="1"/>
        <pt x="294" y="450" on="0"/>
        <pt x="252" y="432" on="0"/>
        <pt x="217" y="387" on="0"/>
        <pt x="188" y="310" on="0"/>
        <pt x="178" y="250" on="1"/>
        <pt x="167" y="190" on="0"/>
        <pt x="168" y="112" on="0"/>
        <pt x="187" y="67" on="0"/>
        <pt x="223" y="50" on="0"/>
        <pt x="247" y="50" on="1"/>
        <pt x="266" y="50" on="0"/>
        <pt x="308" y="62" on="0"/>
        <pt x="321" y="70" on="1"/>
        <pt x="388" y="450" on="1"/>
      </contour>
    </TTGlyph>
    <TTGlyph name="ae" xMin="61" yMin="-10" xMax="731" yMax="510">
      <contour>
        <pt x="334" y="225" on="1"/>
        <pt x="264" y="225" on="1"/>
        <pt x="226" y="225" on="0"/>
        <pt x="168" y="189" on="0"/>
        <pt x="159" y="140" on="1"/>
        <pt x="154" y="114" on="0"/>
        <pt x="162" y="79" on="0"/>
        <pt x="181" y="58" on="0"/>
        <pt x="208" y="50" on="0"/>
        <pt x="223" y="50" on="1"/>
        <pt x="242" y="50" on="0"/>
        <pt x="274" y="59" on="0"/>
        <pt x="285" y="65" on="1"/>
        <pt x="298" y="71" on="0"/>
        <pt x="309" y="80" on="1"/>
      </contour>
      <contour>
        <pt x="529" y="280" on="1"/>
        <pt x="571" y="280" on="0"/>
        <pt x="621" y="322" on="0"/>
        <pt x="628" y="360" on="1"/>
        <pt x="636" y="405" on="0"/>
        <pt x="598" y="455" on="0"/>
        <pt x="560" y="455" on="1"/>
        <pt x="539" y="455" on="0"/>
        <pt x="502" y="438" on="0"/>
        <pt x="469" y="398" on="0"/>
        <pt x="443" y="331" on="0"/>
        <pt x="434" y="280" on="1"/>
      </contour>
      <contour>
        <pt x="569" y="510" on="1"/>
        <pt x="660" y="510" on="0"/>
        <pt x="731" y="432" on="0"/>
        <pt x="718" y="360" on="1"/>
        <pt x="706" y="292" on="0"/>
        <pt x="612" y="220" on="0"/>
        <pt x="518" y="220" on="1"/>
        <pt x="423" y="220" on="1"/>
        <pt x="414" y="171" on="0"/>
        <pt x="418" y="106" on="0"/>
        <pt x="445" y="67" on="0"/>
        <pt x="495" y="50" on="0"/>
        <pt x="533" y="50" on="1"/>
        <pt x="633" y="50" on="1"/>
        <pt x="626" y="10" on="1"/>
        <pt x="603" y="2" on="0"/>
        <pt x="533" y="-10" on="0"/>
        <pt x="503" y="-10" on="1"/>
        <pt x="443" y="-10" on="0"/>
        <pt x="375" y="22" on="0"/>
        <pt x="355" y="60" on="1"/>
        <pt x="326" y="26" on="0"/>
        <pt x="246" y="-10" on="0"/>
        <pt x="193" y="-10" on="1"/>
        <pt x="159" y="-10" on="0"/>
        <pt x="106" y="3" on="0"/>
        <pt x="73" y="37" on="0"/>
        <pt x="61" y="95" on="0"/>
        <pt x="69" y="140" on="1"/>
        <pt x="76" y="183" on="0"/>
        <pt x="108" y="239" on="0"/>
        <pt x="153" y="272" on="0"/>
        <pt x="211" y="285" on="0"/>
        <pt x="245" y="285" on="1"/>
        <pt x="268" y="285" on="0"/>
        <pt x="321" y="279" on="0"/>
        <pt x="343" y="275" on="1"/>
        <pt x="354" y="340" on="1"/>
        <pt x="360" y="374" on="0"/>
        <pt x="353" y="417" on="0"/>
        <pt x="329" y="441" on="0"/>
        <pt x="290" y="450" on="0"/>
        <pt x="264" y="450" on="1"/>
        <pt x="164" y="450" on="1"/>
        <pt x="171" y="490" on="1"/>
        <pt x="195" y="498" on="0"/>
        <pt x="264" y="510" on="0"/>
        <pt x="294" y="510" on="1"/>
        <pt x="339" y="510" on="0"/>
        <pt x="409" y="474" on="0"/>
        <pt x="422" y="440" on="1"/>
        <pt x="447" y="474" on="0"/>
        <pt x="520" y="510" on="0"/>
      </contour>
    </TTGlyph>
    <TTGlyph name="afii10017" xMin="20" yMin="0" xMax="490" yMax="700">
      <contour>
        <pt x="186" y="180" on="1"/>
        <pt x="110" y="0" on="1"/>
        <pt x="20" y="0" on="1"/>
        <pt x="313" y="700" on="1"/>
        <pt x="443" y="700" on="1"/>
        <pt x="490" y="0" on="1"/>
        <pt x="400" y="0" on="1"/>
        <pt x="386" y="180" on="1"/>
      </contour>
      <contour>
        <pt x="362" y="600" on="1"/>
        <pt x="358" y="600" on="1"/>
        <pt x="214" y="250" on="1"/>
        <pt x="384" y="250" on="1"/>
      </contour>
    </TTGlyph>
    <TTGlyph name="afii10018" xMin="71" yMin="-10" xMax="543" yMax="700">
      <contour>
        <pt x="234" y="425" on="1"/>
        <pt x="304" y="425" on="1"/>
        <pt x="364" y="425" on="0"/>
        <pt x="444" y="401" on="0"/>
        <pt x="487" y="349" on="0"/>
        <pt x="496" y="265" on="0"/>
        <pt x="486" y="205" on="1"/>
        <pt x="475" y="147" on="0"/>
        <pt x="437" y="65" on="0"/>
        <pt x="376" y="14" on="0"/>
        <pt x="288" y="-10" on="0"/>
        <pt x="228" y="-10" on="1"/>
        <pt x="183" y="-10" on="0"/>
        <pt x="107" y="-1" on="0"/>
        <pt x="71" y="10" on="1"/>
        <pt x="193" y="700" on="1"/>
        <pt x="543" y="700" on="1"/>
        <pt x="531" y="630" on="1"/>
        <pt x="271" y="630" on="1"/>
      </contour>
      <contour>
        <pt x="222" y="355" on="1"/>
        <pt x="169" y="55" on="1"/>
        <pt x="239" y="55" on="1"/>
        <pt x="307" y="55" on="0"/>
        <pt x="381" y="122" on="0"/>
        <pt x="396" y="205" on="1"/>
        <pt x="410" y="288" on="0"/>
        <pt x="360" y="355" on="0"/>
        <pt x="292" y="355" on="1"/>
      </contour>
    </TTGlyph>
    <TTGlyph name="afii10019" xMin="71" yMin="-10" xMax="538" yMax="710">
      <contour>
        <pt x="415" y="373" on="1"/>
        <pt x="472" y="356" on="0"/>
        <pt x="505" y="258" on="0"/>
        <pt x="493" y="190" on="1"/>
        <pt x="484" y="137" on="0"/>
        <pt x="446" y="62" on="0"/>
        <pt x="383" y="13" on="0"/>
        <pt x="292" y="-10" on="0"/>
        <pt x="228" y="-10" on="1"/>
        <pt x="183" y="-10" on="0"/>
        <pt x="107" y="-1" on="0"/>
        <pt x="71" y="10" on="1"/>
        <pt x="191" y="690" on="1"/>
        <pt x="231" y="701" on="0"/>
        <pt x="310" y="710" on="0"/>
        <pt x="355" y="710" on="1"/>
        <pt x="460" y="710" on="0"/>
        <pt x="538" y="619" on="0"/>
        <pt x="522" y="525" on="1"/>
        <pt x="514" y="480" on="0"/>
        <pt x="466" y="402" on="0"/>
        <pt x="416" y="377" on="1"/>
      </contour>
      <contour>
        <pt x="219" y="335" on="1"/>
        <pt x="169" y="55" on="1"/>
        <pt x="239" y="55" on="1"/>
        <pt x="314" y="55" on="0"/>
        <pt x="390" y="118" on="0"/>
        <pt x="403" y="190" on="1"/>
        <pt x="417" y="269" on="0"/>
        <pt x="364" y="335" on="0"/>
        <pt x="289" y="335" on="1"/>
      </contour>
      <contour>
        <pt x="290" y="400" on="1"/>
        <pt x="410" y="400" on="0"/>
        <pt x="432" y="525" on="1"/>
        <pt x="453" y="645" on="0"/>
        <pt x="333" y="645" on="1"/>
        <pt x="273" y="645" on="1"/>
        <pt x="230" y="400" on="1"/>
      </contour>
    </TTGlyph>
    <TTGlyph name="afii10020" xMin="70" yMin="0" xMax="513" yMax="700">
      <contour>
        <pt x="193" y="700" on="1"/>
        <pt x="513" y="700" on="1"/>
        <pt x="501" y="630" on="1"/>
        <pt x="271" y="630" on="1"/>
        <pt x="160" y="0" on="1"/>
        <pt x="70" y="0" on="1"/>
      </contour>
    </TTGlyph>
    <TTGlyph name="afii10021" xMin="-16" yMin="-150" xMax="578" yMax="700">
      <contour>
        <pt x="377" y="70" on="1"/>
        <pt x="476" y="630" on="1"/>
        <pt x="328" y="630" on="1"/>
        <pt x="248" y="275" on="1"/>
        <pt x="237" y="224" on="0"/>
        <pt x="208" y="148" on="0"/>
        <pt x="194" y="122" on="1"/>
        <pt x="178" y="92" on="0"/>
        <pt x="162" y="70" on="1"/>
      </contour>
      <contour>
        <pt x="95" y="0" on="1"/>
        <pt x="71" y="-90" on="0"/>
        <pt x="38" y="-150" on="1"/>
        <pt x="-16" y="-150" on="1"/>
        <pt x="22" y="70" on="1"/>
        <pt x="72" y="70" on="1"/>
        <pt x="88" y="92" on="0"/>
        <pt x="104" y="122" on="1"/>
        <pt x="118" y="148" on="0"/>
        <pt x="147" y="224" on="0"/>
        <pt x="158" y="275" on="1"/>
        <pt x="253" y="700" on="1"/>
        <pt x="578" y="700" on="1"/>
        <pt x="467" y="70" on="1"/>
        <pt x="532" y="70" on="1"/>
        <pt x="493" y="-150" on="1"/>
        <pt x="438" y="-150" on="1"/>
        <pt x="426" y="-90" on="0"/>
        <pt x="435" y="0" on="1"/>
      </contour>
    </TTGlyph>
    <TTGlyph name="afii10022" xMin="70" yMin="0" xMax="533" yMax="700">
      <contour>
        <pt x="172" y="70" on="1"/>
        <pt x="422" y="70" on="1"/>
        <pt x="410" y="0" on="1"/>
        <pt x="70" y="0" on="1"/>
        <pt x="193" y="700" on="1"/>
        <pt x="533" y="700" on="1"/>
        <pt x="521" y="630" on="1"/>
        <pt x="271" y="630" on="1"/>
        <pt x="230" y="400" on="1"/>
        <pt x="450" y="400" on="1"/>
        <pt x="438" y="330" on="1"/>
        <pt x="218" y="330" on="1"/>
      </contour>
    </TTGlyph>
    <TTGlyph name="afii10023" xMin="70" yMin="0" xMax="533" yMax="880">
      <contour>
        <pt x="172" y="70" on="1"/>
        <pt x="422" y="70" on="1"/>
        <pt x="410" y="0" on="1"/>
        <pt x="70" y="0" on="1"/>
        <pt x="193" y="700" on="1"/>
        <pt x="533" y="700" on="1"/>
        <pt x="521" y="630" on="1"/>
        <pt x="271" y="630" on="1"/>
        <pt x="230" y="400" on="1"/>
        <pt x="450" y="400" on="1"/>
        <pt x="438" y="330" on="1"/>
        <pt x="218" y="330" on="1"/>
      </contour>
      <contour>
        <pt x="355" y="880" on="1"/>
        <pt x="335" y="770" on="1"/>
        <pt x="245" y="770" on="1"/>
        <pt x="265" y="880" on="1"/>
      </contour>
      <contour>
        <pt x="515" y="880" on="1"/>
        <pt x="495" y="770" on="1"/>
        <pt x="405" y="770" on="1"/>
        <pt x="425" y="880" on="1"/>
      </contour>
    </TTGlyph>
    <TTGlyph name="afii10024" xMin="5" yMin="-10" xMax="848" yMax="710">
      <contour>
        <pt x="274" y="367" on="1"/>
        <pt x="258" y="372" on="0"/>
        <pt x="235" y="388" on="0"/>
        <pt x="218" y="416" on="0"/>
        <pt x="208" y="459" on="0"/>
        <pt x="206" y="490" on="1"/>
        <pt x="199" y="590" on="1"/>
        <pt x="197" y="620" on="0"/>
        <pt x="168" y="655" on="0"/>
        <pt x="130" y="655" on="1"/>
        <pt x="138" y="700" on="1"/>
        <pt x="146" y="702" on="0"/>
        <pt x="156" y="705" on="1"/>
        <pt x="164" y="707" on="0"/>
        <pt x="186" y="710" on="0"/>
        <pt x="200" y="710" on="1"/>
        <pt x="285" y="710" on="0"/>
        <pt x="294" y="590" on="1"/>
        <pt x="301" y="490" on="1"/>
        <pt x="305" y="438" on="0"/>
        <pt x="344" y="400" on="0"/>
        <pt x="370" y="400" on="1"/>
        <pt x="395" y="400" on="1"/>
        <pt x="448" y="700" on="1"/>
        <pt x="538" y="700" on="1"/>
        <pt x="485" y="400" on="1"/>
        <pt x="510" y="400" on="1"/>
        <pt x="536" y="400" on="0"/>
        <pt x="589" y="438" on="0"/>
        <pt x="611" y="490" on="1"/>
        <pt x="654" y="590" on="1"/>
        <pt x="705" y="710" on="0"/>
        <pt x="790" y="710" on="1"/>
        <pt x="803" y="710" on="0"/>
        <pt x="824" y="707" on="0"/>
        <pt x="832" y="705" on="1"/>
        <pt x="841" y="702" on="0"/>
        <pt x="848" y="700" on="1"/>
        <pt x="840" y="655" on="1"/>
        <pt x="802" y="655" on="0"/>
        <pt x="762" y="620" on="0"/>
        <pt x="749" y="590" on="1"/>
        <pt x="706" y="490" on="1"/>
        <pt x="692" y="459" on="0"/>
        <pt x="668" y="416" on="0"/>
        <pt x="641" y="388" on="0"/>
        <pt x="612" y="372" on="0"/>
        <pt x="594" y="367" on="1"/>
        <pt x="594" y="363" on="1"/>
        <pt x="612" y="358" on="0"/>
        <pt x="640" y="342" on="0"/>
        <pt x="660" y="314" on="0"/>
        <pt x="672" y="271" on="0"/>
        <pt x="672" y="240" on="1"/>
        <pt x="674" y="110" on="1"/>
        <pt x="675" y="84" on="0"/>
        <pt x="704" y="45" on="0"/>
        <pt x="742" y="45" on="1"/>
        <pt x="735" y="0" on="1"/>
        <pt x="727" y="-3" on="0"/>
        <pt x="717" y="-5" on="1"/>
        <pt x="699" y="-10" on="0"/>
        <pt x="673" y="-10" on="1"/>
        <pt x="628" y="-10" on="0"/>
        <pt x="580" y="50" on="0"/>
        <pt x="579" y="110" on="1"/>
        <pt x="577" y="240" on="1"/>
        <pt x="576" y="293" on="0"/>
        <pt x="532" y="330" on="0"/>
        <pt x="498" y="330" on="1"/>
        <pt x="473" y="330" on="1"/>
        <pt x="415" y="0" on="1"/>
        <pt x="325" y="0" on="1"/>
        <pt x="383" y="330" on="1"/>
        <pt x="358" y="330" on="1"/>
        <pt x="324" y="330" on="0"/>
        <pt x="266" y="293" on="0"/>
        <pt x="247" y="240" on="1"/>
        <pt x="199" y="110" on="1"/>
        <pt x="155" y="-10" on="0"/>
        <pt x="63" y="-10" on="1"/>
        <pt x="38" y="-10" on="0"/>
        <pt x="21" y="-5" on="1"/>
        <pt x="12" y="-3" on="0"/>
        <pt x="5" y="0" on="1"/>
        <pt x="12" y="45" on="1"/>
        <pt x="50" y="45" on="0"/>
        <pt x="94" y="84" on="0"/>
        <pt x="104" y="110" on="1"/>
        <pt x="152" y="240" on="1"/>
        <pt x="164" y="271" on="0"/>
        <pt x="190" y="314" on="0"/>
        <pt x="220" y="342" on="0"/>
        <pt x="254" y="358" on="0"/>
        <pt x="274" y="363" on="1"/>
      </contour>
    </TTGlyph>
    <TTGlyph name="afii10025" xMin="16" yMin="-10" xMax="465" yMax="710">
      <contour>
        <pt x="164" y="55" on="1"/>
        <pt x="239" y="55" on="0"/>
        <pt x="315" y="118" on="0"/>
        <pt x="328" y="190" on="1"/>
        <pt x="342" y="265" on="0"/>
        <pt x="288" y="330" on="0"/>
        <pt x="213" y="330" on="1"/>
        <pt x="143" y="330" on="1"/>
        <pt x="155" y="400" on="1"/>
        <pt x="215" y="400" on="1"/>
        <pt x="283" y="400" on="0"/>
        <pt x="356" y="461" on="0"/>
        <pt x="367" y="525" on="1"/>
        <pt x="378" y="585" on="0"/>
        <pt x="326" y="645" on="0"/>
        <pt x="258" y="645" on="1"/>
        <pt x="138" y="645" on="1"/>
        <pt x="146" y="690" on="1"/>
        <pt x="158" y="694" on="0"/>
        <pt x="192" y="701" on="0"/>
        <pt x="228" y="707" on="0"/>
        <pt x="265" y="710" on="0"/>
        <pt x="280" y="710" on="1"/>
        <pt x="336" y="710" on="0"/>
        <pt x="412" y="687" on="0"/>
        <pt x="454" y="641" on="0"/>
        <pt x="465" y="572" on="0"/>
        <pt x="457" y="525" on="1"/>
        <pt x="446" y="465" on="0"/>
        <pt x="389" y="393" on="0"/>
        <pt x="340" y="372" on="1"/>
        <pt x="339" y="368" on="1"/>
        <pt x="367" y="359" on="0"/>
        <pt x="404" y="325" on="0"/>
        <pt x="422" y="279" on="0"/>
        <pt x="424" y="222" on="0"/>
        <pt x="418" y="190" on="1"/>
        <pt x="409" y="137" on="0"/>
        <pt x="371" y="62" on="0"/>
        <pt x="308" y="13" on="0"/>
        <pt x="217" y="-10" on="0"/>
        <pt x="153" y="-10" on="1"/>
        <pt x="115" y="-10" on="0"/>
        <pt x="38" y="2" on="0"/>
        <pt x="16" y="10" on="1"/>
        <pt x="24" y="55" on="1"/>
      </contour>
    </TTGlyph>
    <TTGlyph name="afii10026" xMin="70" yMin="0" xMax="593" yMax="700">
      <contour>
        <pt x="471" y="520" on="1"/>
        <pt x="466" y="520" on="1"/>
        <pt x="170" y="0" on="1"/>
        <pt x="70" y="0" on="1"/>
        <pt x="193" y="700" on="1"/>
        <pt x="283" y="700" on="1"/>
        <pt x="191" y="180" on="1"/>
        <pt x="196" y="180" on="1"/>
        <pt x="488" y="700" on="1"/>
        <pt x="593" y="700" on="1"/>
        <pt x="470" y="0" on="1"/>
        <pt x="380" y="0" on="1"/>
      </contour>
    </TTGlyph>
    <TTGlyph name="afii10027" xMin="70" yMin="0" xMax="593" yMax="875">
      <contour>
        <pt x="471" y="520" on="1"/>
        <pt x="466" y="520" on="1"/>
        <pt x="170" y="0" on="1"/>
        <pt x="70" y="0" on="1"/>
        <pt x="193" y="700" on="1"/>
        <pt x="283" y="700" on="1"/>
        <pt x="191" y="180" on="1"/>
        <pt x="196" y="180" on="1"/>
        <pt x="488" y="700" on="1"/>
        <pt x="593" y="700" on="1"/>
        <pt x="470" y="0" on="1"/>
        <pt x="380" y="0" on="1"/>
      </contour>
      <contour>
        <pt x="416" y="830" on="1"/>
        <pt x="450" y="830" on="0"/>
        <pt x="506" y="860" on="0"/>
        <pt x="524" y="875" on="1"/>
        <pt x="557" y="835" on="1"/>
        <pt x="532" y="801" on="0"/>
        <pt x="453" y="760" on="0"/>
        <pt x="404" y="760" on="1"/>
        <pt x="355" y="760" on="0"/>
        <pt x="290" y="801" on="0"/>
        <pt x="277" y="835" on="1"/>
        <pt x="324" y="875" on="1"/>
        <pt x="336" y="860" on="0"/>
        <pt x="382" y="830" on="0"/>
      </contour>
    </TTGlyph>
    <TTGlyph name="afii10028" xMin="70" yMin="-10" xMax="603" yMax="710">
      <contour>
        <pt x="349" y="363" on="1"/>
        <pt x="367" y="358" on="0"/>
        <pt x="395" y="342" on="0"/>
        <pt x="415" y="314" on="0"/>
        <pt x="427" y="271" on="0"/>
        <pt x="427" y="240" on="1"/>
        <pt x="429" y="110" on="1"/>
        <pt x="430" y="84" on="0"/>
        <pt x="459" y="45" on="0"/>
        <pt x="497" y="45" on="1"/>
        <pt x="490" y="0" on="1"/>
        <pt x="482" y="-3" on="0"/>
        <pt x="472" y="-5" on="1"/>
        <pt x="454" y="-10" on="0"/>
        <pt x="428" y="-10" on="1"/>
        <pt x="383" y="-10" on="0"/>
        <pt x="335" y="50" on="0"/>
        <pt x="334" y="110" on="1"/>
        <pt x="332" y="240" on="1"/>
        <pt x="331" y="293" on="0"/>
        <pt x="287" y="330" on="0"/>
        <pt x="253" y="330" on="1"/>
        <pt x="218" y="330" on="1"/>
        <pt x="160" y="0" on="1"/>
        <pt x="70" y="0" on="1"/>
        <pt x="193" y="700" on="1"/>
        <pt x="283" y="700" on="1"/>
        <pt x="230" y="400" on="1"/>
        <pt x="265" y="400" on="1"/>
        <pt x="291" y="400" on="0"/>
        <pt x="344" y="438" on="0"/>
        <pt x="366" y="490" on="1"/>
        <pt x="409" y="590" on="1"/>
        <pt x="460" y="710" on="0"/>
        <pt x="545" y="710" on="1"/>
        <pt x="558" y="710" on="0"/>
        <pt x="579" y="707" on="0"/>
        <pt x="587" y="705" on="1"/>
        <pt x="596" y="702" on="0"/>
        <pt x="603" y="700" on="1"/>
        <pt x="595" y="655" on="1"/>
        <pt x="557" y="655" on="0"/>
        <pt x="517" y="620" on="0"/>
        <pt x="504" y="590" on="1"/>
        <pt x="461" y="490" on="1"/>
        <pt x="447" y="459" on="0"/>
        <pt x="423" y="416" on="0"/>
        <pt x="396" y="388" on="0"/>
        <pt x="367" y="372" on="0"/>
        <pt x="349" y="367" on="1"/>
      </contour>
    </TTGlyph>
    <TTGlyph name="afii10029" xMin="0" yMin="-10" xMax="583" yMax="700">
      <contour>
        <pt x="58" y="-10" on="1"/>
        <pt x="33" y="-10" on="0"/>
        <pt x="16" y="-5" on="1"/>
        <pt x="7" y="-3" on="0"/>
        <pt x="0" y="0" on="1"/>
        <pt x="7" y="45" on="1"/>
        <pt x="28" y="45" on="0"/>
        <pt x="65" y="61" on="0"/>
        <pt x="98" y="100" on="0"/>
        <pt x="126" y="163" on="0"/>
        <pt x="137" y="210" on="1"/>
        <pt x="248" y="700" on="1"/>
        <pt x="583" y="700" on="1"/>
        <pt x="460" y="0" on="1"/>
        <pt x="370" y="0" on="1"/>
        <pt x="481" y="630" on="1"/>
        <pt x="323" y="630" on="1"/>
        <pt x="227" y="210" on="1"/>
        <pt x="213" y="150" on="0"/>
        <pt x="175" y="66" on="0"/>
        <pt x="131" y="14" on="0"/>
        <pt x="82" y="-10" on="0"/>
      </contour>
    </TTGlyph>
    <TTGlyph name="afii10030" xMin="55" yMin="0" xMax="768" yMax="700">
      <contour>
        <pt x="340" y="90" on="1"/>
        <pt x="271" y="520" on="1"/>
        <pt x="266" y="520" on="1"/>
        <pt x="145" y="0" on="1"/>
        <pt x="55" y="0" on="1"/>
        <pt x="218" y="700" on="1"/>
        <pt x="328" y="700" on="1"/>
        <pt x="406" y="220" on="1"/>
        <pt x="410" y="220" on="1"/>
        <pt x="658" y="700" on="1"/>
        <pt x="768" y="700" on="1"/>
        <pt x="685" y="0" on="1"/>
        <pt x="595" y="0" on="1"/>
        <pt x="656" y="520" on="1"/>
        <pt x="651" y="520" on="1"/>
        <pt x="430" y="90" on="1"/>
      </contour>
    </TTGlyph>
    <TTGlyph name="afii10031" xMin="70" yMin="0" xMax="583" yMax="700">
      <contour>
        <pt x="583" y="700" on="1"/>
        <pt x="460" y="0" on="1"/>
        <pt x="370" y="0" on="1"/>
        <pt x="426" y="320" on="1"/>
        <pt x="216" y="320" on="1"/>
        <pt x="160" y="0" on="1"/>
        <pt x="70" y="0" on="1"/>
        <pt x="193" y="700" on="1"/>
        <pt x="283" y="700" on="1"/>
        <pt x="228" y="390" on="1"/>
        <pt x="438" y="390" on="1"/>
        <pt x="493" y="700" on="1"/>
      </contour>
    </TTGlyph>
    <TTGlyph name="afii10032" xMin="93" yMin="-10" xMax="560" yMax="710">
      <contour>
        <pt x="390" y="710" on="1"/>
        <pt x="441" y="710" on="0"/>
        <pt x="515" y="676" on="0"/>
        <pt x="555" y="594" on="0"/>
        <pt x="560" y="455" on="0"/>
        <pt x="541" y="350" on="1"/>
        <pt x="523" y="245" on="0"/>
        <pt x="469" y="106" on="0"/>
        <pt x="399" y="24" on="0"/>
        <pt x="314" y="-10" on="0"/>
        <pt x="263" y="-10" on="1"/>
        <pt x="212" y="-10" on="0"/>
        <pt x="138" y="24" on="0"/>
        <pt x="98" y="106" on="0"/>
        <pt x="93" y="245" on="0"/>
        <pt x="111" y="350" on="1"/>
        <pt x="130" y="455" on="0"/>
        <pt x="184" y="594" on="0"/>
        <pt x="254" y="676" on="0"/>
        <pt x="339" y="710" on="0"/>
      </contour>
      <contour>
        <pt x="273" y="50" on="1"/>
        <pt x="297" y="50" on="0"/>
        <pt x="347" y="76" on="0"/>
        <pt x="394" y="144" on="0"/>
        <pt x="435" y="260" on="0"/>
        <pt x="451" y="350" on="1"/>
        <pt x="467" y="440" on="0"/>
        <pt x="467" y="556" on="0"/>
        <pt x="444" y="624" on="0"/>
        <pt x="403" y="650" on="0"/>
        <pt x="379" y="650" on="1"/>
        <pt x="355" y="650" on="0"/>
        <pt x="305" y="624" on="0"/>
        <pt x="258" y="556" on="0"/>
        <pt x="217" y="440" on="0"/>
        <pt x="201" y="350" on="1"/>
        <pt x="185" y="260" on="0"/>
        <pt x="186" y="144" on="0"/>
        <pt x="208" y="76" on="0"/>
        <pt x="249" y="50" on="0"/>
      </contour>
    </TTGlyph>
    <TTGlyph name="afii10033" xMin="70" yMin="0" xMax="583" yMax="700">
      <contour>
        <pt x="583" y="700" on="1"/>
        <pt x="460" y="0" on="1"/>
        <pt x="370" y="0" on="1"/>
        <pt x="481" y="630" on="1"/>
        <pt x="271" y="630" on="1"/>
        <pt x="160" y="0" on="1"/>
        <pt x="70" y="0" on="1"/>
        <pt x="193" y="700" on="1"/>
      </contour>
    </TTGlyph>
    <TTGlyph name="afii10034" xMin="70" yMin="0" xMax="543" yMax="710">
      <contour>
        <pt x="278" y="275" on="1"/>
        <pt x="312" y="275" on="0"/>
        <pt x="364" y="292" on="0"/>
        <pt x="403" y="334" on="0"/>
        <pt x="431" y="406" on="0"/>
        <pt x="441" y="460" on="1"/>
        <pt x="450" y="514" on="0"/>
        <pt x="447" y="586" on="0"/>
        <pt x="423" y="628" on="0"/>
        <pt x="377" y="645" on="0"/>
        <pt x="343" y="645" on="1"/>
        <pt x="273" y="645" on="1"/>
        <pt x="208" y="275" on="1"/>
      </contour>
      <contour>
        <pt x="160" y="0" on="1"/>
        <pt x="70" y="0" on="1"/>
        <pt x="191" y="690" on="1"/>
        <pt x="231" y="701" on="0"/>
        <pt x="310" y="710" on="0"/>
        <pt x="355" y="710" on="1"/>
        <pt x="415" y="710" on="0"/>
        <pt x="494" y="685" on="0"/>
        <pt x="536" y="627" on="0"/>
        <pt x="543" y="531" on="0"/>
        <pt x="531" y="460" on="1"/>
        <pt x="518" y="387" on="0"/>
        <pt x="478" y="289" on="0"/>
        <pt x="421" y="230" on="0"/>
        <pt x="345" y="205" on="0"/>
        <pt x="296" y="205" on="1"/>
        <pt x="273" y="205" on="0"/>
        <pt x="216" y="211" on="0"/>
        <pt x="197" y="215" on="1"/>
      </contour>
    </TTGlyph>
    <TTGlyph name="afii10035" xMin="93" yMin="-10" xMax="531" yMax="710">
      <contour>
        <pt x="268" y="-10" on="1"/>
        <pt x="215" y="-10" on="0"/>
        <pt x="140" y="24" on="0"/>
        <pt x="98" y="106" on="0"/>
        <pt x="93" y="245" on="0"/>
        <pt x="111" y="350" on="1"/>
        <pt x="130" y="455" on="0"/>
        <pt x="183" y="594" on="0"/>
        <pt x="252" y="676" on="0"/>
        <pt x="336" y="710" on="0"/>
        <pt x="385" y="710" on="1"/>
        <pt x="430" y="710" on="0"/>
        <pt x="510" y="698" on="0"/>
        <pt x="531" y="690" on="1"/>
        <pt x="523" y="645" on="1"/>
        <pt x="393" y="645" on="1"/>
        <pt x="363" y="645" on="0"/>
        <pt x="307" y="619" on="0"/>
        <pt x="258" y="552" on="0"/>
        <pt x="217" y="438" on="0"/>
        <pt x="201" y="350" on="1"/>
        <pt x="186" y="262" on="0"/>
        <pt x="187" y="148" on="0"/>
        <pt x="215" y="81" on="0"/>
        <pt x="265" y="55" on="0"/>
        <pt x="299" y="55" on="1"/>
        <pt x="429" y="55" on="1"/>
        <pt x="421" y="10" on="1"/>
        <pt x="398" y="2" on="0"/>
        <pt x="313" y="-10" on="0"/>
      </contour>
    </TTGlyph>
    <TTGlyph name="afii10036" xMin="121" yMin="0" xMax="543" yMax="700">
      <contour>
        <pt x="133" y="700" on="1"/>
        <pt x="543" y="700" on="1"/>
        <pt x="531" y="630" on="1"/>
        <pt x="371" y="630" on="1"/>
        <pt x="260" y="0" on="1"/>
        <pt x="170" y="0" on="1"/>
        <pt x="281" y="630" on="1"/>
        <pt x="121" y="630" on="1"/>
      </contour>
    </TTGlyph>
    <TTGlyph name="afii10037" xMin="77" yMin="-10" xMax="568" yMax="700">
      <contour>
        <pt x="174" y="-10" on="1"/>
        <pt x="151" y="-10" on="0"/>
        <pt x="99" y="2" on="0"/>
        <pt x="77" y="10" on="1"/>
        <pt x="85" y="55" on="1"/>
        <pt x="155" y="55" on="1"/>
        <pt x="175" y="55" on="0"/>
        <pt x="210" y="68" on="0"/>
        <pt x="242" y="101" on="0"/>
        <pt x="272" y="157" on="0"/>
        <pt x="289" y="200" on="1"/>
        <pt x="226" y="200" on="0"/>
        <pt x="166" y="264" on="0"/>
        <pt x="161" y="320" on="1"/>
        <pt x="123" y="700" on="1"/>
        <pt x="213" y="700" on="1"/>
        <pt x="251" y="320" on="1"/>
        <pt x="257" y="265" on="0"/>
        <pt x="313" y="265" on="1"/>
        <pt x="478" y="700" on="1"/>
        <pt x="568" y="700" on="1"/>
        <pt x="364" y="160" on="1"/>
        <pt x="330" y="70" on="0"/>
        <pt x="241" y="-10" on="0"/>
      </contour>
    </TTGlyph>
    <TTGlyph name="afii10038" xMin="79" yMin="-20" xMax="733" yMax="720">
      <contour>
        <pt x="181" y="350" on="1"/>
        <pt x="171" y="294" on="0"/>
        <pt x="184" y="208" on="0"/>
        <pt x="223" y="149" on="0"/>
        <pt x="283" y="117" on="0"/>
        <pt x="320" y="115" on="1"/>
        <pt x="403" y="585" on="1"/>
        <pt x="365" y="583" on="0"/>
        <pt x="294" y="551" on="0"/>
        <pt x="235" y="492" on="0"/>
        <pt x="191" y="406" on="0"/>
      </contour>
      <contour>
        <pt x="504" y="650" on="1"/>
        <pt x="565" y="646" on="0"/>
        <pt x="657" y="604" on="0"/>
        <pt x="714" y="528" on="0"/>
        <pt x="733" y="419" on="0"/>
        <pt x="721" y="350" on="1"/>
        <pt x="709" y="281" on="0"/>
        <pt x="652" y="172" on="0"/>
        <pt x="568" y="96" on="0"/>
        <pt x="461" y="54" on="0"/>
        <pt x="398" y="50" on="1"/>
        <pt x="386" y="-20" on="1"/>
        <pt x="296" y="-20" on="1"/>
        <pt x="308" y="50" on="1"/>
        <pt x="247" y="54" on="0"/>
        <pt x="155" y="96" on="0"/>
        <pt x="98" y="172" on="0"/>
        <pt x="79" y="281" on="0"/>
        <pt x="91" y="350" on="1"/>
        <pt x="103" y="419" on="0"/>
        <pt x="160" y="528" on="0"/>
        <pt x="244" y="604" on="0"/>
        <pt x="351" y="646" on="0"/>
        <pt x="414" y="650" on="1"/>
        <pt x="426" y="720" on="1"/>
        <pt x="516" y="720" on="1"/>
      </contour>
      <contour>
        <pt x="631" y="350" on="1"/>
        <pt x="641" y="406" on="0"/>
        <pt x="628" y="492" on="0"/>
        <pt x="590" y="551" on="0"/>
        <pt x="530" y="583" on="0"/>
        <pt x="493" y="585" on="1"/>
        <pt x="410" y="115" on="1"/>
        <pt x="448" y="117" on="0"/>
        <pt x="519" y="149" on="0"/>
        <pt x="578" y="208" on="0"/>
        <pt x="621" y="294" on="0"/>
      </contour>
    </TTGlyph>
    <TTGlyph name="afii10039" xMin="15" yMin="0" xMax="553" yMax="700">
      <contour>
        <pt x="463" y="700" on="1"/>
        <pt x="553" y="700" on="1"/>
        <pt x="358" y="360" on="1"/>
        <pt x="445" y="0" on="1"/>
        <pt x="355" y="0" on="1"/>
        <pt x="282" y="300" on="1"/>
        <pt x="105" y="0" on="1"/>
        <pt x="15" y="0" on="1"/>
        <pt x="228" y="360" on="1"/>
        <pt x="153" y="700" on="1"/>
        <pt x="243" y="700" on="1"/>
        <pt x="304" y="420" on="1"/>
      </contour>
    </TTGlyph>
    <TTGlyph name="afii10040" xMin="70" yMin="-150" xMax="573" yMax="700">
      <contour>
        <pt x="70" y="0" on="1"/>
        <pt x="193" y="700" on="1"/>
        <pt x="283" y="700" on="1"/>
        <pt x="172" y="70" on="1"/>
        <pt x="372" y="70" on="1"/>
        <pt x="483" y="700" on="1"/>
        <pt x="573" y="700" on="1"/>
        <pt x="462" y="70" on="1"/>
        <pt x="527" y="70" on="1"/>
        <pt x="488" y="-150" on="1"/>
        <pt x="433" y="-150" on="1"/>
        <pt x="421" y="-90" on="0"/>
        <pt x="430" y="0" on="1"/>
      </contour>
    </TTGlyph>
    <TTGlyph name="afii10041" xMin="112" yMin="0" xMax="558" yMax="700">
      <contour>
        <pt x="280" y="260" on="1"/>
        <pt x="186" y="260" on="0"/>
        <pt x="112" y="353" on="0"/>
        <pt x="130" y="455" on="1"/>
        <pt x="173" y="700" on="1"/>
        <pt x="263" y="700" on="1"/>
        <pt x="220" y="455" on="1"/>
        <pt x="209" y="391" on="0"/>
        <pt x="261" y="330" on="0"/>
        <pt x="333" y="330" on="1"/>
        <pt x="403" y="330" on="1"/>
        <pt x="468" y="700" on="1"/>
        <pt x="558" y="700" on="1"/>
        <pt x="435" y="0" on="1"/>
        <pt x="345" y="0" on="1"/>
        <pt x="392" y="270" on="1"/>
        <pt x="372" y="266" on="0"/>
        <pt x="310" y="260" on="0"/>
      </contour>
    </TTGlyph>
    <TTGlyph name="afii10042" xMin="70" yMin="0" xMax="803" yMax="700">
      <contour>
        <pt x="432" y="70" on="1"/>
        <pt x="602" y="70" on="1"/>
        <pt x="713" y="700" on="1"/>
        <pt x="803" y="700" on="1"/>
        <pt x="680" y="0" on="1"/>
        <pt x="70" y="0" on="1"/>
        <pt x="193" y="700" on="1"/>
        <pt x="283" y="700" on="1"/>
        <pt x="172" y="70" on="1"/>
        <pt x="342" y="70" on="1"/>
        <pt x="453" y="700" on="1"/>
        <pt x="543" y="700" on="1"/>
      </contour>
    </TTGlyph>
    <TTGlyph name="afii10043" xMin="70" yMin="-150" xMax="803" yMax="700">
      <contour>
        <pt x="70" y="0" on="1"/>
        <pt x="193" y="700" on="1"/>
        <pt x="283" y="700" on="1"/>
        <pt x="172" y="70" on="1"/>
        <pt x="342" y="70" on="1"/>
        <pt x="453" y="700" on="1"/>
        <pt x="543" y="700" on="1"/>
        <pt x="432" y="70" on="1"/>
        <pt x="602" y="70" on="1"/>
        <pt x="713" y="700" on="1"/>
        <pt x="803" y="700" on="1"/>
        <pt x="692" y="70" on="1"/>
        <pt x="757" y="70" on="1"/>
        <pt x="718" y="-150" on="1"/>
        <pt x="663" y="-150" on="1"/>
        <pt x="651" y="-90" on="0"/>
        <pt x="660" y="0" on="1"/>
      </contour>
    </TTGlyph>
    <TTGlyph name="afii10044" xMin="131" yMin="-10" xMax="567" yMax="700">
      <contour>
        <pt x="282" y="355" on="1"/>
        <pt x="229" y="55" on="1"/>
        <pt x="299" y="55" on="1"/>
        <pt x="367" y="55" on="0"/>
        <pt x="441" y="122" on="0"/>
        <pt x="456" y="205" on="1"/>
        <pt x="470" y="288" on="0"/>
        <pt x="420" y="355" on="0"/>
        <pt x="352" y="355" on="1"/>
      </contour>
      <contour>
        <pt x="394" y="425" on="1"/>
        <pt x="491" y="425" on="0"/>
        <pt x="567" y="325" on="0"/>
        <pt x="546" y="205" on="1"/>
        <pt x="535" y="147" on="0"/>
        <pt x="497" y="65" on="0"/>
        <pt x="436" y="14" on="0"/>
        <pt x="348" y="-10" on="0"/>
        <pt x="288" y="-10" on="1"/>
        <pt x="243" y="-10" on="0"/>
        <pt x="167" y="-1" on="0"/>
        <pt x="131" y="10" on="1"/>
        <pt x="241" y="630" on="1"/>
        <pt x="131" y="630" on="1"/>
        <pt x="143" y="700" on="1"/>
        <pt x="343" y="700" on="1"/>
        <pt x="293" y="415" on="1"/>
        <pt x="313" y="419" on="0"/>
        <pt x="371" y="425" on="0"/>
      </contour>
    </TTGlyph>
    <TTGlyph name="afii10045" xMin="71" yMin="-10" xMax="743" yMax="700">
      <contour>
        <pt x="743" y="700" on="1"/>
        <pt x="620" y="0" on="1"/>
        <pt x="530" y="0" on="1"/>
        <pt x="653" y="700" on="1"/>
      </contour>
      <contour>
        <pt x="222" y="355" on="1"/>
        <pt x="169" y="55" on="1"/>
        <pt x="239" y="55" on="1"/>
        <pt x="303" y="55" on="0"/>
        <pt x="376" y="122" on="0"/>
        <pt x="391" y="205" on="1"/>
        <pt x="405" y="288" on="0"/>
        <pt x="356" y="355" on="0"/>
        <pt x="292" y="355" on="1"/>
      </contour>
      <contour>
        <pt x="334" y="425" on="1"/>
        <pt x="428" y="425" on="0"/>
        <pt x="502" y="325" on="0"/>
        <pt x="481" y="205" on="1"/>
        <pt x="470" y="147" on="0"/>
        <pt x="432" y="65" on="0"/>
        <pt x="372" y="14" on="0"/>
        <pt x="286" y="-10" on="0"/>
        <pt x="228" y="-10" on="1"/>
        <pt x="183" y="-10" on="0"/>
        <pt x="107" y="-1" on="0"/>
        <pt x="71" y="10" on="1"/>
        <pt x="193" y="700" on="1"/>
        <pt x="283" y="700" on="1"/>
        <pt x="233" y="415" on="1"/>
        <pt x="253" y="419" on="0"/>
        <pt x="311" y="425" on="0"/>
      </contour>
    </TTGlyph>
    <TTGlyph name="afii10046" xMin="71" yMin="-10" xMax="507" yMax="700">
      <contour>
        <pt x="222" y="355" on="1"/>
        <pt x="169" y="55" on="1"/>
        <pt x="239" y="55" on="1"/>
        <pt x="307" y="55" on="0"/>
        <pt x="381" y="122" on="0"/>
        <pt x="396" y="205" on="1"/>
        <pt x="410" y="288" on="0"/>
        <pt x="360" y="355" on="0"/>
        <pt x="292" y="355" on="1"/>
      </contour>
      <contour>
        <pt x="334" y="425" on="1"/>
        <pt x="431" y="425" on="0"/>
        <pt x="507" y="325" on="0"/>
        <pt x="486" y="205" on="1"/>
        <pt x="475" y="147" on="0"/>
        <pt x="437" y="65" on="0"/>
        <pt x="376" y="14" on="0"/>
        <pt x="288" y="-10" on="0"/>
        <pt x="228" y="-10" on="1"/>
        <pt x="183" y="-10" on="0"/>
        <pt x="107" y="-1" on="0"/>
        <pt x="71" y="10" on="1"/>
        <pt x="193" y="700" on="1"/>
        <pt x="283" y="700" on="1"/>
        <pt x="233" y="415" on="1"/>
        <pt x="253" y="419" on="0"/>
        <pt x="311" y="425" on="0"/>
      </contour>
    </TTGlyph>
    <TTGlyph name="afii10047" xMin="16" yMin="-10" xMax="465" yMax="710">
      <contour>
        <pt x="154" y="395" on="1"/>
        <pt x="364" y="395" on="1"/>
        <pt x="375" y="466" on="0"/>
        <pt x="369" y="562" on="0"/>
        <pt x="341" y="620" on="0"/>
        <pt x="296" y="645" on="0"/>
        <pt x="268" y="645" on="1"/>
        <pt x="138" y="645" on="1"/>
        <pt x="146" y="690" on="1"/>
        <pt x="170" y="698" on="0"/>
        <pt x="255" y="710" on="0"/>
        <pt x="300" y="710" on="1"/>
        <pt x="349" y="710" on="0"/>
        <pt x="421" y="676" on="0"/>
        <pt x="460" y="594" on="0"/>
        <pt x="465" y="455" on="0"/>
        <pt x="446" y="350" on="1"/>
        <pt x="428" y="245" on="0"/>
        <pt x="374" y="106" on="0"/>
        <pt x="303" y="24" on="0"/>
        <pt x="215" y="-10" on="0"/>
        <pt x="163" y="-10" on="1"/>
        <pt x="118" y="-10" on="0"/>
        <pt x="38" y="2" on="0"/>
        <pt x="16" y="10" on="1"/>
        <pt x="24" y="55" on="1"/>
        <pt x="154" y="55" on="1"/>
        <pt x="188" y="55" on="0"/>
        <pt x="246" y="80" on="0"/>
        <pt x="296" y="142" on="0"/>
        <pt x="336" y="246" on="0"/>
        <pt x="352" y="325" on="1"/>
        <pt x="142" y="325" on="1"/>
      </contour>
    </TTGlyph>
    <TTGlyph name="afii10048" xMin="70" yMin="-10" xMax="735" yMax="710">
      <contour>
        <pt x="216" y="320" on="1"/>
        <pt x="160" y="0" on="1"/>
        <pt x="70" y="0" on="1"/>
        <pt x="193" y="700" on="1"/>
        <pt x="283" y="700" on="1"/>
        <pt x="228" y="390" on="1"/>
        <pt x="303" y="390" on="1"/>
        <pt x="325" y="482" on="0"/>
        <pt x="378" y="605" on="0"/>
        <pt x="444" y="679" on="0"/>
        <pt x="523" y="710" on="0"/>
        <pt x="570" y="710" on="1"/>
        <pt x="619" y="710" on="0"/>
        <pt x="691" y="676" on="0"/>
        <pt x="730" y="594" on="0"/>
        <pt x="735" y="455" on="0"/>
        <pt x="716" y="350" on="1"/>
        <pt x="698" y="245" on="0"/>
        <pt x="644" y="106" on="0"/>
        <pt x="575" y="24" on="0"/>
        <pt x="492" y="-10" on="0"/>
        <pt x="443" y="-10" on="1"/>
        <pt x="396" y="-10" on="0"/>
        <pt x="328" y="21" on="0"/>
        <pt x="289" y="97" on="0"/>
        <pt x="280" y="224" on="0"/>
        <pt x="291" y="320" on="1"/>
      </contour>
      <contour>
        <pt x="453" y="50" on="1"/>
        <pt x="475" y="50" on="0"/>
        <pt x="523" y="76" on="0"/>
        <pt x="569" y="144" on="0"/>
        <pt x="610" y="260" on="0"/>
        <pt x="626" y="350" on="1"/>
        <pt x="642" y="440" on="0"/>
        <pt x="642" y="556" on="0"/>
        <pt x="620" y="624" on="0"/>
        <pt x="581" y="650" on="0"/>
        <pt x="559" y="650" on="1"/>
        <pt x="536" y="650" on="0"/>
        <pt x="489" y="624" on="0"/>
        <pt x="443" y="556" on="0"/>
        <pt x="402" y="440" on="0"/>
        <pt x="386" y="350" on="1"/>
        <pt x="370" y="260" on="0"/>
        <pt x="370" y="144" on="0"/>
        <pt x="392" y="76" on="0"/>
        <pt x="430" y="50" on="0"/>
      </contour>
    </TTGlyph>
    <TTGlyph name="afii10049" xMin="10" yMin="-10" xMax="551" yMax="710">
      <contour>
        <pt x="402" y="355" on="1"/>
        <pt x="453" y="645" on="1"/>
        <pt x="383" y="645" on="1"/>
        <pt x="315" y="645" on="0"/>
        <pt x="242" y="579" on="0"/>
        <pt x="228" y="500" on="1"/>
        <pt x="214" y="421" on="0"/>
        <pt x="264" y="355" on="0"/>
        <pt x="332" y="355" on="1"/>
      </contour>
      <contour>
        <pt x="239" y="310" on="1"/>
        <pt x="215" y="314" on="0"/>
        <pt x="172" y="340" on="0"/>
        <pt x="142" y="387" on="0"/>
        <pt x="130" y="455" on="0"/>
        <pt x="138" y="500" on="1"/>
        <pt x="148" y="556" on="0"/>
        <pt x="185" y="636" on="0"/>
        <pt x="247" y="687" on="0"/>
        <pt x="335" y="710" on="0"/>
        <pt x="395" y="710" on="1"/>
        <pt x="440" y="710" on="0"/>
        <pt x="516" y="701" on="0"/>
        <pt x="551" y="690" on="1"/>
        <pt x="430" y="0" on="1"/>
        <pt x="340" y="0" on="1"/>
        <pt x="390" y="285" on="1"/>
        <pt x="350" y="285" on="1"/>
        <pt x="320" y="285" on="0"/>
        <pt x="261" y="247" on="0"/>
        <pt x="239" y="195" on="1"/>
        <pt x="204" y="110" on="1"/>
        <pt x="153" y="-10" on="0"/>
        <pt x="68" y="-10" on="1"/>
        <pt x="46" y="-10" on="0"/>
        <pt x="28" y="-5" on="1"/>
        <pt x="18" y="-3" on="0"/>
        <pt x="10" y="0" on="1"/>
        <pt x="17" y="45" on="1"/>
        <pt x="55" y="45" on="0"/>
        <pt x="96" y="80" on="0"/>
        <pt x="109" y="110" on="1"/>
        <pt x="144" y="195" on="1"/>
        <pt x="164" y="244" on="0"/>
        <pt x="211" y="298" on="0"/>
        <pt x="238" y="306" on="1"/>
      </contour>
    </TTGlyph>
    <TTGlyph name="afii10050" xMin="70" yMin="0" xMax="528" yMax="785">
      <contour>
        <pt x="193" y="700" on="1"/>
        <pt x="441" y="700" on="1"/>
        <pt x="463" y="785" on="1"/>
        <pt x="528" y="785" on="1"/>
        <pt x="501" y="630" on="1"/>
        <pt x="271" y="630" on="1"/>
        <pt x="160" y="0" on="1"/>
        <pt x="70" y="0" on="1"/>
      </contour>
    </TTGlyph>
    <TTGlyph name="afii10051" xMin="111" yMin="-10" xMax="571" yMax="700">
      <contour>
        <pt x="463" y="245" on="1"/>
        <pt x="474" y="309" on="0"/>
        <pt x="422" y="370" on="0"/>
        <pt x="350" y="370" on="1"/>
        <pt x="280" y="370" on="1"/>
        <pt x="215" y="0" on="1"/>
        <pt x="125" y="0" on="1"/>
        <pt x="236" y="630" on="1"/>
        <pt x="111" y="630" on="1"/>
        <pt x="123" y="700" on="1"/>
        <pt x="483" y="700" on="1"/>
        <pt x="471" y="630" on="1"/>
        <pt x="326" y="630" on="1"/>
        <pt x="290" y="430" on="1"/>
        <pt x="310" y="434" on="0"/>
        <pt x="372" y="440" on="0"/>
        <pt x="402" y="440" on="1"/>
        <pt x="496" y="440" on="0"/>
        <pt x="571" y="347" on="0"/>
        <pt x="553" y="245" on="1"/>
        <pt x="538" y="160" on="1"/>
        <pt x="522" y="69" on="0"/>
        <pt x="436" y="-10" on="0"/>
        <pt x="368" y="-10" on="1"/>
        <pt x="353" y="-10" on="0"/>
        <pt x="315" y="-1" on="0"/>
        <pt x="301" y="10" on="1"/>
        <pt x="308" y="50" on="1"/>
        <pt x="358" y="50" on="1"/>
        <pt x="388" y="50" on="0"/>
        <pt x="437" y="100" on="0"/>
        <pt x="448" y="160" on="1"/>
      </contour>
    </TTGlyph>
    <TTGlyph name="afii10052" xMin="70" yMin="0" xMax="513" yMax="880">
      <contour>
        <pt x="193" y="700" on="1"/>
        <pt x="513" y="700" on="1"/>
        <pt x="501" y="630" on="1"/>
        <pt x="271" y="630" on="1"/>
        <pt x="160" y="0" on="1"/>
        <pt x="70" y="0" on="1"/>
      </contour>
      <contour>
        <pt x="322" y="750" on="1"/>
        <pt x="380" y="880" on="1"/>
        <pt x="475" y="880" on="1"/>
        <pt x="382" y="750" on="1"/>
      </contour>
    </TTGlyph>
    <TTGlyph name="afii10053" xMin="93" yMin="-10" xMax="531" yMax="710">
      <contour>
        <pt x="407" y="325" on="1"/>
        <pt x="197" y="325" on="1"/>
        <pt x="185" y="246" on="0"/>
        <pt x="189" y="142" on="0"/>
        <pt x="216" y="80" on="0"/>
        <pt x="265" y="55" on="0"/>
        <pt x="299" y="55" on="1"/>
        <pt x="429" y="55" on="1"/>
        <pt x="421" y="10" on="1"/>
        <pt x="398" y="2" on="0"/>
        <pt x="313" y="-10" on="0"/>
        <pt x="268" y="-10" on="1"/>
        <pt x="215" y="-10" on="0"/>
        <pt x="140" y="24" on="0"/>
        <pt x="98" y="106" on="0"/>
        <pt x="93" y="245" on="0"/>
        <pt x="111" y="350" on="1"/>
        <pt x="130" y="455" on="0"/>
        <pt x="183" y="594" on="0"/>
        <pt x="252" y="676" on="0"/>
        <pt x="336" y="710" on="0"/>
        <pt x="385" y="710" on="1"/>
        <pt x="430" y="710" on="0"/>
        <pt x="510" y="698" on="0"/>
        <pt x="531" y="690" on="1"/>
        <pt x="523" y="645" on="1"/>
        <pt x="393" y="645" on="1"/>
        <pt x="365" y="645" on="0"/>
        <pt x="311" y="620" on="0"/>
        <pt x="264" y="562" on="0"/>
        <pt x="224" y="466" on="0"/>
        <pt x="209" y="395" on="1"/>
        <pt x="419" y="395" on="1"/>
      </contour>
    </TTGlyph>
    <TTGlyph name="afii10054" xMin="36" yMin="-10" xMax="496" yMax="710">
      <contour>
        <pt x="128" y="530" on="1"/>
        <pt x="144" y="621" on="0"/>
        <pt x="252" y="710" on="0"/>
        <pt x="350" y="710" on="1"/>
        <pt x="395" y="710" on="0"/>
        <pt x="475" y="698" on="0"/>
        <pt x="496" y="690" on="1"/>
        <pt x="488" y="645" on="1"/>
        <pt x="358" y="645" on="1"/>
        <pt x="238" y="645" on="0"/>
        <pt x="218" y="530" on="1"/>
        <pt x="210" y="484" on="0"/>
        <pt x="242" y="430" on="0"/>
        <pt x="299" y="393" on="0"/>
        <pt x="367" y="362" on="0"/>
        <pt x="422" y="315" on="0"/>
        <pt x="452" y="241" on="0"/>
        <pt x="441" y="180" on="1"/>
        <pt x="432" y="131" on="0"/>
        <pt x="396" y="60" on="0"/>
        <pt x="334" y="13" on="0"/>
        <pt x="245" y="-10" on="0"/>
        <pt x="183" y="-10" on="1"/>
        <pt x="138" y="-10" on="0"/>
        <pt x="58" y="2" on="0"/>
        <pt x="36" y="10" on="1"/>
        <pt x="44" y="55" on="1"/>
        <pt x="174" y="55" on="1"/>
        <pt x="260" y="55" on="0"/>
        <pt x="340" y="116" on="0"/>
        <pt x="351" y="180" on="1"/>
        <pt x="359" y="224" on="0"/>
        <pt x="325" y="274" on="0"/>
        <pt x="268" y="309" on="0"/>
        <pt x="200" y="341" on="0"/>
        <pt x="145" y="389" on="0"/>
        <pt x="117" y="466" on="0"/>
      </contour>
    </TTGlyph>
    <TTGlyph name="afii10055" xMin="70" yMin="0" xMax="283" yMax="700">
      <contour>
        <pt x="283" y="700" on="1"/>
        <pt x="160" y="0" on="1"/>
        <pt x="70" y="0" on="1"/>
        <pt x="193" y="700" on="1"/>
      </contour>
    </TTGlyph>
    <TTGlyph name="afii10056" xMin="70" yMin="0" xMax="395" yMax="880">
      <contour>
        <pt x="283" y="700" on="1"/>
        <pt x="160" y="0" on="1"/>
        <pt x="70" y="0" on="1"/>
        <pt x="193" y="700" on="1"/>
      </contour>
      <contour>
        <pt x="235" y="880" on="1"/>
        <pt x="215" y="770" on="1"/>
        <pt x="125" y="770" on="1"/>
        <pt x="145" y="880" on="1"/>
      </contour>
      <contour>
        <pt x="395" y="880" on="1"/>
        <pt x="375" y="770" on="1"/>
        <pt x="285" y="770" on="1"/>
        <pt x="305" y="880" on="1"/>
      </contour>
    </TTGlyph>
    <TTGlyph name="afii10057" xMin="1" yMin="-10" xMax="413" yMax="700">
      <contour>
        <pt x="99" y="55" on="1"/>
        <pt x="125" y="55" on="0"/>
        <pt x="169" y="72" on="0"/>
        <pt x="205" y="114" on="0"/>
        <pt x="232" y="186" on="0"/>
        <pt x="242" y="240" on="1"/>
        <pt x="323" y="700" on="1"/>
        <pt x="413" y="700" on="1"/>
        <pt x="332" y="240" on="1"/>
        <pt x="319" y="169" on="0"/>
        <pt x="279" y="73" on="0"/>
        <pt x="220" y="15" on="0"/>
        <pt x="140" y="-10" on="0"/>
        <pt x="88" y="-10" on="1"/>
        <pt x="65" y="-10" on="0"/>
        <pt x="19" y="2" on="0"/>
        <pt x="1" y="10" on="1"/>
        <pt x="9" y="55" on="1"/>
      </contour>
    </TTGlyph>
    <TTGlyph name="afii10058" xMin="0" yMin="-10" xMax="807" yMax="700">
      <contour>
        <pt x="634" y="425" on="1"/>
        <pt x="731" y="425" on="0"/>
        <pt x="807" y="325" on="0"/>
        <pt x="786" y="205" on="1"/>
        <pt x="775" y="147" on="0"/>
        <pt x="737" y="65" on="0"/>
        <pt x="676" y="14" on="0"/>
        <pt x="588" y="-10" on="0"/>
        <pt x="528" y="-10" on="1"/>
        <pt x="483" y="-10" on="0"/>
        <pt x="407" y="-1" on="0"/>
        <pt x="371" y="10" on="1"/>
        <pt x="481" y="630" on="1"/>
        <pt x="323" y="630" on="1"/>
        <pt x="227" y="210" on="1"/>
        <pt x="213" y="150" on="0"/>
        <pt x="175" y="66" on="0"/>
        <pt x="131" y="14" on="0"/>
        <pt x="82" y="-10" on="0"/>
        <pt x="58" y="-10" on="1"/>
        <pt x="33" y="-10" on="0"/>
        <pt x="16" y="-5" on="1"/>
        <pt x="7" y="-3" on="0"/>
        <pt x="0" y="0" on="1"/>
        <pt x="7" y="45" on="1"/>
        <pt x="28" y="45" on="0"/>
        <pt x="65" y="61" on="0"/>
        <pt x="98" y="100" on="0"/>
        <pt x="126" y="163" on="0"/>
        <pt x="137" y="210" on="1"/>
        <pt x="248" y="700" on="1"/>
        <pt x="583" y="700" on="1"/>
        <pt x="533" y="415" on="1"/>
        <pt x="553" y="419" on="0"/>
        <pt x="611" y="425" on="0"/>
      </contour>
      <contour>
        <pt x="522" y="355" on="1"/>
        <pt x="469" y="55" on="1"/>
        <pt x="539" y="55" on="1"/>
        <pt x="607" y="55" on="0"/>
        <pt x="681" y="122" on="0"/>
        <pt x="696" y="205" on="1"/>
        <pt x="710" y="288" on="0"/>
        <pt x="660" y="355" on="0"/>
        <pt x="592" y="355" on="1"/>
      </contour>
    </TTGlyph>
    <TTGlyph name="afii10059" xMin="70" yMin="-10" xMax="804" yMax="700">
      <contour>
        <pt x="631" y="405" on="1"/>
        <pt x="729" y="405" on="0"/>
        <pt x="804" y="308" on="0"/>
        <pt x="784" y="195" on="1"/>
        <pt x="774" y="141" on="0"/>
        <pt x="737" y="63" on="0"/>
        <pt x="676" y="13" on="0"/>
        <pt x="588" y="-10" on="0"/>
        <pt x="528" y="-10" on="1"/>
        <pt x="483" y="-10" on="0"/>
        <pt x="407" y="-2" on="0"/>
        <pt x="372" y="9" on="1"/>
        <pt x="370" y="0" on="1"/>
        <pt x="429" y="335" on="1"/>
        <pt x="219" y="335" on="1"/>
        <pt x="160" y="0" on="1"/>
        <pt x="70" y="0" on="1"/>
        <pt x="193" y="700" on="1"/>
        <pt x="283" y="700" on="1"/>
        <pt x="231" y="405" on="1"/>
        <pt x="441" y="405" on="1"/>
        <pt x="493" y="700" on="1"/>
        <pt x="583" y="700" on="1"/>
        <pt x="529" y="395" on="1"/>
        <pt x="549" y="399" on="0"/>
        <pt x="608" y="405" on="0"/>
      </contour>
      <contour>
        <pt x="519" y="335" on="1"/>
        <pt x="469" y="55" on="1"/>
        <pt x="539" y="55" on="1"/>
        <pt x="607" y="55" on="0"/>
        <pt x="680" y="120" on="0"/>
        <pt x="694" y="195" on="1"/>
        <pt x="708" y="270" on="0"/>
        <pt x="657" y="335" on="0"/>
        <pt x="589" y="335" on="1"/>
      </contour>
    </TTGlyph>
    <TTGlyph name="afii10060" xMin="111" yMin="0" xMax="571" yMax="700">
      <contour>
        <pt x="402" y="440" on="1"/>
        <pt x="496" y="440" on="0"/>
        <pt x="571" y="347" on="0"/>
        <pt x="553" y="245" on="1"/>
        <pt x="510" y="0" on="1"/>
        <pt x="420" y="0" on="1"/>
        <pt x="463" y="245" on="1"/>
        <pt x="474" y="309" on="0"/>
        <pt x="422" y="370" on="0"/>
        <pt x="350" y="370" on="1"/>
        <pt x="280" y="370" on="1"/>
        <pt x="215" y="0" on="1"/>
        <pt x="125" y="0" on="1"/>
        <pt x="236" y="630" on="1"/>
        <pt x="111" y="630" on="1"/>
        <pt x="123" y="700" on="1"/>
        <pt x="483" y="700" on="1"/>
        <pt x="471" y="630" on="1"/>
        <pt x="326" y="630" on="1"/>
        <pt x="290" y="430" on="1"/>
        <pt x="310" y="434" on="0"/>
        <pt x="372" y="440" on="0"/>
      </contour>
    </TTGlyph>
    <TTGlyph name="afii10061" xMin="70" yMin="-10" xMax="603" yMax="870">
      <contour>
        <pt x="350" y="740" on="1"/>
        <pt x="408" y="870" on="1"/>
        <pt x="503" y="870" on="1"/>
        <pt x="410" y="740" on="1"/>
      </contour>
      <contour>
        <pt x="349" y="363" on="1"/>
        <pt x="367" y="358" on="0"/>
        <pt x="395" y="342" on="0"/>
        <pt x="415" y="314" on="0"/>
        <pt x="427" y="271" on="0"/>
        <pt x="427" y="240" on="1"/>
        <pt x="429" y="110" on="1"/>
        <pt x="430" y="84" on="0"/>
        <pt x="459" y="45" on="0"/>
        <pt x="497" y="45" on="1"/>
        <pt x="490" y="0" on="1"/>
        <pt x="482" y="-3" on="0"/>
        <pt x="472" y="-5" on="1"/>
        <pt x="454" y="-10" on="0"/>
        <pt x="428" y="-10" on="1"/>
        <pt x="383" y="-10" on="0"/>
        <pt x="335" y="50" on="0"/>
        <pt x="334" y="110" on="1"/>
        <pt x="332" y="240" on="1"/>
        <pt x="331" y="293" on="0"/>
        <pt x="287" y="330" on="0"/>
        <pt x="253" y="330" on="1"/>
        <pt x="218" y="330" on="1"/>
        <pt x="160" y="0" on="1"/>
        <pt x="70" y="0" on="1"/>
        <pt x="193" y="700" on="1"/>
        <pt x="283" y="700" on="1"/>
        <pt x="230" y="400" on="1"/>
        <pt x="265" y="400" on="1"/>
        <pt x="291" y="400" on="0"/>
        <pt x="344" y="438" on="0"/>
        <pt x="366" y="490" on="1"/>
        <pt x="409" y="590" on="1"/>
        <pt x="460" y="710" on="0"/>
        <pt x="545" y="710" on="1"/>
        <pt x="558" y="710" on="0"/>
        <pt x="579" y="707" on="0"/>
        <pt x="587" y="705" on="1"/>
        <pt x="596" y="702" on="0"/>
        <pt x="603" y="700" on="1"/>
        <pt x="595" y="655" on="1"/>
        <pt x="557" y="655" on="0"/>
        <pt x="517" y="620" on="0"/>
        <pt x="504" y="590" on="1"/>
        <pt x="461" y="490" on="1"/>
        <pt x="447" y="459" on="0"/>
        <pt x="423" y="416" on="0"/>
        <pt x="396" y="388" on="0"/>
        <pt x="367" y="372" on="0"/>
        <pt x="349" y="367" on="1"/>
      </contour>
    </TTGlyph>
    <TTGlyph name="afii10062" xMin="81" yMin="-10" xMax="563" yMax="865">
      <contour>
        <pt x="374" y="820" on="1"/>
        <pt x="408" y="820" on="0"/>
        <pt x="464" y="850" on="0"/>
        <pt x="482" y="865" on="1"/>
        <pt x="515" y="825" on="1"/>
        <pt x="490" y="791" on="0"/>
        <pt x="411" y="750" on="0"/>
        <pt x="362" y="750" on="1"/>
        <pt x="313" y="750" on="0"/>
        <pt x="248" y="791" on="0"/>
        <pt x="235" y="825" on="1"/>
        <pt x="282" y="865" on="1"/>
        <pt x="294" y="850" on="0"/>
        <pt x="340" y="820" on="0"/>
      </contour>
      <contour>
        <pt x="178" y="-10" on="1"/>
        <pt x="155" y="-10" on="0"/>
        <pt x="103" y="2" on="0"/>
        <pt x="81" y="10" on="1"/>
        <pt x="89" y="55" on="1"/>
        <pt x="159" y="55" on="1"/>
        <pt x="180" y="55" on="0"/>
        <pt x="216" y="69" on="0"/>
        <pt x="249" y="103" on="0"/>
        <pt x="278" y="159" on="0"/>
        <pt x="292" y="200" on="1"/>
        <pt x="234" y="200" on="0"/>
        <pt x="173" y="263" on="0"/>
        <pt x="166" y="320" on="1"/>
        <pt x="123" y="700" on="1"/>
        <pt x="213" y="700" on="1"/>
        <pt x="256" y="320" on="1"/>
        <pt x="262" y="265" on="0"/>
        <pt x="316" y="265" on="1"/>
        <pt x="473" y="700" on="1"/>
        <pt x="563" y="700" on="1"/>
        <pt x="368" y="160" on="1"/>
        <pt x="336" y="69" on="0"/>
        <pt x="246" y="-10" on="0"/>
      </contour>
    </TTGlyph>
    <TTGlyph name="afii10065" xMin="75" yMin="-10" xMax="484" yMax="510">
      <contour>
        <pt x="400" y="0" on="1"/>
        <pt x="325" y="0" on="1"/>
        <pt x="325" y="30" on="1"/>
        <pt x="320" y="30" on="1"/>
        <pt x="297" y="11" on="0"/>
        <pt x="238" y="-10" on="0"/>
        <pt x="208" y="-10" on="1"/>
        <pt x="169" y="-10" on="0"/>
        <pt x="111" y="15" on="0"/>
        <pt x="80" y="75" on="0"/>
        <pt x="75" y="175" on="0"/>
        <pt x="89" y="250" on="1"/>
        <pt x="102" y="325" on="0"/>
        <pt x="142" y="425" on="0"/>
        <pt x="201" y="485" on="0"/>
        <pt x="278" y="510" on="0"/>
        <pt x="329" y="510" on="1"/>
        <pt x="374" y="510" on="0"/>
        <pt x="449" y="495" on="0"/>
        <pt x="484" y="480" on="1"/>
      </contour>
      <contour>
        <pt x="319" y="450" on="1"/>
        <pt x="295" y="450" on="0"/>
        <pt x="253" y="432" on="0"/>
        <pt x="218" y="387" on="0"/>
        <pt x="189" y="310" on="0"/>
        <pt x="179" y="250" on="1"/>
        <pt x="168" y="190" on="0"/>
        <pt x="169" y="112" on="0"/>
        <pt x="188" y="67" on="0"/>
        <pt x="224" y="50" on="0"/>
        <pt x="248" y="50" on="1"/>
        <pt x="267" y="50" on="0"/>
        <pt x="309" y="62" on="0"/>
        <pt x="322" y="70" on="1"/>
        <pt x="389" y="450" on="1"/>
      </contour>
    </TTGlyph>
    <TTGlyph name="afii10066" xMin="84" yMin="-10" xMax="540" yMax="710">
      <contour>
        <pt x="225" y="455" on="1"/>
        <pt x="249" y="466" on="0"/>
        <pt x="300" y="480" on="0"/>
        <pt x="334" y="480" on="1"/>
        <pt x="377" y="480" on="0"/>
        <pt x="438" y="455" on="0"/>
        <pt x="473" y="398" on="0"/>
        <pt x="478" y="304" on="0"/>
        <pt x="466" y="235" on="1"/>
        <pt x="454" y="166" on="0"/>
        <pt x="414" y="72" on="0"/>
        <pt x="359" y="15" on="0"/>
        <pt x="285" y="-10" on="0"/>
        <pt x="238" y="-10" on="1"/>
        <pt x="191" y="-10" on="0"/>
        <pt x="126" y="15" on="0"/>
        <pt x="90" y="72" on="0"/>
        <pt x="84" y="166" on="0"/>
        <pt x="96" y="235" on="1"/>
        <pt x="125" y="400" on="1"/>
        <pt x="140" y="486" on="0"/>
        <pt x="187" y="601" on="0"/>
        <pt x="258" y="671" on="0"/>
        <pt x="359" y="702" on="0"/>
        <pt x="429" y="705" on="1"/>
        <pt x="540" y="710" on="1"/>
        <pt x="538" y="670" on="1"/>
        <pt x="509" y="659" on="0"/>
        <pt x="443" y="639" on="0"/>
        <pt x="401" y="635" on="1"/>
        <pt x="363" y="631" on="0"/>
        <pt x="305" y="609" on="0"/>
        <pt x="262" y="567" on="0"/>
        <pt x="233" y="502" on="0"/>
      </contour>
      <contour>
        <pt x="186" y="235" on="1"/>
        <pt x="176" y="179" on="0"/>
        <pt x="177" y="105" on="0"/>
        <pt x="195" y="62" on="0"/>
        <pt x="226" y="45" on="0"/>
        <pt x="247" y="45" on="1"/>
        <pt x="268" y="45" on="0"/>
        <pt x="305" y="62" on="0"/>
        <pt x="338" y="105" on="0"/>
        <pt x="366" y="179" on="0"/>
        <pt x="376" y="235" on="1"/>
        <pt x="386" y="289" on="0"/>
        <pt x="384" y="361" on="0"/>
        <pt x="362" y="403" on="0"/>
        <pt x="322" y="420" on="0"/>
        <pt x="294" y="420" on="1"/>
        <pt x="271" y="420" on="0"/>
        <pt x="228" y="408" on="0"/>
        <pt x="215" y="400" on="1"/>
      </contour>
    </TTGlyph>
    <TTGlyph name="afii10067" xMin="66" yMin="-10" xMax="462" yMax="510">
      <contour>
        <pt x="233" y="50" on="1"/>
        <pt x="278" y="50" on="0"/>
        <pt x="335" y="87" on="0"/>
        <pt x="344" y="140" on="1"/>
        <pt x="354" y="192" on="0"/>
        <pt x="310" y="230" on="0"/>
        <pt x="265" y="230" on="1"/>
        <pt x="195" y="230" on="1"/>
        <pt x="163" y="50" on="1"/>
      </contour>
      <contour>
        <pt x="234" y="450" on="1"/>
        <pt x="206" y="290" on="1"/>
        <pt x="266" y="290" on="1"/>
        <pt x="304" y="290" on="0"/>
        <pt x="357" y="325" on="0"/>
        <pt x="365" y="370" on="1"/>
        <pt x="373" y="415" on="0"/>
        <pt x="332" y="450" on="0"/>
        <pt x="294" y="450" on="1"/>
      </contour>
      <contour>
        <pt x="151" y="490" on="1"/>
        <pt x="191" y="501" on="0"/>
        <pt x="266" y="510" on="0"/>
        <pt x="304" y="510" on="1"/>
        <pt x="347" y="510" on="0"/>
        <pt x="410" y="497" on="0"/>
        <pt x="449" y="465" on="0"/>
        <pt x="462" y="411" on="0"/>
        <pt x="455" y="370" on="1"/>
        <pt x="446" y="321" on="0"/>
        <pt x="395" y="277" on="0"/>
        <pt x="367" y="267" on="1"/>
        <pt x="366" y="263" on="1"/>
        <pt x="382" y="258" on="0"/>
        <pt x="411" y="240" on="0"/>
        <pt x="431" y="210" on="0"/>
        <pt x="439" y="168" on="0"/>
        <pt x="434" y="140" on="1"/>
        <pt x="426" y="95" on="0"/>
        <pt x="393" y="37" on="0"/>
        <pt x="342" y="3" on="0"/>
        <pt x="270" y="-10" on="0"/>
        <pt x="223" y="-10" on="1"/>
        <pt x="178" y="-10" on="0"/>
        <pt x="102" y="-1" on="0"/>
        <pt x="66" y="10" on="1"/>
      </contour>
    </TTGlyph>
    <TTGlyph name="afii10068" xMin="50" yMin="-10" xMax="440" yMax="510">
      <contour>
        <pt x="337" y="380" on="1"/>
        <pt x="343" y="418" on="0"/>
        <pt x="292" y="450" on="0"/>
        <pt x="239" y="450" on="1"/>
        <pt x="139" y="450" on="1"/>
        <pt x="146" y="490" on="1"/>
        <pt x="170" y="498" on="0"/>
        <pt x="239" y="510" on="0"/>
        <pt x="269" y="510" on="1"/>
        <pt x="360" y="510" on="0"/>
        <pt x="440" y="455" on="0"/>
        <pt x="427" y="380" on="1"/>
        <pt x="419" y="335" on="0"/>
        <pt x="374" y="280" on="0"/>
        <pt x="316" y="244" on="0"/>
        <pt x="251" y="221" on="0"/>
        <pt x="194" y="195" on="0"/>
        <pt x="152" y="160" on="0"/>
        <pt x="147" y="130" on="1"/>
        <pt x="139" y="85" on="0"/>
        <pt x="195" y="50" on="0"/>
        <pt x="263" y="50" on="1"/>
        <pt x="363" y="50" on="1"/>
        <pt x="356" y="10" on="1"/>
        <pt x="333" y="2" on="0"/>
        <pt x="263" y="-10" on="0"/>
        <pt x="233" y="-10" on="1"/>
        <pt x="180" y="-10" on="0"/>
        <pt x="107" y="3" on="0"/>
        <pt x="64" y="35" on="0"/>
        <pt x="50" y="89" on="0"/>
        <pt x="57" y="130" on="1"/>
        <pt x="65" y="175" on="0"/>
        <pt x="110" y="230" on="0"/>
        <pt x="168" y="266" on="0"/>
        <pt x="233" y="289" on="0"/>
        <pt x="290" y="315" on="0"/>
        <pt x="331" y="350" on="0"/>
      </contour>
    </TTGlyph>
    <TTGlyph name="afii10069" xMin="66" yMin="-10" xMax="502" yMax="710">
      <contour>
        <pt x="205" y="710" on="1"/>
        <pt x="368" y="695" on="0"/>
        <pt x="502" y="526" on="0"/>
        <pt x="473" y="360" on="1"/>
        <pt x="447" y="215" on="1"/>
        <pt x="436" y="153" on="0"/>
        <pt x="399" y="67" on="0"/>
        <pt x="343" y="14" on="0"/>
        <pt x="270" y="-10" on="0"/>
        <pt x="223" y="-10" on="1"/>
        <pt x="176" y="-10" on="0"/>
        <pt x="111" y="14" on="0"/>
        <pt x="74" y="67" on="0"/>
        <pt x="66" y="153" on="0"/>
        <pt x="77" y="215" on="1"/>
        <pt x="88" y="277" on="0"/>
        <pt x="126" y="363" on="0"/>
        <pt x="179" y="416" on="0"/>
        <pt x="249" y="440" on="0"/>
        <pt x="292" y="440" on="1"/>
        <pt x="326" y="440" on="0"/>
        <pt x="372" y="426" on="0"/>
        <pt x="393" y="415" on="1"/>
        <pt x="402" y="469" on="0"/>
        <pt x="379" y="552" on="0"/>
        <pt x="323" y="612" on="0"/>
        <pt x="238" y="651" on="0"/>
        <pt x="186" y="660" on="1"/>
      </contour>
      <contour>
        <pt x="383" y="360" on="1"/>
        <pt x="373" y="368" on="0"/>
        <pt x="335" y="380" on="0"/>
        <pt x="312" y="380" on="1"/>
        <pt x="284" y="380" on="0"/>
        <pt x="238" y="364" on="0"/>
        <pt x="202" y="325" on="0"/>
        <pt x="175" y="262" on="0"/>
        <pt x="167" y="215" on="1"/>
        <pt x="158" y="166" on="0"/>
        <pt x="161" y="101" on="0"/>
        <pt x="179" y="62" on="0"/>
        <pt x="211" y="45" on="0"/>
        <pt x="232" y="45" on="1"/>
        <pt x="253" y="45" on="0"/>
        <pt x="290" y="62" on="0"/>
        <pt x="323" y="101" on="0"/>
        <pt x="348" y="166" on="0"/>
        <pt x="357" y="215" on="1"/>
      </contour>
    </TTGlyph>
    <TTGlyph name="afii10070" xMin="75" yMin="-10" xMax="480" yMax="510">
      <contour>
        <pt x="277" y="270" on="1"/>
        <pt x="319" y="270" on="0"/>
        <pt x="369" y="312" on="0"/>
        <pt x="376" y="350" on="1"/>
        <pt x="385" y="399" on="0"/>
        <pt x="344" y="455" on="0"/>
        <pt x="310" y="455" on="1"/>
        <pt x="289" y="455" on="0"/>
        <pt x="252" y="438" on="0"/>
        <pt x="219" y="396" on="0"/>
        <pt x="192" y="324" on="0"/>
        <pt x="182" y="270" on="1"/>
      </contour>
      <contour>
        <pt x="172" y="210" on="1"/>
        <pt x="155" y="120" on="0"/>
        <pt x="208" y="50" on="0"/>
        <pt x="283" y="50" on="1"/>
        <pt x="383" y="50" on="1"/>
        <pt x="376" y="10" on="1"/>
        <pt x="353" y="2" on="0"/>
        <pt x="283" y="-10" on="0"/>
        <pt x="253" y="-10" on="1"/>
        <pt x="197" y="-10" on="0"/>
        <pt x="121" y="15" on="0"/>
        <pt x="81" y="75" on="0"/>
        <pt x="75" y="175" on="0"/>
        <pt x="89" y="250" on="1"/>
        <pt x="102" y="325" on="0"/>
        <pt x="142" y="425" on="0"/>
        <pt x="198" y="485" on="0"/>
        <pt x="272" y="510" on="0"/>
        <pt x="319" y="510" on="1"/>
        <pt x="406" y="510" on="0"/>
        <pt x="480" y="425" on="0"/>
        <pt x="466" y="350" on="1"/>
        <pt x="454" y="282" on="0"/>
        <pt x="361" y="210" on="0"/>
        <pt x="267" y="210" on="1"/>
      </contour>
    </TTGlyph>
    <TTGlyph name="afii10071" xMin="75" yMin="-10" xMax="480" yMax="680">
      <contour>
        <pt x="304" y="680" on="1"/>
        <pt x="285" y="570" on="1"/>
        <pt x="195" y="570" on="1"/>
        <pt x="214" y="680" on="1"/>
      </contour>
      <contour>
        <pt x="464" y="680" on="1"/>
        <pt x="445" y="570" on="1"/>
        <pt x="355" y="570" on="1"/>
        <pt x="374" y="680" on="1"/>
      </contour>
      <contour>
        <pt x="277" y="270" on="1"/>
        <pt x="319" y="270" on="0"/>
        <pt x="369" y="312" on="0"/>
        <pt x="376" y="350" on="1"/>
        <pt x="385" y="399" on="0"/>
        <pt x="344" y="455" on="0"/>
        <pt x="310" y="455" on="1"/>
        <pt x="289" y="455" on="0"/>
        <pt x="252" y="438" on="0"/>
        <pt x="219" y="396" on="0"/>
        <pt x="192" y="324" on="0"/>
        <pt x="182" y="270" on="1"/>
      </contour>
      <contour>
        <pt x="172" y="210" on="1"/>
        <pt x="155" y="120" on="0"/>
        <pt x="208" y="50" on="0"/>
        <pt x="283" y="50" on="1"/>
        <pt x="383" y="50" on="1"/>
        <pt x="376" y="10" on="1"/>
        <pt x="353" y="2" on="0"/>
        <pt x="283" y="-10" on="0"/>
        <pt x="253" y="-10" on="1"/>
        <pt x="197" y="-10" on="0"/>
        <pt x="121" y="15" on="0"/>
        <pt x="81" y="75" on="0"/>
        <pt x="75" y="175" on="0"/>
        <pt x="89" y="250" on="1"/>
        <pt x="102" y="325" on="0"/>
        <pt x="142" y="425" on="0"/>
        <pt x="198" y="485" on="0"/>
        <pt x="272" y="510" on="0"/>
        <pt x="319" y="510" on="1"/>
        <pt x="406" y="510" on="0"/>
        <pt x="480" y="425" on="0"/>
        <pt x="466" y="350" on="1"/>
        <pt x="454" y="282" on="0"/>
        <pt x="361" y="210" on="0"/>
        <pt x="267" y="210" on="1"/>
      </contour>
    </TTGlyph>
    <TTGlyph name="afii10072" xMin="10" yMin="-10" xMax="710" yMax="510">
      <contour>
        <pt x="328" y="295" on="1"/>
        <pt x="364" y="500" on="1"/>
        <pt x="454" y="500" on="1"/>
        <pt x="418" y="295" on="1"/>
        <pt x="438" y="295" on="1"/>
        <pt x="454" y="295" on="0"/>
        <pt x="486" y="321" on="0"/>
        <pt x="504" y="355" on="1"/>
        <pt x="541" y="425" on="1"/>
        <pt x="565" y="468" on="0"/>
        <pt x="615" y="510" on="0"/>
        <pt x="656" y="510" on="1"/>
        <pt x="665" y="510" on="0"/>
        <pt x="684" y="507" on="0"/>
        <pt x="692" y="505" on="1"/>
        <pt x="701" y="502" on="0"/>
        <pt x="710" y="500" on="1"/>
        <pt x="703" y="460" on="1"/>
        <pt x="673" y="460" on="0"/>
        <pt x="644" y="440" on="0"/>
        <pt x="636" y="425" on="1"/>
        <pt x="599" y="355" on="1"/>
        <pt x="576" y="310" on="0"/>
        <pt x="536" y="273" on="0"/>
        <pt x="513" y="267" on="1"/>
        <pt x="512" y="263" on="1"/>
        <pt x="538" y="257" on="0"/>
        <pt x="572" y="219" on="0"/>
        <pt x="576" y="170" on="1"/>
        <pt x="585" y="75" on="1"/>
        <pt x="586" y="60" on="0"/>
        <pt x="609" y="40" on="0"/>
        <pt x="639" y="40" on="1"/>
        <pt x="632" y="0" on="1"/>
        <pt x="624" y="-3" on="0"/>
        <pt x="615" y="-5" on="1"/>
        <pt x="597" y="-10" on="0"/>
        <pt x="575" y="-10" on="1"/>
        <pt x="533" y="-10" on="0"/>
        <pt x="494" y="33" on="0"/>
        <pt x="490" y="75" on="1"/>
        <pt x="481" y="170" on="1"/>
        <pt x="479" y="200" on="0"/>
        <pt x="449" y="230" on="0"/>
        <pt x="426" y="230" on="1"/>
        <pt x="406" y="230" on="1"/>
        <pt x="366" y="0" on="1"/>
        <pt x="276" y="0" on="1"/>
        <pt x="316" y="230" on="1"/>
        <pt x="296" y="230" on="1"/>
        <pt x="247" y="230" on="0"/>
        <pt x="219" y="170" on="1"/>
        <pt x="178" y="75" on="1"/>
        <pt x="159" y="33" on="0"/>
        <pt x="105" y="-10" on="0"/>
        <pt x="63" y="-10" on="1"/>
        <pt x="40" y="-10" on="0"/>
        <pt x="25" y="-5" on="1"/>
        <pt x="16" y="-3" on="0"/>
        <pt x="10" y="0" on="1"/>
        <pt x="17" y="40" on="1"/>
        <pt x="47" y="40" on="0"/>
        <pt x="76" y="60" on="0"/>
        <pt x="83" y="75" on="1"/>
        <pt x="124" y="170" on="1"/>
        <pt x="146" y="219" on="0"/>
        <pt x="193" y="257" on="0"/>
        <pt x="222" y="263" on="1"/>
        <pt x="223" y="267" on="1"/>
        <pt x="201" y="273" on="0"/>
        <pt x="175" y="310" on="0"/>
        <pt x="167" y="355" on="1"/>
        <pt x="154" y="425" on="1"/>
        <pt x="152" y="440" on="0"/>
        <pt x="131" y="460" on="0"/>
        <pt x="101" y="460" on="1"/>
        <pt x="108" y="500" on="1"/>
        <pt x="117" y="502" on="0"/>
        <pt x="127" y="505" on="1"/>
        <pt x="135" y="507" on="0"/>
        <pt x="154" y="510" on="0"/>
        <pt x="164" y="510" on="1"/>
        <pt x="206" y="510" on="0"/>
        <pt x="241" y="469" on="0"/>
        <pt x="249" y="425" on="1"/>
        <pt x="262" y="355" on="1"/>
        <pt x="268" y="321" on="0"/>
        <pt x="292" y="295" on="0"/>
        <pt x="308" y="295" on="1"/>
      </contour>
    </TTGlyph>
    <TTGlyph name="afii10073" xMin="16" yMin="-10" xMax="402" yMax="510">
      <contour>
        <pt x="234" y="510" on="1"/>
        <pt x="281" y="510" on="0"/>
        <pt x="348" y="497" on="0"/>
        <pt x="389" y="465" on="0"/>
        <pt x="402" y="411" on="0"/>
        <pt x="395" y="370" on="1"/>
        <pt x="390" y="346" on="0"/>
        <pt x="371" y="311" on="0"/>
        <pt x="344" y="287" on="0"/>
        <pt x="313" y="272" on="0"/>
        <pt x="297" y="267" on="1"/>
        <pt x="296" y="263" on="1"/>
        <pt x="312" y="258" on="0"/>
        <pt x="341" y="240" on="0"/>
        <pt x="361" y="210" on="0"/>
        <pt x="369" y="168" on="0"/>
        <pt x="364" y="140" on="1"/>
        <pt x="356" y="95" on="0"/>
        <pt x="323" y="37" on="0"/>
        <pt x="267" y="3" on="0"/>
        <pt x="187" y="-10" on="0"/>
        <pt x="133" y="-10" on="1"/>
        <pt x="103" y="-10" on="0"/>
        <pt x="38" y="2" on="0"/>
        <pt x="16" y="10" on="1"/>
        <pt x="23" y="50" on="1"/>
        <pt x="143" y="50" on="1"/>
        <pt x="200" y="50" on="0"/>
        <pt x="265" y="87" on="0"/>
        <pt x="274" y="140" on="1"/>
        <pt x="279" y="166" on="0"/>
        <pt x="271" y="201" on="0"/>
        <pt x="251" y="222" on="0"/>
        <pt x="222" y="230" on="0"/>
        <pt x="205" y="230" on="1"/>
        <pt x="120" y="230" on="1"/>
        <pt x="131" y="290" on="1"/>
        <pt x="206" y="290" on="1"/>
        <pt x="240" y="290" on="0"/>
        <pt x="297" y="325" on="0"/>
        <pt x="305" y="370" on="1"/>
        <pt x="313" y="415" on="0"/>
        <pt x="261" y="450" on="0"/>
        <pt x="204" y="450" on="1"/>
        <pt x="104" y="450" on="1"/>
        <pt x="111" y="490" on="1"/>
        <pt x="135" y="498" on="0"/>
        <pt x="204" y="510" on="0"/>
      </contour>
    </TTGlyph>
    <TTGlyph name="afii10074" xMin="81" yMin="-10" xMax="498" yMax="500">
      <contour>
        <pt x="408" y="500" on="1"/>
        <pt x="498" y="500" on="1"/>
        <pt x="410" y="0" on="1"/>
        <pt x="335" y="0" on="1"/>
        <pt x="335" y="30" on="1"/>
        <pt x="330" y="30" on="1"/>
        <pt x="307" y="11" on="0"/>
        <pt x="248" y="-10" on="0"/>
        <pt x="218" y="-10" on="1"/>
        <pt x="182" y="-10" on="0"/>
        <pt x="127" y="3" on="0"/>
        <pt x="93" y="37" on="0"/>
        <pt x="81" y="95" on="0"/>
        <pt x="89" y="140" on="1"/>
        <pt x="153" y="500" on="1"/>
        <pt x="243" y="500" on="1"/>
        <pt x="179" y="140" on="1"/>
        <pt x="174" y="114" on="0"/>
        <pt x="183" y="79" on="0"/>
        <pt x="204" y="58" on="0"/>
        <pt x="237" y="50" on="0"/>
        <pt x="258" y="50" on="1"/>
        <pt x="277" y="50" on="0"/>
        <pt x="319" y="62" on="0"/>
        <pt x="332" y="70" on="1"/>
      </contour>
    </TTGlyph>
    <TTGlyph name="afii10075" xMin="81" yMin="-10" xMax="498" yMax="670">
      <contour>
        <pt x="346" y="630" on="1"/>
        <pt x="376" y="630" on="0"/>
        <pt x="430" y="655" on="0"/>
        <pt x="448" y="670" on="1"/>
        <pt x="481" y="630" on="1"/>
        <pt x="457" y="600" on="0"/>
        <pt x="382" y="560" on="0"/>
        <pt x="333" y="560" on="1"/>
        <pt x="284" y="560" on="0"/>
        <pt x="225" y="600" on="0"/>
        <pt x="211" y="630" on="1"/>
        <pt x="258" y="670" on="1"/>
        <pt x="270" y="655" on="0"/>
        <pt x="316" y="630" on="0"/>
      </contour>
      <contour>
        <pt x="408" y="500" on="1"/>
        <pt x="498" y="500" on="1"/>
        <pt x="410" y="0" on="1"/>
        <pt x="335" y="0" on="1"/>
        <pt x="335" y="30" on="1"/>
        <pt x="330" y="30" on="1"/>
        <pt x="307" y="11" on="0"/>
        <pt x="248" y="-10" on="0"/>
        <pt x="218" y="-10" on="1"/>
        <pt x="182" y="-10" on="0"/>
        <pt x="127" y="3" on="0"/>
        <pt x="93" y="37" on="0"/>
        <pt x="81" y="95" on="0"/>
        <pt x="89" y="140" on="1"/>
        <pt x="153" y="500" on="1"/>
        <pt x="243" y="500" on="1"/>
        <pt x="179" y="140" on="1"/>
        <pt x="174" y="114" on="0"/>
        <pt x="183" y="79" on="0"/>
        <pt x="204" y="58" on="0"/>
        <pt x="237" y="50" on="0"/>
        <pt x="258" y="50" on="1"/>
        <pt x="277" y="50" on="0"/>
        <pt x="319" y="62" on="0"/>
        <pt x="332" y="70" on="1"/>
      </contour>
    </TTGlyph>
    <TTGlyph name="afii10076" xMin="65" yMin="-10" xMax="513" yMax="510">
      <contour>
        <pt x="315" y="263" on="1"/>
        <pt x="341" y="257" on="0"/>
        <pt x="375" y="219" on="0"/>
        <pt x="379" y="170" on="1"/>
        <pt x="388" y="75" on="1"/>
        <pt x="389" y="60" on="0"/>
        <pt x="412" y="40" on="0"/>
        <pt x="442" y="40" on="1"/>
        <pt x="435" y="0" on="1"/>
        <pt x="427" y="-3" on="0"/>
        <pt x="418" y="-5" on="1"/>
        <pt x="400" y="-10" on="0"/>
        <pt x="378" y="-10" on="1"/>
        <pt x="336" y="-10" on="0"/>
        <pt x="297" y="33" on="0"/>
        <pt x="293" y="75" on="1"/>
        <pt x="284" y="170" on="1"/>
        <pt x="282" y="200" on="0"/>
        <pt x="252" y="230" on="0"/>
        <pt x="229" y="230" on="1"/>
        <pt x="195" y="230" on="1"/>
        <pt x="155" y="0" on="1"/>
        <pt x="65" y="0" on="1"/>
        <pt x="153" y="500" on="1"/>
        <pt x="243" y="500" on="1"/>
        <pt x="207" y="295" on="1"/>
        <pt x="241" y="295" on="1"/>
        <pt x="257" y="295" on="0"/>
        <pt x="289" y="321" on="0"/>
        <pt x="307" y="355" on="1"/>
        <pt x="344" y="425" on="1"/>
        <pt x="368" y="468" on="0"/>
        <pt x="418" y="510" on="0"/>
        <pt x="459" y="510" on="1"/>
        <pt x="468" y="510" on="0"/>
        <pt x="487" y="507" on="0"/>
        <pt x="495" y="505" on="1"/>
        <pt x="504" y="502" on="0"/>
        <pt x="513" y="500" on="1"/>
        <pt x="506" y="460" on="1"/>
        <pt x="476" y="460" on="0"/>
        <pt x="447" y="440" on="0"/>
        <pt x="439" y="425" on="1"/>
        <pt x="402" y="355" on="1"/>
        <pt x="379" y="310" on="0"/>
        <pt x="339" y="273" on="0"/>
        <pt x="316" y="267" on="1"/>
      </contour>
    </TTGlyph>
    <TTGlyph name="afii10077" xMin="0" yMin="-10" xMax="494" yMax="500">
      <contour>
        <pt x="494" y="500" on="1"/>
        <pt x="406" y="0" on="1"/>
        <pt x="316" y="0" on="1"/>
        <pt x="392" y="435" on="1"/>
        <pt x="262" y="435" on="1"/>
        <pt x="198" y="160" on="1"/>
        <pt x="177" y="70" on="0"/>
        <pt x="98" y="-10" on="0"/>
        <pt x="53" y="-10" on="1"/>
        <pt x="30" y="-10" on="0"/>
        <pt x="1" y="0" on="0"/>
        <pt x="0" y="0" on="1"/>
        <pt x="7" y="40" on="1"/>
        <pt x="37" y="40" on="0"/>
        <pt x="93" y="96" on="0"/>
        <pt x="108" y="160" on="1"/>
        <pt x="188" y="500" on="1"/>
      </contour>
    </TTGlyph>
    <TTGlyph name="afii10078" xMin="55" yMin="0" xMax="628" yMax="500">
      <contour>
        <pt x="349" y="185" on="1"/>
        <pt x="523" y="500" on="1"/>
        <pt x="628" y="500" on="1"/>
        <pt x="575" y="0" on="1"/>
        <pt x="490" y="0" on="1"/>
        <pt x="527" y="355" on="1"/>
        <pt x="522" y="355" on="1"/>
        <pt x="368" y="75" on="1"/>
        <pt x="288" y="75" on="1"/>
        <pt x="232" y="355" on="1"/>
        <pt x="227" y="355" on="1"/>
        <pt x="140" y="0" on="1"/>
        <pt x="55" y="0" on="1"/>
        <pt x="178" y="500" on="1"/>
        <pt x="283" y="500" on="1"/>
        <pt x="345" y="185" on="1"/>
      </contour>
    </TTGlyph>
    <TTGlyph name="afii10079" xMin="65" yMin="0" xMax="498" yMax="500">
      <contour>
        <pt x="155" y="0" on="1"/>
        <pt x="65" y="0" on="1"/>
        <pt x="153" y="500" on="1"/>
        <pt x="243" y="500" on="1"/>
        <pt x="205" y="285" on="1"/>
        <pt x="370" y="285" on="1"/>
        <pt x="408" y="500" on="1"/>
        <pt x="498" y="500" on="1"/>
        <pt x="410" y="0" on="1"/>
        <pt x="320" y="0" on="1"/>
        <pt x="358" y="220" on="1"/>
        <pt x="193" y="220" on="1"/>
      </contour>
    </TTGlyph>
    <TTGlyph name="afii10080" xMin="76" yMin="-10" xMax="472" yMax="510">
      <contour>
        <pt x="369" y="250" on="1"/>
        <pt x="379" y="310" on="0"/>
        <pt x="378" y="389" on="0"/>
        <pt x="360" y="436" on="0"/>
        <pt x="329" y="455" on="0"/>
        <pt x="310" y="455" on="1"/>
        <pt x="291" y="455" on="0"/>
        <pt x="253" y="436" on="0"/>
        <pt x="219" y="389" on="0"/>
        <pt x="189" y="310" on="0"/>
        <pt x="179" y="250" on="1"/>
        <pt x="168" y="190" on="0"/>
        <pt x="169" y="111" on="0"/>
        <pt x="187" y="64" on="0"/>
        <pt x="218" y="45" on="0"/>
        <pt x="237" y="45" on="1"/>
        <pt x="256" y="45" on="0"/>
        <pt x="294" y="64" on="0"/>
        <pt x="328" y="111" on="0"/>
        <pt x="358" y="190" on="0"/>
      </contour>
      <contour>
        <pt x="459" y="250" on="1"/>
        <pt x="446" y="177" on="0"/>
        <pt x="404" y="77" on="0"/>
        <pt x="347" y="16" on="0"/>
        <pt x="273" y="-10" on="0"/>
        <pt x="228" y="-10" on="1"/>
        <pt x="183" y="-10" on="0"/>
        <pt x="118" y="16" on="0"/>
        <pt x="82" y="77" on="0"/>
        <pt x="76" y="177" on="0"/>
        <pt x="89" y="250" on="1"/>
        <pt x="102" y="323" on="0"/>
        <pt x="143" y="423" on="0"/>
        <pt x="200" y="484" on="0"/>
        <pt x="274" y="510" on="0"/>
        <pt x="319" y="510" on="1"/>
        <pt x="364" y="510" on="0"/>
        <pt x="429" y="484" on="0"/>
        <pt x="465" y="423" on="0"/>
        <pt x="472" y="323" on="0"/>
      </contour>
    </TTGlyph>
    <TTGlyph name="afii10081" xMin="65" yMin="0" xMax="481" yMax="510">
      <contour>
        <pt x="155" y="0" on="1"/>
        <pt x="65" y="0" on="1"/>
        <pt x="153" y="500" on="1"/>
        <pt x="228" y="500" on="1"/>
        <pt x="227" y="470" on="1"/>
        <pt x="232" y="470" on="1"/>
        <pt x="255" y="489" on="0"/>
        <pt x="314" y="510" on="0"/>
        <pt x="344" y="510" on="1"/>
        <pt x="380" y="510" on="0"/>
        <pt x="435" y="497" on="0"/>
        <pt x="469" y="463" on="0"/>
        <pt x="481" y="405" on="0"/>
        <pt x="473" y="360" on="1"/>
        <pt x="410" y="0" on="1"/>
        <pt x="320" y="0" on="1"/>
        <pt x="383" y="360" on="1"/>
        <pt x="387" y="386" on="0"/>
        <pt x="379" y="421" on="0"/>
        <pt x="358" y="442" on="0"/>
        <pt x="325" y="450" on="0"/>
        <pt x="304" y="450" on="1"/>
        <pt x="285" y="450" on="0"/>
        <pt x="243" y="438" on="0"/>
        <pt x="230" y="430" on="1"/>
      </contour>
    </TTGlyph>
    <TTGlyph name="afii10082" xMin="29" yMin="-200" xMax="477" yMax="510">
      <contour>
        <pt x="232" y="470" on="1"/>
        <pt x="255" y="489" on="0"/>
        <pt x="314" y="510" on="0"/>
        <pt x="344" y="510" on="1"/>
        <pt x="383" y="510" on="0"/>
        <pt x="441" y="485" on="0"/>
        <pt x="472" y="425" on="0"/>
        <pt x="477" y="325" on="0"/>
        <pt x="464" y="250" on="1"/>
        <pt x="450" y="175" on="0"/>
        <pt x="411" y="75" on="0"/>
        <pt x="358" y="15" on="0"/>
        <pt x="292" y="-10" on="0"/>
        <pt x="253" y="-10" on="1"/>
        <pt x="223" y="-10" on="0"/>
        <pt x="178" y="4" on="0"/>
        <pt x="157" y="15" on="1"/>
        <pt x="119" y="-200" on="1"/>
        <pt x="29" y="-200" on="1"/>
        <pt x="153" y="500" on="1"/>
        <pt x="228" y="500" on="1"/>
        <pt x="227" y="470" on="1"/>
      </contour>
      <contour>
        <pt x="167" y="70" on="1"/>
        <pt x="177" y="62" on="0"/>
        <pt x="214" y="50" on="0"/>
        <pt x="233" y="50" on="1"/>
        <pt x="257" y="50" on="0"/>
        <pt x="299" y="67" on="0"/>
        <pt x="335" y="112" on="0"/>
        <pt x="363" y="190" on="0"/>
        <pt x="374" y="250" on="1"/>
        <pt x="384" y="310" on="0"/>
        <pt x="384" y="387" on="0"/>
        <pt x="364" y="432" on="0"/>
        <pt x="328" y="450" on="0"/>
        <pt x="304" y="450" on="1"/>
        <pt x="285" y="450" on="0"/>
        <pt x="243" y="438" on="0"/>
        <pt x="230" y="430" on="1"/>
      </contour>
    </TTGlyph>
    <TTGlyph name="afii10083" xMin="75" yMin="-10" xMax="436" yMax="510">
      <contour>
        <pt x="329" y="450" on="1"/>
        <pt x="301" y="450" on="0"/>
        <pt x="255" y="432" on="0"/>
        <pt x="218" y="387" on="0"/>
        <pt x="189" y="310" on="0"/>
        <pt x="179" y="250" on="1"/>
        <pt x="168" y="190" on="0"/>
        <pt x="169" y="112" on="0"/>
        <pt x="192" y="67" on="0"/>
        <pt x="236" y="50" on="0"/>
        <pt x="268" y="50" on="1"/>
        <pt x="368" y="50" on="1"/>
        <pt x="361" y="10" on="1"/>
        <pt x="338" y="2" on="0"/>
        <pt x="268" y="-10" on="0"/>
        <pt x="238" y="-10" on="1"/>
        <pt x="187" y="-10" on="0"/>
        <pt x="118" y="15" on="0"/>
        <pt x="81" y="75" on="0"/>
        <pt x="75" y="175" on="0"/>
        <pt x="89" y="250" on="1"/>
        <pt x="102" y="325" on="0"/>
        <pt x="142" y="425" on="0"/>
        <pt x="198" y="485" on="0"/>
        <pt x="272" y="510" on="0"/>
        <pt x="319" y="510" on="1"/>
        <pt x="349" y="510" on="0"/>
        <pt x="415" y="498" on="0"/>
        <pt x="436" y="490" on="1"/>
        <pt x="429" y="450" on="1"/>
      </contour>
    </TTGlyph>
    <TTGlyph name="afii10084" xMin="65" yMin="0" xMax="696" yMax="510">
      <contour>
        <pt x="390" y="0" on="1"/>
        <pt x="300" y="0" on="1"/>
        <pt x="363" y="360" on="1"/>
        <pt x="367" y="386" on="0"/>
        <pt x="360" y="421" on="0"/>
        <pt x="341" y="442" on="0"/>
        <pt x="314" y="450" on="0"/>
        <pt x="299" y="450" on="1"/>
        <pt x="280" y="450" on="0"/>
        <pt x="243" y="438" on="0"/>
        <pt x="230" y="430" on="1"/>
        <pt x="155" y="0" on="1"/>
        <pt x="65" y="0" on="1"/>
        <pt x="153" y="500" on="1"/>
        <pt x="228" y="500" on="1"/>
        <pt x="227" y="470" on="1"/>
        <pt x="232" y="470" on="1"/>
        <pt x="255" y="489" on="0"/>
        <pt x="305" y="510" on="0"/>
        <pt x="339" y="510" on="1"/>
        <pt x="373" y="510" on="0"/>
        <pt x="428" y="491" on="0"/>
        <pt x="444" y="466" on="1"/>
        <pt x="458" y="477" on="0"/>
        <pt x="493" y="493" on="0"/>
        <pt x="528" y="504" on="0"/>
        <pt x="561" y="510" on="0"/>
        <pt x="574" y="510" on="1"/>
        <pt x="604" y="510" on="0"/>
        <pt x="653" y="497" on="0"/>
        <pt x="685" y="463" on="0"/>
        <pt x="696" y="405" on="0"/>
        <pt x="688" y="360" on="1"/>
        <pt x="625" y="0" on="1"/>
        <pt x="535" y="0" on="1"/>
        <pt x="598" y="360" on="1"/>
        <pt x="602" y="386" on="0"/>
        <pt x="595" y="421" on="0"/>
        <pt x="576" y="442" on="0"/>
        <pt x="549" y="450" on="0"/>
        <pt x="534" y="450" on="1"/>
        <pt x="511" y="450" on="0"/>
        <pt x="468" y="438" on="0"/>
        <pt x="455" y="430" on="1"/>
        <pt x="457" y="419" on="0"/>
        <pt x="457" y="383" on="0"/>
        <pt x="453" y="360" on="1"/>
      </contour>
    </TTGlyph>
    <TTGlyph name="afii10085" xMin="31" yMin="-210" xMax="503" yMax="500">
      <contour>
        <pt x="228" y="-10" on="1"/>
        <pt x="179" y="-10" on="0"/>
        <pt x="132" y="53" on="0"/>
        <pt x="129" y="110" on="1"/>
        <pt x="108" y="500" on="1"/>
        <pt x="198" y="500" on="1"/>
        <pt x="219" y="110" on="1"/>
        <pt x="221" y="80" on="0"/>
        <pt x="238" y="55" on="0"/>
        <pt x="251" y="55" on="1"/>
        <pt x="413" y="500" on="1"/>
        <pt x="503" y="500" on="1"/>
        <pt x="318" y="-10" on="1"/>
        <pt x="280" y="-115" on="0"/>
        <pt x="184" y="-210" on="0"/>
        <pt x="117" y="-210" on="1"/>
        <pt x="94" y="-210" on="0"/>
        <pt x="48" y="-198" on="0"/>
        <pt x="31" y="-190" on="1"/>
        <pt x="38" y="-150" on="1"/>
        <pt x="108" y="-150" on="1"/>
        <pt x="127" y="-150" on="0"/>
        <pt x="157" y="-139" on="0"/>
        <pt x="185" y="-108" on="0"/>
        <pt x="213" y="-53" on="0"/>
      </contour>
    </TTGlyph>
    <TTGlyph name="afii10086" xMin="73" yMin="-200" xMax="626" yMax="700">
      <contour>
        <pt x="378" y="700" on="1"/>
        <pt x="468" y="700" on="1"/>
        <pt x="434" y="505" on="1"/>
        <pt x="534" y="497" on="0"/>
        <pt x="626" y="374" on="0"/>
        <pt x="604" y="250" on="1"/>
        <pt x="581" y="125" on="0"/>
        <pt x="447" y="3" on="0"/>
        <pt x="344" y="-5" on="1"/>
        <pt x="309" y="-200" on="1"/>
        <pt x="219" y="-200" on="1"/>
        <pt x="254" y="-5" on="1"/>
        <pt x="204" y="-1" on="0"/>
        <pt x="130" y="33" on="0"/>
        <pt x="85" y="96" on="0"/>
        <pt x="73" y="188" on="0"/>
        <pt x="84" y="250" on="1"/>
        <pt x="106" y="375" on="0"/>
        <pt x="241" y="497" on="0"/>
        <pt x="344" y="505" on="1"/>
      </contour>
      <contour>
        <pt x="354" y="55" on="1"/>
        <pt x="382" y="57" on="0"/>
        <pt x="433" y="79" on="0"/>
        <pt x="474" y="125" on="0"/>
        <pt x="505" y="197" on="0"/>
        <pt x="514" y="250" on="1"/>
        <pt x="523" y="302" on="0"/>
        <pt x="518" y="375" on="0"/>
        <pt x="493" y="421" on="0"/>
        <pt x="451" y="443" on="0"/>
        <pt x="423" y="445" on="1"/>
      </contour>
      <contour>
        <pt x="333" y="445" on="1"/>
        <pt x="304" y="443" on="0"/>
        <pt x="254" y="421" on="0"/>
        <pt x="214" y="375" on="0"/>
        <pt x="183" y="302" on="0"/>
        <pt x="174" y="250" on="1"/>
        <pt x="165" y="197" on="0"/>
        <pt x="170" y="125" on="0"/>
        <pt x="194" y="79" on="0"/>
        <pt x="236" y="57" on="0"/>
        <pt x="264" y="55" on="1"/>
      </contour>
    </TTGlyph>
    <TTGlyph name="afii10087" xMin="15" yMin="0" xMax="469" yMax="500">
      <contour>
        <pt x="379" y="500" on="1"/>
        <pt x="469" y="500" on="1"/>
        <pt x="304" y="255" on="1"/>
        <pt x="385" y="0" on="1"/>
        <pt x="295" y="0" on="1"/>
        <pt x="234" y="195" on="1"/>
        <pt x="105" y="0" on="1"/>
        <pt x="15" y="0" on="1"/>
        <pt x="184" y="255" on="1"/>
        <pt x="107" y="500" on="1"/>
        <pt x="197" y="500" on="1"/>
        <pt x="255" y="315" on="1"/>
      </contour>
    </TTGlyph>
    <TTGlyph name="afii10088" xMin="81" yMin="-145" xMax="498" yMax="500">
      <contour>
        <pt x="428" y="105" on="1"/>
        <pt x="422" y="65" on="0"/>
        <pt x="461" y="65" on="1"/>
        <pt x="491" y="65" on="1"/>
        <pt x="454" y="-145" on="1"/>
        <pt x="399" y="-145" on="1"/>
        <pt x="393" y="-115" on="0"/>
        <pt x="392" y="-38" on="0"/>
        <pt x="395" y="0" on="1"/>
        <pt x="372" y="0" on="0"/>
        <pt x="346" y="20" on="0"/>
        <pt x="341" y="35" on="1"/>
        <pt x="336" y="35" on="1"/>
        <pt x="313" y="12" on="0"/>
        <pt x="248" y="-10" on="0"/>
        <pt x="218" y="-10" on="1"/>
        <pt x="182" y="-10" on="0"/>
        <pt x="127" y="3" on="0"/>
        <pt x="93" y="37" on="0"/>
        <pt x="81" y="95" on="0"/>
        <pt x="89" y="140" on="1"/>
        <pt x="153" y="500" on="1"/>
        <pt x="243" y="500" on="1"/>
        <pt x="179" y="140" on="1"/>
        <pt x="174" y="114" on="0"/>
        <pt x="183" y="79" on="0"/>
        <pt x="204" y="58" on="0"/>
        <pt x="237" y="50" on="0"/>
        <pt x="258" y="50" on="1"/>
        <pt x="277" y="50" on="0"/>
        <pt x="319" y="62" on="0"/>
        <pt x="332" y="70" on="1"/>
        <pt x="408" y="500" on="1"/>
        <pt x="498" y="500" on="1"/>
      </contour>
    </TTGlyph>
    <TTGlyph name="afii10089" xMin="94" yMin="0" xMax="478" yMax="500">
      <contour>
        <pt x="133" y="500" on="1"/>
        <pt x="223" y="500" on="1"/>
        <pt x="192" y="325" on="1"/>
        <pt x="183" y="276" on="0"/>
        <pt x="232" y="240" on="0"/>
        <pt x="277" y="240" on="1"/>
        <pt x="342" y="240" on="1"/>
        <pt x="388" y="500" on="1"/>
        <pt x="478" y="500" on="1"/>
        <pt x="390" y="0" on="1"/>
        <pt x="300" y="0" on="1"/>
        <pt x="333" y="190" on="1"/>
        <pt x="313" y="186" on="0"/>
        <pt x="250" y="180" on="0"/>
        <pt x="216" y="180" on="1"/>
        <pt x="186" y="180" on="0"/>
        <pt x="137" y="193" on="0"/>
        <pt x="106" y="226" on="0"/>
        <pt x="94" y="282" on="0"/>
        <pt x="102" y="325" on="1"/>
      </contour>
    </TTGlyph>
    <TTGlyph name="afii10090" xMin="81" yMin="-10" xMax="713" yMax="500">
      <contour>
        <pt x="388" y="500" on="1"/>
        <pt x="478" y="500" on="1"/>
        <pt x="414" y="140" on="1"/>
        <pt x="409" y="114" on="0"/>
        <pt x="417" y="79" on="0"/>
        <pt x="436" y="58" on="0"/>
        <pt x="463" y="50" on="0"/>
        <pt x="478" y="50" on="1"/>
        <pt x="497" y="50" on="0"/>
        <pt x="534" y="62" on="0"/>
        <pt x="547" y="70" on="1"/>
        <pt x="623" y="500" on="1"/>
        <pt x="713" y="500" on="1"/>
        <pt x="625" y="0" on="1"/>
        <pt x="550" y="0" on="1"/>
        <pt x="550" y="30" on="1"/>
        <pt x="545" y="30" on="1"/>
        <pt x="522" y="11" on="0"/>
        <pt x="472" y="-10" on="0"/>
        <pt x="438" y="-10" on="1"/>
        <pt x="404" y="-10" on="0"/>
        <pt x="349" y="9" on="0"/>
        <pt x="333" y="34" on="1"/>
        <pt x="319" y="23" on="0"/>
        <pt x="284" y="7" on="0"/>
        <pt x="249" y="-4" on="0"/>
        <pt x="216" y="-10" on="0"/>
        <pt x="203" y="-10" on="1"/>
        <pt x="173" y="-10" on="0"/>
        <pt x="124" y="3" on="0"/>
        <pt x="92" y="37" on="0"/>
        <pt x="81" y="95" on="0"/>
        <pt x="89" y="140" on="1"/>
        <pt x="153" y="500" on="1"/>
        <pt x="243" y="500" on="1"/>
        <pt x="179" y="140" on="1"/>
        <pt x="174" y="114" on="0"/>
        <pt x="182" y="79" on="0"/>
        <pt x="201" y="58" on="0"/>
        <pt x="228" y="50" on="0"/>
        <pt x="243" y="50" on="1"/>
        <pt x="266" y="50" on="0"/>
        <pt x="309" y="62" on="0"/>
        <pt x="322" y="70" on="1"/>
        <pt x="320" y="81" on="0"/>
        <pt x="320" y="117" on="0"/>
        <pt x="324" y="140" on="1"/>
      </contour>
    </TTGlyph>
</ttFont>
